<?xml version="1.0" encoding="UTF-8" standalone="no"?><!DOCTYPE svg PUBLIC "-//W3C//DTD SVG 1.1//EN" "http://www.w3.org/Graphics/SVG/1.1/DTD/svg11.dtd"><svg width="100%" height="100%" viewBox="0 0 1563 1563" version="1.1" xmlns="http://www.w3.org/2000/svg" xmlns:xlink="http://www.w3.org/1999/xlink" xml:space="preserve" xmlns:serif="http://www.serif.com/" style="fill-rule:evenodd;clip-rule:evenodd;stroke-linejoin:round;stroke-miterlimit:2;"><g><clipPath id="_clip1"><path d="M-548.379,1142.45l1486.74,-823.131l267.574,483.293l-1486.74,823.132l-267.574,-483.294Z" clip-rule="nonzero"/></clipPath><g clip-path="url(#_clip1)"><clipPath id="_clip2"><path d="M-548.379,1142.45l1486.74,-823.131l267.574,483.293l-1486.74,823.132l-267.574,-483.294Z" clip-rule="nonzero"/></clipPath><g clip-path="url(#_clip2)"><path d="M1005.83,450.707c-18.839,-31.373 -38.582,-62.313 -61.209,-91.12c-6.33,-7.733 -12.435,-15.755 -19.892,-22.464c-2.057,-1.85 -5.176,-3.765 -7.928,-4.306c-1.322,-0.26 -2.829,0.005 -3.73,1.006c-1.318,1.465 -0.864,3.743 -0.331,5.64c1.703,6.06 3.416,12.133 5.688,18.01c1.152,2.981 2.444,5.91 3.947,8.731c1.33,2.496 3.278,4.774 4.32,7.391c1.803,4.524 0.366,9.638 -0.461,14.211c-0.985,5.445 -1.77,10.909 -2.929,16.324c-2.486,11.619 -5.912,23.048 -10.447,34.036c-0.726,1.759 -1.48,3.508 -2.264,5.243c-7.935,17.886 -18.792,34.386 -31.438,49.291c-24.346,28.521 -54.286,51.564 -84.724,73.185c-130.964,94.103 -269.249,177.35 -407.837,259.582c-1.147,0.888 -2.509,-0.324 -3.694,-0.433c-17.022,8.468 -33.632,17.782 -50.503,26.545c-11.746,7.991 -30.097,2.428 -35.464,-10.721c-2.657,-6.214 -1.444,-13.586 2.26,-19.113c4.989,-7.668 13.149,-12.561 21.359,-16.161c-1.033,-4.462 -2.066,-8.923 -3.306,-13.314c-6.919,4.556 -14.017,9.075 -19.61,15.288c-5.65,6.619 -11.865,13.933 -11.967,23.131c-1.402,17.941 13.874,34.769 31.695,35.875c-18.18,10.511 -36.188,21.316 -54.217,32.092c-0.213,-0.64 -0.637,-1.909 -0.85,-2.539c1.877,-0.982 3.743,-1.994 5.61,-3.006c-2.522,-3.088 -6.342,-5.622 -10.497,-4.453c-4.123,1.405 -7.673,4.079 -11.625,5.878c-1.354,-2.584 -2.766,-5.138 -4.169,-7.683c-2.278,1.292 -4.567,2.554 -6.856,3.816c-6.964,-12.85 -14.164,-25.569 -21.098,-38.43c4.28,-2.689 9.398,-4.3 13,-7.932c1.749,-4.474 -2.999,-11.876 -8.137,-9.11c-12.555,6.853 -25.059,13.824 -37.594,20.716c-6.184,2.804 -0.663,14.186 5.363,11.393c3.862,-1.897 7.504,-4.226 11.346,-6.172c7.062,12.781 14.036,25.601 21.176,38.341c-2.309,1.232 -4.597,2.514 -6.906,3.747c1.472,2.583 2.835,5.227 4.16,7.9c-5.539,3.174 -13.554,5.411 -14.034,13.023c0.417,1.516 0.845,3.072 1.262,4.617c1.935,-1.101 3.89,-2.163 5.855,-3.206c0.582,1.19 1.213,2.369 1.747,3.618c-3.955,2.667 -8.25,4.824 -12.295,7.344c-0.682,-1.406 -1.374,-2.792 -2.027,-4.178c1.936,-0.992 3.841,-2.034 5.727,-3.106c-2.434,-3.157 -6.282,-5.514 -10.388,-4.464c-4.124,1.376 -7.714,3.952 -11.496,6.026c-1.451,-2.465 -2.804,-4.971 -4.107,-7.496c-2.429,1.086 -4.897,2.083 -7.215,3.385c-6.846,-12.861 -14.133,-25.482 -20.969,-38.343c3.772,-2.063 7.645,-3.96 11.287,-6.25c1.414,-0.811 1.795,-2.521 2.554,-3.84c-1.226,-2.684 -2.161,-5.962 -5.034,-7.35c-1.444,-0.382 -3.001,-0.182 -4.258,0.588c-12.368,6.812 -24.736,13.624 -37.083,20.455c-6.502,2.639 -1.028,14.277 5.097,11.504c3.892,-1.897 7.564,-4.207 11.426,-6.163c6.924,12.772 14.113,25.413 20.968,38.214c-2.02,1.635 -4.459,2.612 -6.718,3.854c1.452,2.574 2.805,5.207 4.199,7.83c-3.634,2.102 -7.598,3.714 -10.902,6.326c-3.224,2.76 -3.422,7.449 -2.089,11.227c2.085,-0.856 4.06,-1.947 5.964,-3.157c0.924,1.887 1.916,3.754 2.898,5.63c-4.321,2.533 -8.702,4.966 -12.933,7.656c-0.991,-1.857 -1.982,-3.703 -2.934,-5.551l-0.216,-0.389c1.886,-1.023 3.771,-2.046 5.662,-3.061c-2.166,-2.972 -5.551,-5.371 -9.414,-4.768c-4.571,0.995 -8.206,4.193 -12.444,6.014c-1.598,-2.415 -2.903,-5.009 -4.226,-7.564c-2.329,1.233 -4.637,2.485 -6.936,3.777c-6.934,-12.86 -14.202,-25.54 -21.068,-38.44c4.065,-2.48 8.659,-4.186 12.364,-7.206c3.29,-4.34 -2.545,-13.094 -7.855,-9.665c-12.348,6.802 -24.716,13.604 -37.054,20.425c-2.379,1.125 -4.13,4.129 -2.59,6.613c1.019,2.735 3.337,6.179 6.714,5.273c4.357,-1.763 8.232,-4.528 12.489,-6.507c6.835,12.89 14.084,25.551 21.018,38.401c-2.26,1.173 -4.49,2.395 -6.74,3.578c1.295,2.654 2.649,5.287 4.131,7.861c-3.703,2.152 -7.745,3.803 -11.108,6.505c-3.134,2.809 -3.244,7.418 -1.872,11.147c1.916,-1.031 3.827,-2.071 5.738,-3.109l0.29,0.523c1.791,2.956 3.375,6.031 4.969,9.107c-34.195,18.833 -68.182,38.06 -102.274,57.087c-72.258,40.432 -144.523,80.853 -216.747,121.332c-4.044,2.648 -8.932,3.458 -12.945,6.194c-4.222,2.611 -8.945,4.209 -13.388,6.377c-0.78,-1.277 -1.482,-2.573 -2.193,-3.86c-1.383,-0.176 -2.867,-0.687 -4.123,0.221c-3.429,1.834 -6.997,3.502 -10.125,5.836c-2.213,2.13 0.495,5.009 1.273,7.213c-2.621,1.699 -5.482,3.025 -7.983,4.921c0.173,0.551 0.527,1.653 0.699,2.204c-20.718,11.302 -41.356,22.78 -62.064,34.11c-0.455,-0.213 -1.366,-0.62 -1.822,-0.833c-2.25,1.212 -4.489,2.454 -6.749,3.677c0.004,0.493 0.002,1.47 -0.004,1.953c-2.476,1.215 -4.782,2.773 -7.33,3.85c-2.52,-0.561 -5.255,-1.851 -7.739,-0.39c-3.029,1.238 -4.572,4.419 -4.872,7.53c-4.354,2.147 -8.437,4.865 -12.881,6.835c-4.902,-2.11 -10.521,-3.772 -15.682,-1.43c-6.043,3.099 -11.906,6.562 -17.879,9.808c-6.598,-0.864 -13.197,-1.747 -19.749,-2.877c-5.699,2.958 -11.318,6.063 -16.887,9.257c-0.408,1.947 -1.132,3.917 -0.75,5.966c1.087,9.849 5.474,18.941 10.094,27.586c5.086,8.909 10.605,17.587 16.761,25.796c3.341,4.284 6.733,8.756 11.395,11.679c2.578,1.537 5.077,-0.516 7.298,-1.689c3.78,-2.281 7.831,-4.1 11.481,-6.577c1.602,-5.608 3.441,-11.199 5.795,-16.537c6.585,-4.475 14.078,-7.606 20.772,-11.963c5.382,-4.268 5.113,-11.904 4.588,-18.076c4.285,-2.147 8.349,-4.726 12.674,-6.785c2.813,0.145 6.049,1.233 8.551,-0.593c2.268,-1.301 3.027,-3.913 3.807,-6.209c2.921,-1.227 6.037,-5.062 9.268,-3.391c2.161,-1.133 4.293,-2.315 6.445,-3.458c0.192,-0.613 0.576,-1.84 0.759,-2.453c20.69,-11.173 41.26,-22.562 61.801,-34.011c0.84,1.395 1.71,2.799 2.58,4.202c2.24,-1.212 4.48,-2.415 6.7,-3.637c-0.86,4.616 -2.174,9.186 -2.284,13.913c3.231,0.497 6.443,1.131 9.693,1.49c0.281,-1.739 0.524,-3.478 0.746,-5.197c3.254,-0.362 6.974,-0.403 9.42,-2.939c3.271,-2.938 4.018,-8.154 1.944,-11.966c-1.581,-2.632 -4.609,-3.653 -6.825,-5.569c2.083,0.111 3.896,2.119 6.009,1.115c1.69,-0.843 3.231,-1.941 4.851,-2.892c-0.302,-0.727 -0.896,-2.173 -1.198,-2.901c4.877,-2.142 9.089,-5.857 14.369,-6.956c5.434,-2.867 10.747,-5.96 16.12,-8.935c-4.784,14.584 -6.769,30.055 -6.268,45.375c0.757,9.191 1.889,18.388 4.497,27.267c8.953,32.688 31.748,60.367 59.826,78.759c17.155,11.316 36.558,20.156 57.255,21.811c21.667,2.052 43.14,-3.927 63.046,-11.985c23.8,-9.787 46.404,-22.17 69.39,-33.677c5.917,-2.772 11.522,-6.36 17.944,-7.883c9.195,-2.573 15.986,-9.595 24.238,-13.985c43.197,-25.785 86.405,-51.54 129.581,-77.364c11.418,20.53 22.64,41.18 33.998,61.748c-0.367,2.253 0.563,4.85 2.781,5.819c-0.045,1.747 0.531,3.439 2.235,4.244c0.219,3.748 4.008,6.224 7.38,6.976c3.559,0.799 7.041,-0.571 10.016,-2.412c11.296,-6.28 22.623,-12.481 33.919,-18.741c4.079,-2.047 6.477,-6.813 5.848,-11.298c-0.234,-2.05 -0.916,-4.63 -3.578,-4.253l1.642,-0.754c-0.869,-1.335 -1.309,-3.186 -3.01,-3.646c0.095,-1.727 -0.628,-3.211 -1.508,-4.586c-1.62,-0.174 -2.194,-1.659 -3.061,-2.708c4.017,-2.283 8.084,-4.487 12.142,-6.692c0.624,2.719 0.748,5.866 3.005,7.84c0.615,1.692 1.174,3.661 3.084,4.336c-0.684,1.92 0.946,3.407 2.277,4.491c3.389,2.903 8.622,3.314 12.472,1.092c12.182,-6.613 24.274,-13.383 36.416,-20.065c5.236,-2.776 7.006,-9.541 4.713,-14.831c-0.435,-0.085 -1.324,-0.256 -1.759,-0.341c0.31,-1.907 -0.134,-4.262 -2.309,-4.717c0.036,-0.474 0.107,-1.432 0.143,-1.906c-0.53,-0.815 -1.05,-1.61 -1.559,-2.385c-1.407,-0.679 -2.589,-1.607 -2.918,-3.173c4.099,-1.939 7.847,-4.525 11.997,-6.365c0.732,2.609 0.351,6.707 3.664,7.568c-0.173,0.633 -0.325,1.295 -0.477,1.968c0.886,0.979 1.851,1.899 2.962,2.669c-0.805,1.724 0.865,3.151 1.989,4.217c3.508,2.991 8.87,3.499 12.867,1.147c12.083,-6.622 24.136,-13.303 36.199,-19.974c3.93,-2.114 6.338,-6.772 5.631,-11.177c-0.251,-1.823 -0.663,-3.932 -2.827,-4.23c0.174,-0.445 0.512,-1.316 0.686,-1.752c-0.935,-0.979 -1.773,-2.018 -2.64,-3.008c0.118,-3.741 -3.799,-4.804 -5.077,-7.823c-10.443,-19.571 -21.722,-38.731 -31.939,-58.413c52.294,-29.481 104.578,-58.981 156.965,-88.296c0.842,1.581 1.772,3.133 2.556,4.784c-2.19,3.758 -3.988,8.253 -2.305,12.581c1.921,6.773 10.369,10.512 16.688,7.401c4.898,-2.063 7.518,-7.344 7.536,-12.475c6.847,-3.688 13.514,-7.72 20.362,-11.387c1.807,-1.042 3.598,0.73 5.416,1.04c7.817,2.571 16.243,-4.86 15.565,-12.877c17.562,-9.963 35.033,-20.073 52.746,-29.731c1.192,2.191 2.237,4.491 3.715,6.541c2.619,-0.682 4.815,-2.378 7.173,-3.641c-0.493,-1.249 -1.036,-2.419 -1.46,-3.649c5.236,-2.776 10.232,-5.965 15.54,-8.614c0.502,1.062 1.034,2.123 1.585,3.194c2.497,-1.204 4.963,-2.478 7.31,-3.958c-1.165,-2.408 -2.398,-4.776 -3.749,-7.054c5.746,-3.294 11.561,-6.46 17.287,-9.803c-1.296,-2.693 -2.679,-5.336 -4.259,-7.859c-5.885,3.088 -11.571,6.549 -17.416,9.715c-1.213,-2.309 -2.485,-4.568 -3.747,-6.827c-2.24,1.143 -4.521,2.198 -6.591,3.626c-0.66,1.278 0.613,2.57 0.801,3.851c-5.197,2.796 -10.224,5.907 -15.491,8.585c-0.492,-1.072 -0.974,-2.144 -1.437,-3.196c-2.635,1.127 -5.17,2.48 -7.525,4.118c1.233,2.319 2.534,4.627 3.728,6.985c-17.366,9.765 -34.702,19.597 -52.038,29.43c-3.031,-2.63 -6.996,-3.594 -10.942,-3.453c-0.571,-1.051 -1.132,-2.082 -1.673,-3.104c33.957,-17.716 67.926,-35.403 101.891,-53.087c-0.675,-1.751 -1.469,-3.442 -2.242,-5.113c11.028,-6.564 23.782,-11.998 30.565,-23.569c-0.517,2.037 -1.24,4.046 -1.529,6.14c1.24,1.924 1.937,3.991 1.236,6.305c3.078,1.11 6.205,2.16 9.484,2.558c0.374,-1.316 0.748,-2.641 1.182,-3.928c2.79,0.974 5.629,1.789 8.517,2.486c-0.596,0.725 -1.163,1.46 -1.719,2.215c2.104,1.453 4.132,3.331 6.741,3.813c3.79,0.027 6.029,-3.682 8.109,-6.324c3.73,-6.119 7.582,-12.831 7.314,-20.229c0.327,-8.263 -3.702,-15.749 -5.001,-23.741c6.513,-3.596 12.955,-7.33 19.458,-10.965c-0.113,-0.542 -0.349,-1.645 -0.462,-2.197c16.138,-10.237 29.898,-24.185 39.868,-40.5c0.637,0.587 1.352,1.134 1.969,1.829c-1.31,2.616 -3.067,4.959 -4.626,7.429c2.564,2.189 5.46,3.962 8.521,5.417c2.06,-2.77 3.343,-6.264 6.178,-8.35c-1.513,3.16 -3.78,5.883 -5.859,8.693c1.38,2.268 2.538,5.12 5.202,6.174c3.974,0.904 8.288,-1.292 10.491,-4.606c5.087,-10.285 11.748,-19.823 15.298,-30.825c3.246,-8.493 4.178,-17.569 5.496,-26.481c-0.064,-3.019 -0.681,-5.994 -0.834,-8.993c-0.584,-13.494 -3.752,-26.681 -5.805,-39.986c-1.727,-9.617 -2.853,-19.338 -3.732,-29.06c-0.237,-4.794 -0.227,-9.639 -1.765,-14.235c-1.51,-0.036 -3.01,-0.073 -4.481,-0.101c-0.707,6.45 -1.502,12.9 -1.981,19.367c-0.132,21.168 5.307,41.836 6.595,62.894c-2.045,0.914 -3.919,2.144 -5.565,3.628c-2.521,-0.523 -5.022,-1.015 -7.494,-1.666c1.867,-13.001 1.708,-26.331 -0.52,-39.28c-5.948,-35.732 -28.052,-68.309 -59.016,-87.103c15.137,-7.337 29.73,-15.865 45.428,-21.993c20.033,-8.316 40.036,-16.691 60.058,-25.036c11.003,-4.748 22.786,-7.154 34.264,-10.436c30.863,-8.986 63.659,-11.91 95.522,-7.288c11.224,1.691 22.303,4.344 33.08,7.91c5.39,1.784 10.933,3.635 16.061,6.09c1.949,0.933 4.004,1.166 5.989,2.042c2.368,1.045 4.454,2.701 6.198,4.598c2.899,3.151 4.974,6.952 7.283,10.558c2.054,3.206 4.256,6.324 6.675,9.266c1.977,2.404 4.329,5.706 6.913,7.448c1.536,1.035 3.62,1.465 5.251,0.587c1.416,-0.762 2.212,-2.332 2.621,-3.887c1.105,-4.197 -0.027,-8.466 -1.232,-12.502c-1.397,-4.679 -2.928,-9.299 -4.564,-13.906c-0.149,-0.419 -0.298,-0.839 -0.446,-1.259c-30.549,-64.414 -63.524,-127.712 -99.829,-189.068l-0.004,0.006Zm-813.064,756.383c-45.858,27.267 -91.616,54.72 -137.487,81.978c-3.151,-0.339 -5.7,1.705 -8.293,3.147c-1.229,0.524 -1.742,1.771 -2.315,2.901c-3.062,2.068 -7.869,1.762 -9.783,-1.706c-2.488,-3.779 -0.016,-9.137 4.369,-9.933c0.322,0.727 0.955,2.173 1.267,2.89c3.42,-1.725 7.714,-2.757 9.568,-6.443c1.389,-1.512 3.347,-2.268 5.045,-3.347c44.199,-26.316 88.307,-52.779 132.539,-79.048c1.684,3.194 3.486,6.317 5.092,9.56l-0.002,0.001Zm94.773,16.943c-3.989,2.006 -7.889,4.199 -11.779,6.393c-2.486,-4.776 -5.444,-9.311 -7.606,-14.236c3.76,-2.34 7.68,-4.425 11.58,-6.519c2.576,4.794 5.367,9.478 7.806,14.362l-0.001,-0Zm-26.875,-48.625c-3.709,2.497 -7.749,4.474 -11.609,6.717c-1.995,-3.882 -4.237,-7.623 -6.183,-11.515c3.899,-2.213 7.799,-4.455 11.718,-6.648c1.965,3.842 4.314,7.493 6.074,11.446l0,-0Zm-25.033,-45.423c-3.97,2.065 -7.789,4.376 -11.689,6.569c-3.208,-6.121 -6.632,-12.123 -9.968,-18.174c3.979,-2.085 7.938,-4.219 11.788,-6.56c3.326,6.031 6.779,12.003 9.869,18.164l-0,0.001Zm117.501,57.72c-3.919,2.252 -7.908,4.387 -11.847,6.61c-2.645,-4.853 -5.368,-9.656 -7.984,-14.509c3.999,-2.145 7.887,-4.486 11.896,-6.621c2.517,4.904 5.251,9.697 7.935,14.52l-0,-0Zm-32.385,-58.439c-4.059,1.937 -8.008,4.062 -11.988,6.147c-9.629,-17.772 -19.563,-35.383 -29.192,-53.155c3.969,-2.154 7.908,-4.348 11.867,-6.521c9.63,17.919 19.762,35.569 29.313,53.529l0,-0Zm-62.472,-105.712c1.115,2.468 2.379,4.894 3.828,7.201c1.291,-0.217 3.325,-2.474 4.22,-0.498c4.72,8.773 9.675,17.426 14.356,26.219c-4.009,2.106 -7.928,4.348 -11.937,6.444c-4.832,-9.226 -10.077,-18.232 -14.948,-27.438c1.119,-0.651 2.239,-1.302 3.359,-1.942c-1.498,-2.169 -2.087,-5.361 -4.368,-6.783c-18.156,9.721 -36.081,19.884 -54.178,29.714c-1.855,1.11 -4.01,1.878 -5.567,3.401c0.455,2.542 2.348,4.658 3.462,6.987c1.239,-0.523 2.508,-0.997 3.777,-1.462c4.91,9.048 9.761,18.136 14.945,27.024c-3.948,2.253 -7.866,4.545 -11.965,6.522c-4.92,-9.116 -10.037,-18.133 -14.976,-27.24c1.159,-0.602 2.229,-1.331 3.208,-2.187c-1.095,-2.389 -2.436,-4.638 -3.717,-6.907c-20.289,10.804 -40.226,22.267 -60.493,33.12c0.969,2.656 2.41,5.101 4.058,7.417c1.07,-0.631 2.16,-1.252 3.261,-1.843c10.819,19.696 21.668,39.382 32.556,59.048c-9.948,5.894 -19.905,11.779 -29.773,17.8c0.339,-1.917 0.659,-3.814 1.078,-5.693c0.57,-12.26 -4.645,-23.704 -9.403,-34.696c-2.98,-7.18 -6.346,-14.503 -6.5,-22.416c-0.069,-3.582 -1.104,-7.027 -2.394,-10.322c-2.425,1.579 -6.6,2.679 -5.918,6.384c0.175,6.856 -0.614,14.096 2.27,20.536c3.561,9.453 8.432,18.581 9.936,28.673c1,6.367 -0.761,13.042 -4.755,18.107c-5.671,7.537 -14.291,12.936 -23.644,14.415c-6.14,0.958 -12.462,-1.023 -17.22,-4.941c-10.253,-8.392 -15.951,-20.858 -25.557,-29.857c-2.287,-2.093 -4.595,-4.432 -7.71,-5.147c-3.127,-1.099 -6.414,-0.016 -9.405,0.985c-0.213,0.535 -0.629,1.604 -0.841,2.149c6.766,3.22 11.257,9.39 15.892,15.026c6.331,7.832 12.005,16.242 19.159,23.368c5.323,5.324 12.048,9.6 19.644,10.525c-16.793,9.799 -33.397,19.922 -50.13,29.819c-5.5,3.153 -10.719,6.867 -16.641,9.225c-9.373,4.991 -18.038,12.009 -23.111,21.515c-9.389,16.27 -7.791,37.759 3.443,52.735c-1.493,-0.393 -2.976,-0.795 -4.44,-1.197c-17.931,9.492 -34.456,21.943 -53.883,28.359c-19.948,6.558 -42.17,4.156 -61.022,-4.718c-30.766,-14.243 -54.386,-44.926 -56.867,-79.155c-1.651,-20.758 4.738,-41.82 16.657,-58.743c29.242,-24.86 62.451,-44.473 95.773,-63.292c53.574,-29.827 108.993,-56.314 161.467,-88.097c-1.381,-2.238 -2.743,-4.714 -1.245,-7.312l-2.559,0.781c0.82,-1.062 2.359,-1.154 3.07,-2.314c6.776,12.792 13.934,25.384 20.828,38.116c1.196,2.595 3.696,4.173 6.434,4.793c-1.916,1.022 -3.881,1.985 -5.687,3.214c-0.545,2.077 1.541,3.816 2.316,5.655c20.159,-11.03 40.227,-22.248 60.405,-33.238c-0.796,-1.938 -1.709,-3.785 -2.779,-5.553c-2.24,1.232 -4.48,2.474 -6.649,3.844c1.054,-2.545 1.464,-5.489 -0.124,-7.903c-5.702,-10.541 -11.59,-20.972 -17.281,-31.504c3.969,-2.065 7.899,-4.219 11.768,-6.471c5.998,10.578 11.652,21.366 17.679,31.935c1.145,2.389 3.708,3.236 6.101,3.848c-2.261,1.104 -4.461,2.346 -6.591,3.685c0.941,1.69 1.873,3.399 2.815,5.118c20.348,-10.765 40.435,-22.051 60.531,-33.268c-0.617,-1.919 -1.737,-3.617 -2.718,-5.336c-2.24,1.173 -4.47,2.385 -6.61,3.735c0.576,-1.919 0.944,-3.895 0.958,-5.889c-6.13,-11.08 -12.3,-22.141 -18.254,-33.312c4.02,-2.006 7.909,-4.259 11.939,-6.255c5.68,10.403 11.361,20.806 17.13,31.15c1.195,2.585 3.947,3.648 6.567,4.209c-2.34,1.095 -4.589,2.356 -6.788,3.697c0.951,1.739 1.933,3.497 2.904,5.255c20.217,-11.168 40.553,-22.131 60.628,-33.545c-0.971,-1.719 -1.903,-3.428 -2.844,-5.138c-2.291,1.045 -4.491,2.277 -6.592,3.656c0.542,-2.51 1.209,-5.328 -0.211,-7.685c-5.631,-10.344 -11.36,-20.638 -17,-30.973c94.803,-51.343 189.543,-102.812 284.832,-153.263c1.584,2.908 2.941,5.976 4.936,8.643c0.633,0.123 1.898,0.36 2.54,0.483c16.574,29.497 32.57,59.336 49.192,88.802c-53.654,30.992 -107.41,61.799 -161.082,92.73c-0.475,-0.262 -1.417,-0.777 -1.893,-1.04c-2.937,1.593 -5.884,3.176 -8.742,4.907c-0.721,-1.316 -1.433,-2.613 -2.163,-3.89c5.548,-6.913 8.821,-15.703 8.639,-24.592c-0.04,-10.914 -5.152,-21.667 -13.547,-28.634c-10.734,-9.257 -26.856,-11.532 -39.735,-5.634c-12.321,5.302 -20.994,17.531 -22.503,30.785c-0.973,11.248 3.031,22.928 11.178,30.825c8.12,8.261 20.121,12.061 31.557,10.802c0.662,1.268 1.314,2.525 2.025,3.812l-10.035,5.432l0.063,3.221l0.19,-0.109l-0,0.001c-25.467,14.634 -50.936,29.264 -76.375,43.949c-10.388,-18.901 -20.904,-37.731 -31.185,-56.692c1.023,-0.462 2.055,-0.924 3.087,-1.377c-0.752,-2.638 -1.791,-5.442 -3.858,-7.29c-20.22,10.715 -40.09,22.118 -60.239,32.99l-0.009,-0Zm191.817,-41.632c-9.264,9.846 -25.78,11.323 -36.7,3.39c-10.508,-7.038 -14.949,-21.458 -10.507,-33.266c2.847,-7.849 9.258,-14.247 17.129,-17.055c7.803,-2.718 16.887,-2.112 24.037,2.151c6.028,3.444 10.683,9.198 12.829,15.801c3.437,9.909 0.661,21.606 -6.787,28.98l-0.001,-0.001Zm7.473,12.392c-0.084,0.049 -0.167,0.097 -0.251,0.145l-0.006,-0.01c0.086,-0.044 0.171,-0.091 0.257,-0.135l0,0Zm142.227,42.025c-2.412,3.139 -3.485,7.055 -3.018,10.999c-6.807,3.865 -13.704,7.572 -20.4,11.614c-3.1,-2.471 -6.948,-3.673 -10.892,-3.246c-0.901,-1.571 -1.812,-3.133 -2.703,-4.675c11.683,-6.194 23.454,-12.222 35.177,-18.347c0.582,1.199 1.214,2.427 1.836,3.655l-0,0Zm103.101,-73.04c-0.491,0.27 -1.474,0.791 -1.965,1.062c-1.184,-2.349 -2.407,-4.658 -3.6,-6.977c0.502,-0.172 1.525,-0.506 2.037,-0.678c1.192,2.181 2.414,4.352 3.527,6.592l0.001,0.001Zm-319.11,123.525c-4.461,2.346 -8.6,5.37 -13.362,7.096c4.765,-3.828 10.468,-6.244 15.632,-9.463c87.47,-50.395 174.981,-100.702 262.45,-151.085c6.381,-2.776 31.353,-18.109 33.876,-19.61c0.898,-4.813 7.39,-5.636 11.232,-2.895c-103.231,58.735 -206.555,117.29 -309.825,175.955l-0.003,0.002Zm357.129,-147.698c-0.161,-2.722 -1.723,-6.745 2.129,-7.428c-0.581,2.501 -1.271,4.994 -2.129,7.428Zm22.368,5.698c-1.259,-0.651 -2.537,-1.223 -3.824,-1.725c-0.272,-0.768 -0.526,-1.535 -0.759,-2.293c-2.5,-0.473 -5.308,-2.285 -7.589,-0.105c0.622,-2.413 1.461,-4.729 1.905,-7.18c-2.236,-0.643 -4.462,-1.335 -6.687,-1.909c2.113,-1.063 4.245,-2.265 5.222,-4.562c2.461,-1.974 5.43,-3.311 8.29,-4.647c4.062,6.687 4.494,14.843 3.441,22.421l0.001,-0Zm-37.653,-79.899c3.906,7.033 7.597,14.207 11.837,21.059c-3.417,2.16 -7.003,4.064 -10.821,5.398c-9.906,-14.316 -27.873,-22.476 -45.155,-20.401c-6.29,0.634 -12.342,2.717 -17.933,5.624c-3.986,-1.102 -7.361,2.429 -10.095,4.85c-3.405,2.287 -7.13,4.055 -10.576,6.274c-16.505,-29.626 -32.726,-59.401 -49.194,-89.051c0.902,-0.688 1.824,-1.367 2.766,-2.035c-1.437,-3.206 -3.14,-6.28 -4.941,-9.275c23.491,-12.597 47.212,-24.752 70.734,-37.291c1.371,2.317 2.507,4.805 4.074,7.022c1.087,0.178 2.203,0.228 3.347,0.15c18.674,34.137 37.594,68.144 56.299,102.263c1.495,1.833 -2.123,3.511 -0.341,5.411l-0.001,0.002Zm43.623,3.283c-0.417,-0.411 -1.253,-1.223 -1.671,-1.634c-2.332,1.943 -7.708,2.293 -6.846,6.233c-2.839,1.602 -5.688,3.175 -8.437,4.905c-3.882,-7.774 -8.119,-15.396 -12.523,-22.88c-0.769,0.095 -2.297,0.276 -3.056,0.371c-18.935,-34.648 -38.127,-69.159 -57.129,-103.765c0.646,-0.656 1.321,-1.293 1.997,-1.921c-1.215,-2.546 -2.41,-5.101 -3.772,-7.567c20.283,-10.133 40.206,-21.053 60.579,-30.979c16.459,3.456 31.892,11.825 43.674,23.847c17.312,17.265 26.793,42.172 25.098,66.577c-1.42,26.556 -15.845,51.976 -37.916,66.811l0.002,0.002Zm82.211,-45.427c1.128,3.948 3.75,7.163 7.572,8.789c-1.166,9.414 -4.05,18.734 -9.422,26.623c-1.406,1.728 -2.397,4.904 -5.188,3.831c1.946,-3.232 4.062,-6.358 6.108,-9.523c-2.662,-2.08 -5.528,-3.862 -8.452,-5.486c-2.195,3.156 -4.22,6.419 -6.356,9.604c-0.694,-0.418 -2.082,-1.265 -2.776,-1.694c5.498,-10.535 9.569,-21.847 11.862,-33.51c2.213,0.406 4.456,0.743 6.652,1.366l0,0Z" style="fill:#ff5757;fill-rule:nonzero;"/></g></g></g><g><clipPath id="_clip3"><path d="M1487.85,-7.125l74.647,665.285l-586.195,65.773l-74.647,-665.285l586.195,-65.773Z" clip-rule="nonzero"/></clipPath><g clip-path="url(#_clip3)"><g><clipPath id="_clip4"><path d="M1487.85,-7.125l74.647,665.285l-586.195,65.773l-74.647,-665.285l586.195,-65.773Z" clip-rule="nonzero"/></clipPath><g clip-path="url(#_clip4)"><path d="M1513.33,663.037c-3.381,0.27 -6.819,0.251 -10.124,0.908c-2.336,0.464 -4.608,1.034 -7.003,0.913c-0.519,-0.026 -1.075,0.094 -1.553,-0.053c-4.394,-1.348 -8.775,-2.591 -12.778,-5.094c-3.352,-2.096 -7.053,-3.672 -11,-4.61c-3.887,-0.924 -7.683,-2.23 -11.527,-3.338c-1.43,-0.412 -2.901,-0.681 -4.323,-1.117c-3.198,-0.981 -6.583,-1.892 -8.92,-4.321c-2.567,-2.667 -5.258,-5.556 -4.559,-9.86c0.035,-0.217 0.022,-0.45 -0.013,-0.669c-1.511,-9.562 0.198,-18.914 1.831,-28.274c0.612,-3.511 1.146,-7.036 1.789,-10.541c0.212,-1.152 0.655,-2.263 0.995,-3.391c0.151,-0.498 0.389,-0.984 0.454,-1.492c0.768,-6.01 2.578,-11.858 2.12,-18.069c-0.292,-3.957 0.414,-7.977 0.456,-11.971c0.053,-4.962 0.29,-9.923 -0.583,-14.882c-0.679,-3.856 -0.81,-7.807 -1.258,-11.708c-0.671,-5.83 -1.408,-11.653 -2.114,-17.48c-0.062,-0.513 -0.222,-1.055 -0.121,-1.539c0.642,-3.093 -0.153,-6.048 -0.735,-9.036c-0.226,-1.161 -0.27,-2.362 -0.346,-3.547c-0.216,-3.404 -0.601,-6.812 -0.565,-10.215c0.063,-5.965 -0.963,-11.827 -1.326,-17.747c-0.085,-1.387 0.166,-2.804 0.349,-4.196c0.565,-4.3 -1.046,-8.324 -1.535,-12.489c-0.017,-0.148 -0.095,-0.293 -0.089,-0.437c0.175,-3.713 -1.045,-7.243 -1.427,-10.882c-0.123,-1.18 -0.251,-2.37 -0.518,-3.523c-0.936,-4.053 -2.217,-8.05 -2.821,-12.148c-0.526,-3.567 -1.921,-6.807 -2.818,-10.219c-0.713,-2.708 -0.826,-5.567 -1.429,-8.31c-0.568,-2.588 -1.392,-5.123 -2.168,-7.661c-0.866,-2.835 -1.829,-5.639 -2.704,-8.471c-1.334,-4.319 -2.523,-8.685 -3.974,-12.963c-0.987,-2.907 -4.809,-20.33 -6.359,-23.145c-0.036,-0.065 -0.085,-0.133 -0.091,-0.203c-0.308,-3.54 -2.329,-6.453 -3.584,-9.642c-0.502,-1.276 -1.523,-2.339 -2.14,-3.582c-1.044,-2.104 -1.949,-4.277 -2.926,-6.415c-0.181,-0.397 -0.476,-0.746 -0.632,-1.151c-0.691,-1.779 -1.353,-3.57 -2.018,-5.359c-0.663,-1.78 -1.136,-3.66 -2.018,-5.324c-1.528,-2.885 -3.329,-5.625 -4.976,-8.448c-2.284,-3.913 -4.541,-7.842 -6.792,-11.773c-0.774,-1.353 -1.484,-2.741 -2.247,-4.1c-0.509,-0.906 -0.9,-1.956 -1.625,-2.647c-2.003,-1.91 -2.682,-4.466 -3.797,-6.842c-1.316,-2.805 -2.926,-5.477 -4.477,-8.168c-1.33,-2.309 -2.715,-4.59 -4.149,-6.837c-2.63,-4.122 -5.214,-8.28 -8.003,-12.294c-3.091,-4.447 -6.549,-8.642 -9.556,-13.142c-3.197,-4.783 -6.898,-9.09 -10.962,-13.126c-0.574,-0.571 -0.975,-1.312 -1.512,-1.927c-1.166,-1.336 -2.225,-2.822 -3.595,-3.912c-1.486,-1.182 -2.658,-2.502 -3.692,-4.086c-0.956,-1.463 -2.28,-2.692 -3.478,-3.991c-1.761,-1.908 -3.504,-3.836 -5.349,-5.661c-1.366,-1.352 -2.95,-2.484 -4.313,-3.838c-1.984,-1.973 -3.824,-4.089 -5.786,-6.084c-1.92,-1.951 -3.881,-3.864 -5.889,-5.722c-1.678,-1.552 -3.533,-2.917 -5.166,-4.512c-4.558,-4.452 -8.953,-9.079 -14.227,-12.731c-3.234,-2.238 -6.359,-4.565 -9.135,-7.424c-1.873,-1.93 -4.421,-3.198 -6.629,-4.814c-0.946,-0.692 -1.741,-1.592 -2.697,-2.268c-2.002,-1.416 -4.048,-2.771 -6.106,-4.105c-2.104,-1.364 -4.101,-3.054 -6.403,-3.907c-2.825,-1.047 -4.956,-2.796 -7.139,-4.712c-1.531,-1.342 -3.382,-2.368 -5.204,-3.318c-3.477,-1.814 -7.072,-3.402 -10.549,-5.217c-3.083,-1.609 -6.024,-3.487 -9.113,-5.082c-3.556,-1.835 -7.181,-3.544 -10.824,-5.203c-2.425,-1.104 -4.93,-2.032 -7.405,-3.024c-4.035,-1.617 -8.034,-3.336 -12.122,-4.804c-5.637,-2.022 -11.363,-3.794 -17.01,-5.788c-2.417,-0.854 -4.81,-1.732 -7.142,-2.922c-2.255,-1.151 -4.659,-2.437 -7.479,-2.521c-2.42,-0.072 -4.886,-0.645 -7.208,-1.383c-2.23,-0.708 -4.274,-1.982 -6.452,-2.879c-2.312,-0.953 -4.603,-1.782 -7.245,-1.82c-2.318,-0.032 -4.616,-1.004 -6.938,-1.493c-1.155,-0.243 -2.364,-0.244 -3.51,-0.518c-1.576,-0.375 -3.183,-0.752 -4.652,-1.408c-1.865,-0.832 -3.696,-1.305 -5.777,-1.339c-1.971,-0.032 -3.94,-0.65 -5.898,-1.066c-3.186,-0.676 -6.371,-1.367 -9.543,-2.109c-2.737,-0.641 -5.427,-1.537 -8.191,-1.993c-2.176,-0.359 -4.436,-0.199 -6.656,-0.309c-2.124,-0.105 -4.183,0.117 -6.298,0.445c-1.781,0.276 -3.955,-0.173 -5.57,-1.028c-3.197,-1.693 -6.607,-2.079 -10.044,-2.432c-3.851,-0.394 -8.623,-4.773 -7.559,-9.525c0.216,-0.966 0.091,-2.085 -0.156,-3.062c-0.704,-2.786 0.674,-5.261 1.01,-7.886c0.037,-0.29 0.227,-0.559 0.268,-0.849c0.805,-5.732 1.573,-11.468 2.409,-17.195c0.289,-1.983 0.706,-3.951 1.128,-5.912c1.172,-5.441 2.386,-10.873 3.567,-16.312c0.827,-3.807 2.549,-5.9 7.053,-5.162c1.668,0.273 3.408,0.06 5.104,0.202c3.478,0.29 6.949,0.662 10.42,1.023c0.66,0.069 1.317,0.213 1.963,0.373c3.403,0.842 6.843,1.053 10.346,0.927c1.357,-0.048 2.827,0.317 4.089,0.86c3.342,1.436 6.625,1.273 9.981,0.168c0.522,-0.172 1.165,-0.158 1.713,-0.041c1.52,0.323 3.107,0.547 4.509,1.169c2.996,1.329 6.184,0.394 9.223,1.04c2.602,0.554 5.216,1.107 7.852,1.432c2.34,0.289 4.787,-0.049 7.065,0.448c4.026,0.88 8.048,1.31 12.155,1.273c1.096,-0.01 2.189,0.43 3.295,0.555c3.676,0.414 7.357,0.795 11.039,1.148c0.659,0.064 1.416,0.115 1.992,-0.137c2.007,-0.879 3.692,0.006 5.526,0.636c4.516,1.551 9.101,2.05 13.672,0.107c1.465,-0.622 2.562,-0.343 4.061,0.503c2.187,1.234 4.844,1.668 7.332,2.321c2.063,0.54 4.156,1.03 6.266,1.317c3.231,0.44 6.485,0.885 9.736,0.934c1.617,0.024 3.126,0.059 4.496,0.87c3.617,2.142 7.617,3.252 11.619,4.312c1.483,0.392 3.091,0.311 4.641,0.446c0.588,0.051 1.216,-0.013 1.758,0.174c3.792,1.308 7.557,2.695 11.351,3.995c1.033,0.353 2.146,0.469 3.209,0.743c0.918,0.236 1.894,0.4 2.714,0.84c3,1.61 5.933,3.344 8.914,4.991c3.622,2.001 7.251,3.99 10.909,5.923c1.177,0.622 2.415,1.197 3.694,1.542c4.479,1.207 8.365,3.573 12.219,6.024c0.249,0.159 0.514,0.321 0.794,0.397c4.69,1.278 8.435,4.111 12.284,6.946c2.38,1.753 5.402,2.804 8.287,3.652c2.588,0.76 4.667,2.134 6.738,3.694c0.933,0.704 1.99,1.241 2.961,1.898c0.729,0.493 1.502,0.97 2.098,1.604c1.956,2.076 4.069,3.783 6.883,4.695c1.147,0.371 1.927,1.785 2.959,2.621c2.877,2.329 5.807,4.591 8.693,6.908c0.626,0.503 1.16,1.121 1.726,1.696c1.236,1.257 2.294,2.776 3.728,3.733c4.536,3.027 8.783,6.409 13.059,9.778c3.359,2.646 7.056,4.861 10.562,7.326c0.835,0.587 1.789,1.272 2.207,2.143c1.59,3.309 4.729,5.256 6.871,8.086c1.543,2.039 3.739,3.578 5.596,5.39c1.166,1.137 2.217,2.393 3.368,3.548c1.82,1.826 3.835,3.484 5.489,5.447c2.371,2.814 5.507,4.955 7.256,8.324c0.39,0.752 1.121,1.338 1.735,1.961c1.495,1.517 3.084,2.949 4.507,4.529c2.432,2.699 4.775,5.478 7.14,8.237c2.254,2.629 4.78,4.97 6.44,8.164c1.236,2.376 3.448,4.242 5.213,6.345c2.515,2.997 4.956,6.059 7.549,8.987c1.949,2.2 2.903,4.931 4.351,7.395c0.901,1.532 2.04,2.922 3.039,4.397c0.998,1.475 2.188,2.876 2.884,4.487c1.518,3.511 4.147,6.276 6.019,9.507c1.769,3.053 4.573,5.422 5.542,9.042c0.473,1.771 2.039,3.223 2.912,4.921c1.109,2.157 2.011,4.421 3.012,6.635c1.587,3.51 3.103,7.055 4.792,10.515c2.895,5.932 5.885,11.819 8.871,17.706c0.836,1.648 2.024,3.147 2.668,4.858c2.93,7.783 6.811,15.133 10.154,22.725c3.17,7.2 6.118,14.498 9.15,21.759c1.489,3.566 2.987,7.129 4.41,10.721c1.471,3.713 2.895,7.446 4.26,11.199c0.752,2.07 1.381,4.188 1.989,6.306c0.491,1.709 1.212,3.449 1.218,5.177c0.012,2.995 1.045,5.712 1.924,8.423c1.721,5.305 3.721,10.572 4.363,16.1c0.743,6.391 3.159,12.384 3.894,18.739c0.273,2.356 0.283,4.742 0.511,7.105c0.271,2.797 0.663,5.581 0.975,8.373c0.164,1.466 0.237,2.942 0.408,4.407c0.264,2.26 0.633,4.51 0.841,6.775c0.08,0.867 -0.175,1.762 -0.254,2.647c-0.066,0.735 -0.378,1.606 -0.1,2.188c1.492,3.12 0.86,6.436 1.029,9.665c0.138,2.652 -0.176,5.334 0.04,7.976c0.18,2.199 0.605,4.441 1.337,6.518c1.433,4.066 1.802,8.096 0.589,12.254c-0.655,2.244 -0.642,4.495 -0.451,6.841c0.282,3.453 0.065,6.945 0.11,10.419c0.02,1.553 0.192,3.104 0.244,4.657c0.115,3.433 -0.435,6.777 -1.004,10.166c-0.682,4.06 -0.663,8.238 -0.928,12.366c-0.053,0.817 -0.04,1.64 -0.017,2.458c0.067,2.446 0.232,4.891 0.212,7.335c-0.024,2.878 -0.209,5.755 -0.308,8.632c-0.033,0.962 0.01,1.926 -0.031,2.886c-0.038,0.886 0.129,1.918 -0.262,2.627c-1.684,3.057 -0.56,6.237 -0.643,9.36c-0.037,1.395 -0.138,2.79 -0.154,4.185c-0.022,1.924 0.043,3.849 0.007,5.773c-0.038,2.053 0.002,4.126 -0.264,6.154c-0.579,4.408 -1.288,8.8 -2.026,13.184c-0.698,4.149 -0.376,8.361 -1.418,12.535c-1.595,6.391 -2.41,12.972 -3.732,19.437c-0.515,2.521 -1.603,4.919 -2.25,7.419c-0.463,1.79 -0.753,3.648 -0.896,5.493c-0.225,2.897 -0.398,5.738 -1.576,8.501c-0.803,1.882 -0.96,4.035 -1.45,6.056c-0.752,3.099 -1.451,6.215 -2.348,9.272c-0.64,2.185 -1.94,3.997 -3.927,5.242c-1.194,0.748 -2.363,1.534 -3.543,2.303c-0.088,-0.203 -0.176,-0.406 -0.264,-0.61l-0,0Z" style="fill:#ff5757;fill-rule:nonzero;"/><path d="M1336.57,384.024c0.002,0.867 -0.019,1.612 0.013,2.354c0.035,0.813 -0.055,1.687 0.212,2.425c1.259,3.47 2.617,6.905 3.955,10.346c0.188,0.484 0.606,0.914 0.674,1.403c0.678,4.83 3.894,8.711 5.078,13.277c1.61,6.21 5.155,11.725 6.157,18.121c0.121,0.77 0.736,1.452 1.026,2.211c0.395,1.03 0.886,2.074 1.007,3.15c0.508,4.481 1,8.962 2.377,13.279c0.647,2.032 1.458,4.012 2.174,6.023c0.122,0.343 0.272,0.761 0.182,1.082c-1.336,4.809 0.854,9.212 1.581,13.776c0.327,2.049 0.903,4.061 1.403,6.081c0.354,1.429 0.585,2.929 1.199,4.244c1.052,2.251 2.019,4.446 1.714,7.029c-0.071,0.601 0.319,1.267 0.538,1.888c0.148,0.418 0.517,0.804 0.536,1.215c0.123,2.78 1.192,5.47 0.514,8.348c-0.327,1.389 -0.151,2.943 0.034,4.392c0.258,2.03 0.883,4.018 1.071,6.049c0.126,1.369 -0.301,2.779 -0.362,4.176c-0.185,4.284 -0.241,8.546 0.543,12.814c0.56,3.05 0.66,6.183 0.96,9.28c0.05,0.514 0.089,1.03 0.101,1.546c0.04,1.693 0.34,3.437 0.041,5.07c-0.713,3.892 0.147,7.631 0.475,11.455c0.318,3.703 1.308,7.498 -0.141,11.25c-0.353,0.912 -0.37,2.11 -0.123,3.068c0.618,2.395 0.339,4.72 -0.099,7.07c-0.605,3.255 -1.615,6.438 -0.24,9.829c0.442,1.09 -0.005,2.672 -0.369,3.935c-1.649,5.723 -1.786,11.583 -1.845,17.465c-0.014,1.329 -0.276,2.657 -0.447,3.983c-0.2,1.546 -0.404,3.092 -0.646,4.632c-0.139,0.88 -0.14,1.88 -0.579,2.595c-1.366,2.226 -1.327,4.875 -2.298,7.16c-1.699,3.998 -3.029,8.272 -6.528,11.246c-0.506,0.431 -1.08,0.788 -1.552,1.251c-0.554,0.542 -1.207,1.086 -1.507,1.765c-0.683,1.551 -1.734,2.41 -3.437,2.282c-1.85,-0.139 -3.692,-0.37 -5.538,-0.551c-0.733,-0.072 -1.474,-0.082 -2.203,-0.182c-1.085,-0.149 -2.159,-0.375 -3.243,-0.529c-1.676,-0.238 -3.351,-0.522 -5.036,-0.646c-4.071,-0.299 -8.149,-0.496 -12.221,-0.772c-4.584,-0.311 -9.165,-0.678 -13.75,-0.982c-0.88,-0.059 -1.777,0.014 -2.657,0.11c-3.355,0.366 -6.396,-1.175 -9.627,-1.551c-0.143,-0.016 -0.308,-0.066 -0.413,-0.158c-3.94,-3.465 -9.388,-3.019 -13.784,-5.313c-2.017,-1.052 -3.795,-2.292 -4.777,-4.449c-0.332,-0.731 -0.747,-1.452 -1.255,-2.071c-1.249,-1.521 -1.467,-3.187 -0.972,-5.032c0.904,-3.369 1.785,-6.744 2.665,-10.12c0.113,-0.43 0.249,-0.882 0.226,-1.317c-0.253,-4.765 1.377,-9.217 2.231,-13.8c0.229,-1.232 0.456,-2.562 0.233,-3.763c-0.635,-3.434 0.731,-6.623 0.967,-9.944c0.316,-4.436 0.906,-8.852 1.31,-13.283c0.093,-1.02 0.021,-2.087 -0.168,-3.096c-0.922,-4.919 0.523,-9.947 -0.773,-14.868c-0.323,-1.224 0.099,-2.643 0.169,-3.973c0.039,-0.741 0.236,-1.53 0.057,-2.218c-1.08,-4.169 -0.734,-8.337 -0.424,-12.565c0.199,-2.702 -0.432,-5.457 -0.591,-8.194c-0.15,-2.593 -0.168,-5.193 -0.247,-7.791c-0.059,-1.928 -0.168,-3.857 -0.17,-5.785c-0.001,-2.587 0.279,-5.19 0.079,-7.758c-0.31,-3.972 -1.012,-7.913 -1.375,-11.883c-0.19,-2.075 -0.685,-3.995 -1.383,-5.954c-0.439,-1.233 -0.045,-2.756 -0.063,-4.148c-0.011,-0.95 0.215,-2.06 -0.189,-2.822c-1.634,-3.087 -1.226,-6.535 -1.985,-9.763c-0.422,-1.793 -0.967,-3.558 -1.441,-5.34c-0.949,-3.569 -1.89,-7.14 -2.825,-10.712c-0.093,-0.354 -0.042,-0.764 -0.195,-1.082c-2.083,-4.329 -2.657,-9.092 -3.98,-13.639c-0.409,-1.405 -1.071,-2.771 -1.818,-4.037c-1.286,-2.181 -2.375,-4.372 -2.969,-6.89c-0.43,-1.828 -1.654,-3.462 -2.466,-5.21c-0.649,-1.398 -1.436,-2.787 -1.759,-4.269c-0.533,-2.444 -1.465,-4.646 -2.767,-6.768c-0.757,-1.234 -1.159,-2.685 -1.738,-4.031c-0.382,-0.887 -0.774,-1.77 -1.199,-2.636c-0.648,-1.321 -1.323,-2.63 -1.998,-3.937c-1.999,-3.874 -4.074,-7.71 -5.972,-11.632c-0.799,-1.65 -1.204,-3.488 -1.834,-5.223c-0.348,-0.958 -0.651,-1.977 -1.216,-2.804c-2.461,-3.604 -4.988,-7.164 -7.545,-10.701c-0.68,-0.942 -1.449,-1.873 -2.352,-2.591c-3.452,-2.745 -5.145,-6.841 -7.911,-10.109c-2.625,-3.102 -5.196,-6.252 -7.728,-9.431c-0.585,-0.734 -0.76,-1.818 -1.393,-2.485c-1.463,-1.541 -3.105,-2.911 -4.645,-4.381c-0.626,-0.599 -1.151,-1.304 -1.765,-1.918c-1.246,-1.247 -2.565,-2.425 -3.774,-3.707c-1.364,-1.445 -2.851,-2.841 -3.892,-4.503c-0.964,-1.539 -1.856,-2.963 -3.459,-3.949c-1.12,-0.688 -2.163,-1.62 -2.986,-2.647c-1.938,-2.419 -4.426,-4.326 -5.939,-7.185c-0.931,-1.761 -2.638,-3.287 -4.325,-4.437c-3.714,-2.53 -6.731,-5.786 -10.001,-8.789c-1.904,-1.748 -4.103,-3.171 -6.104,-4.82c-0.772,-0.637 -1.486,-1.419 -2.006,-2.269c-1.005,-1.643 -2.296,-2.887 -4.034,-3.723c-1.709,-0.822 -3.087,-1.98 -3.921,-3.785c-0.352,-0.761 -1.115,-1.348 -1.739,-1.966c-1.559,-1.542 -3.1,-3.108 -4.738,-4.564c-0.972,-0.863 -2.085,-1.58 -3.187,-2.281c-2.062,-1.314 -4.155,-2.581 -6.249,-3.846c-3.741,-2.259 -7.527,-4.446 -11.225,-6.773c-2.31,-1.453 -4.483,-3.123 -6.741,-4.661c-0.729,-0.495 -1.5,-0.959 -2.31,-1.297c-4.478,-1.868 -8.413,-4.676 -12.56,-7.125c-3.428,-2.024 -6.906,-3.934 -11.057,-4.352c-1.386,-0.14 -2.819,-1.283 -3.929,-2.298c-1.263,-1.155 -2.557,-1.982 -4.237,-2.283c-0.715,-0.129 -1.39,-0.481 -2.085,-0.727c-3.078,-1.091 -6.159,-2.175 -9.235,-3.272c-0.694,-0.248 -1.387,-0.507 -2.058,-0.811c-1.886,-0.855 -3.705,-1.898 -5.651,-2.574c-3.899,-1.354 -7.848,-2.572 -11.813,-3.717c-1.246,-0.36 -2.629,-0.214 -3.918,-0.461c-5.541,-1.064 -11.086,-2.117 -16.598,-3.32c-3.004,-0.656 -5.323,-2.609 -7.306,-4.836c-1.608,-1.808 -0.986,-4.264 -1.333,-6.435c-0.173,-1.088 -0.344,-2.197 -0.322,-3.292c0.035,-1.691 0.025,-3.428 0.408,-5.058c1.083,-4.613 2.342,-9.186 3.56,-13.768c1.048,-3.946 2.063,-7.904 3.223,-11.817c1.437,-4.844 3.102,-9.62 4.493,-14.475c1.175,-4.103 3.911,-5.133 7.898,-4.674c5.157,0.593 10.326,1.076 15.477,1.707c3.319,0.407 6.608,1.044 9.922,1.495c7.579,1.031 15.181,1.911 22.743,3.05c4.385,0.66 8.716,1.685 13.064,2.585c1.817,0.376 3.621,0.823 5.418,1.288c2.874,0.744 5.746,1.498 8.602,2.309c1.907,0.542 3.838,1.06 5.653,1.836c1.12,0.479 2.043,1.42 3.05,2.159c0.354,0.259 0.658,0.632 1.05,0.787c3.583,1.417 7.214,2.721 10.767,4.207c4.863,2.035 9.671,4.203 14.503,6.31c3.404,1.485 6.812,2.958 10.213,4.449c1.085,0.476 2.144,1.014 3.233,1.481c0.53,0.227 1.106,0.344 1.654,0.532c0.602,0.206 1.281,0.317 1.777,0.675c1.918,1.386 3.702,2.815 6.176,3.372c1.877,0.423 3.581,1.699 5.302,2.699c1.585,0.921 3.089,1.981 4.631,2.975c0.375,0.242 0.743,0.506 1.144,0.697c3.34,1.596 6.915,2.84 9.953,4.882c1.987,1.336 4.515,1.456 6.195,3.471c1.499,1.795 3.565,3.122 5.402,4.63c2.346,1.927 4.552,4.095 7.124,5.654c2.005,1.214 3.257,2.957 4.791,4.542c2.258,2.333 4.633,4.558 7.041,6.739c1.524,1.381 3.224,2.567 4.792,3.903c0.554,0.472 1.193,1.063 1.374,1.716c0.549,1.983 2.013,3.099 3.61,4.023c2.934,1.697 5.017,4.22 6.726,7.002c1.703,2.775 3.728,5.077 6.496,6.827c1.288,0.814 2.285,2.097 3.388,3.194c2.464,2.451 4.94,4.891 7.351,7.394c0.921,0.956 1.653,2.091 2.513,3.11c1.047,1.239 2.124,2.454 3.213,3.657c1.837,2.028 3.701,4.031 5.541,6.057c3.842,4.231 7.698,8.45 11.504,12.713c2.116,2.371 4.373,4.667 6.132,7.288c1.207,1.799 2.401,3.484 3.998,4.962c0.997,0.922 1.626,2.248 2.396,3.408c1.599,2.41 3.181,4.832 4.772,7.248c2.938,4.461 6.071,8.795 8.122,13.796c0.483,1.179 1.742,2.017 2.484,3.119c0.812,1.206 1.513,2.502 2.131,3.82c1.097,2.341 2.098,4.728 3.134,7.098c0.706,1.616 1.41,3.233 2.099,4.856c0.085,0.199 0.023,0.461 0.115,0.653c1.632,3.405 3.33,6.78 4.902,10.212c1.013,2.21 1.832,4.509 2.765,6.757c0.931,2.245 1.922,4.466 2.831,6.72c0.386,0.957 0.629,1.972 0.907,2.865l0,-0Z" style="fill:#ff5757;fill-rule:nonzero;"/><path d="M1221.67,486.793c0.582,3.644 0.595,7.508 1.9,10.871c1.406,3.622 2.066,7.155 2.198,10.967c0.141,4.069 0.69,8.123 1.035,12.185c0.177,2.075 0.469,4.159 0.406,6.23c-0.149,4.869 0.14,9.874 -0.925,14.557c-0.936,4.114 -0.604,8.206 -1.261,12.26c-0.319,1.97 -0.507,3.963 -0.685,5.952c-0.259,2.884 -0.402,5.778 -0.707,8.656c-0.099,0.936 -0.628,1.819 -0.824,2.755c-0.424,2.029 -0.876,4.064 -1.105,6.12c-0.346,3.113 -0.784,6.151 -1.999,9.103c-0.68,1.651 -0.536,3.623 -0.969,5.4c-0.4,1.645 -1.049,3.233 -1.635,4.829c-0.534,1.456 -1.058,2.923 -1.716,4.324c-1.162,2.476 -2.1,5.151 -3.726,7.292c-1.949,2.567 -4.338,4.898 -6.893,6.866c-1.427,1.1 -3.596,1.79 -5.403,1.737c-5.119,-0.151 -10.222,-0.795 -15.334,-1.21c-1.245,-0.101 -2.504,-0.017 -3.749,-0.115c-1.62,-0.127 -3.256,-0.232 -4.842,-0.556c-4.876,-0.995 -9.783,-1.343 -14.754,-1.163c-1.066,0.039 -2.267,-0.287 -3.204,-0.808c-1.357,-0.755 -2.67,-0.64 -4.096,-0.548c-1.161,0.076 -2.441,0.058 -3.5,-0.352c-3.974,-1.54 -8.137,-2.067 -12.307,-2.622c-2.317,-0.309 -3.895,-1.648 -5.002,-3.661c-0.492,-0.894 -1.063,-1.762 -1.71,-2.55c-1.133,-1.379 -1.424,-2.837 -0.915,-4.558c0.503,-1.7 0.845,-3.447 1.253,-5.174c0.103,-0.434 0.081,-0.934 0.295,-1.299c2.433,-4.135 3.591,-8.782 5.299,-13.203c2.12,-5.484 3.738,-11.1 4.258,-17.017c0.224,-2.559 1.21,-5.046 1.491,-7.604c0.337,-3.071 0.283,-6.184 0.419,-9.278c0.026,-0.591 0.102,-1.188 0.235,-1.764c0.669,-2.879 1.421,-5.66 0.917,-8.759c-0.64,-3.932 -0.701,-7.963 -0.935,-11.955c-0.103,-1.753 0.064,-3.523 -0.044,-5.276c-0.095,-1.547 -0.285,-3.109 -0.641,-4.614c-0.563,-2.379 -1.43,-4.689 -1.93,-7.078c-0.53,-2.532 -1.096,-5.125 -1.068,-7.686c0.029,-2.591 -0.409,-4.98 -1.133,-7.427c-1.221,-4.131 -2.151,-8.347 -3.367,-12.48c-0.662,-2.252 -1.667,-4.402 -2.499,-6.605c-0.364,-0.965 -0.684,-1.947 -1.019,-2.923c-0.455,-1.323 -0.883,-2.655 -1.364,-3.969c-0.655,-1.791 -1.228,-3.626 -2.055,-5.338c-1.256,-2.603 -2.709,-5.111 -4.059,-7.669c-0.483,-0.914 -1.017,-1.822 -1.343,-2.795c-0.66,-1.974 -1.832,-3.442 -3.463,-4.768c-1.582,-1.285 -2.825,-2.997 -4.157,-4.573c-1.763,-2.088 -3.425,-4.262 -5.214,-6.327c-0.92,-1.062 -2.025,-1.962 -3.036,-2.946c-0.743,-0.722 -1.628,-1.359 -2.174,-2.211c-2.002,-3.122 -5.173,-5.075 -7.582,-7.782c-1.953,-2.196 -3.893,-4.407 -5.936,-6.518c-1.29,-1.332 -2.796,-2.451 -4.137,-3.736c-2.669,-2.557 -5.245,-5.212 -7.951,-7.729c-1.243,-1.157 -2.766,-2.01 -4.041,-3.137c-0.92,-0.813 -1.558,-1.941 -2.467,-2.768c-1.864,-1.695 -3.788,-3.328 -5.755,-4.902c-3.297,-2.639 -6.632,-5.23 -9.983,-7.8c-0.932,-0.714 -1.947,-1.334 -2.973,-1.911c-4.453,-2.503 -9.576,-3.602 -13.768,-6.719c-1.305,-0.97 -3.105,-1.367 -4.741,-1.775c-1.774,-0.443 -3.483,-0.899 -4.647,-2.414c-1.479,-1.924 -3.908,-1.654 -5.824,-2.574c-1.796,-0.862 -3.725,-1.444 -5.578,-2.193c-2.86,-1.155 -5.435,-2.947 -8.664,-3.294c-1.384,-0.149 -2.631,-1.319 -4.008,-1.851c-1.651,-0.637 -3.369,-1.105 -5.066,-1.616c-3.567,-1.073 -5.839,-3.319 -6.509,-7.061c-0.091,-0.506 -0.139,-1.104 -0.436,-1.475c-2.389,-2.98 -1.598,-6.148 -0.671,-9.351c0.492,-1.7 0.908,-3.422 1.399,-5.123c0.183,-0.635 0.494,-1.232 0.73,-1.852c0.316,-0.831 0.782,-1.647 0.894,-2.507c0.586,-4.518 2.135,-8.76 3.542,-13.051c1.525,-4.65 2.904,-9.349 4.461,-13.987c0.992,-2.953 2.215,-5.826 3.291,-8.751c0.64,-1.741 1.139,-3.534 1.801,-5.266c0.846,-2.211 1.348,-2.613 3.634,-2.481c2.204,0.128 4.447,0.3 6.581,0.826c4.889,1.205 9.699,2.618 14.305,4.793c4.604,2.175 9.398,3.98 14.2,5.691c5.229,1.864 10.589,3.353 15.841,5.154c4.821,1.653 9.572,3.511 14.359,5.264c2.71,0.993 5.474,1.852 8.136,2.956c3.423,1.42 6.826,2.912 10.136,4.576c5.881,2.957 11.273,6.78 17.441,9.29c5.062,2.059 9.807,4.914 14.636,7.52c1.149,0.62 2.021,1.73 3.114,2.48c1.325,0.91 2.748,1.679 4.132,2.505c0.51,0.304 1.092,0.524 1.531,0.907c2.239,1.953 4.425,3.966 6.664,5.918c0.891,0.776 1.915,1.4 2.8,2.183c1.433,1.266 2.815,2.591 4.192,3.917c2.221,2.14 4.426,4.296 6.627,6.456c1.364,1.34 2.698,2.71 4.068,4.044c0.37,0.36 0.779,0.742 1.244,0.932c1.99,0.812 3.023,2.47 4.185,4.155c1.505,2.181 3.388,4.099 5.088,6.148c2.47,2.975 5.02,5.892 7.34,8.981c1.187,1.579 1.949,3.478 2.903,5.232c0.706,1.298 1.221,2.757 2.151,3.867c5.062,6.043 8.657,12.906 11.944,20.023c1.748,3.784 3.038,7.659 4.177,11.626c0.161,0.563 0.286,1.23 0.664,1.623c1.874,1.954 2.292,4.441 2.772,6.937c0.237,1.233 0.458,2.519 0.987,3.638c1.578,3.34 1.519,7.289 3.894,10.328c0.256,0.328 0.282,0.839 0.409,1.266c1.594,5.342 3.185,10.685 4.783,16.026c0.17,0.569 0.245,1.237 0.597,1.671c2.634,3.245 2.581,7.346 3.632,11.094c0.642,2.292 1.359,4.562 2.02,6.848c0.33,1.142 0.611,2.297 0.914,3.446l-0.426,0.08l-0,0Z" style="fill:#ff5757;fill-rule:nonzero;"/><path d="M1027.66,553.145c-3.342,0.656 -6.298,1.429 -9.302,1.776c-3.598,0.416 -7.253,0.785 -10.854,0.599c-4.363,-0.225 -8.715,-0.931 -13.035,-1.651c-4.528,-0.756 -8.575,-2.893 -12.472,-5.183c-5.065,-2.976 -9.705,-6.576 -14.112,-10.467c-0.223,-0.197 -0.507,-0.366 -0.644,-0.613c-1.993,-3.599 -5.348,-5.937 -8.184,-8.738c-1.904,-1.88 -2.155,-4.361 -2.972,-6.624c-1.181,-3.27 -2.149,-6.62 -3.104,-9.965c-0.295,-1.035 -0.337,-2.165 -0.349,-3.253c-0.034,-3.052 0.017,-6.104 0.018,-9.157c0,-2.08 -0.061,-4.162 -0.022,-6.241c0.011,-0.565 0.244,-1.14 0.445,-1.684c0.92,-2.497 1.979,-4.949 2.767,-7.486c0.701,-2.257 1.1,-4.607 1.659,-6.909c0.175,-0.721 0.31,-1.499 0.684,-2.116c1.608,-2.646 3.303,-5.24 4.956,-7.86c0.395,-0.628 0.696,-1.321 1.133,-1.916c0.9,-1.222 1.762,-2.496 2.819,-3.573c2.132,-2.171 4.453,-4.156 6.569,-6.342c3.728,-3.85 8.106,-6.715 12.921,-8.992c2.748,-1.3 5.343,-3.009 8.196,-3.973c2.105,-0.711 4.516,-0.522 6.792,-0.715c0.21,-0.018 0.437,0.168 0.647,0.152c3.975,-0.309 7.956,-0.556 11.918,-0.986c2.371,-0.257 4.657,-0.55 7.03,0.211c1.439,0.461 3.076,0.26 4.59,0.539c1.519,0.281 3.036,0.683 4.486,1.216c4.235,1.557 8.486,3.083 12.095,5.952c0.789,0.627 1.819,1.065 2.808,1.308c3.23,0.795 5.818,2.574 8.072,4.929c1.995,2.083 4.153,4.041 5.92,6.303c1.341,1.717 2.198,3.815 3.236,5.762c0.415,0.777 0.754,1.595 1.1,2.406c0.638,1.5 1.315,2.986 1.867,4.517c0.777,2.16 1.282,4.431 2.21,6.518c1.903,4.281 2.282,8.755 1.907,13.305c-0.322,3.907 -0.595,7.876 -1.527,11.66c-1.338,5.437 -2.163,11.089 -5.335,15.957c-0.83,1.273 -1.152,2.866 -1.825,4.256c-0.603,1.248 -1.218,2.54 -2.087,3.601c-3.004,3.664 -6.066,7.284 -9.22,10.819c-1.429,1.602 -3.127,2.965 -4.703,4.437c-1.141,1.065 -2.263,2.152 -3.429,3.189c-0.604,0.537 -1.219,1.157 -1.946,1.445c-3.922,1.558 -7.779,3.371 -11.723,3.587l0,-0Z" style="fill:#ff5757;fill-rule:nonzero;"/></g></g></g></g></svg>