<?xml version="1.0" encoding="UTF-8" standalone="no"?><!DOCTYPE svg PUBLIC "-//W3C//DTD SVG 1.1//EN" "http://www.w3.org/Graphics/SVG/1.1/DTD/svg11.dtd"><svg width="100%" height="100%" viewBox="0 0 1563 1563" version="1.1" xmlns="http://www.w3.org/2000/svg" xmlns:xlink="http://www.w3.org/1999/xlink" xml:space="preserve" xmlns:serif="http://www.serif.com/" style="fill-rule:evenodd;clip-rule:evenodd;stroke-linejoin:round;stroke-miterlimit:2;"><g><clipPath id="_clip1"><path d="M-995.832,1350.76l1801.89,-997.614l324.293,585.739l-1801.89,997.615l-324.293,-585.74Z" clip-rule="nonzero"/></clipPath><g clip-path="url(#_clip1)"><clipPath id="_clip2"><path d="M-995.832,1350.76l1801.89,-997.614l324.293,585.739l-1801.89,997.615l-324.293,-585.74Z" clip-rule="nonzero"/></clipPath><g clip-path="url(#_clip2)"><path d="M887.832,512.387c-22.832,-38.023 -46.76,-75.522 -74.184,-110.435c-7.671,-9.373 -15.07,-19.094 -24.108,-27.226c-2.492,-2.242 -6.273,-4.563 -9.608,-5.219c-1.603,-0.315 -3.429,0.006 -4.521,1.22c-1.598,1.775 -1.047,4.536 -0.401,6.835c2.064,7.345 4.14,14.705 6.893,21.828c1.396,3.612 2.962,7.162 4.784,10.581c1.612,3.025 3.972,5.787 5.237,8.958c2.184,5.483 0.442,11.681 -0.56,17.224c-1.193,6.598 -2.145,13.221 -3.55,19.783c-3.013,14.082 -7.165,27.934 -12.661,41.251c-0.88,2.133 -1.794,4.252 -2.744,6.355c-9.617,21.678 -22.775,41.675 -38.102,59.74c-29.507,34.566 -65.793,62.493 -102.683,88.698c-158.726,114.05 -326.323,214.943 -494.289,314.607c-1.39,1.076 -3.04,-0.393 -4.477,-0.525c-20.629,10.263 -40.761,21.551 -61.208,32.172c-14.236,9.685 -36.476,2.943 -42.982,-12.994c-3.219,-7.532 -1.75,-16.466 2.74,-23.164c6.047,-9.294 15.936,-15.224 25.887,-19.587c-1.253,-5.407 -2.505,-10.815 -4.008,-16.136c-8.386,5.522 -16.988,10.999 -23.767,18.529c-6.847,8.021 -14.379,16.885 -14.503,28.033c-1.699,21.745 16.814,42.139 38.413,43.48c-22.033,12.739 -43.859,25.835 -65.709,38.895c-0.258,-0.775 -0.773,-2.314 -1.03,-3.077c2.274,-1.191 4.537,-2.417 6.799,-3.644c-3.057,-3.742 -7.686,-6.813 -12.722,-5.397c-4.997,1.703 -9.3,4.944 -14.09,7.124c-1.64,-3.132 -3.352,-6.227 -5.052,-9.311c-2.762,1.566 -5.535,3.095 -8.31,4.625c-8.439,-15.574 -17.165,-30.99 -25.57,-46.576c5.188,-3.26 11.391,-5.212 15.756,-9.613c2.12,-5.424 -3.635,-14.394 -9.862,-11.042c-15.216,8.306 -30.371,16.754 -45.563,25.108c-7.495,3.398 -0.804,17.192 6.5,13.808c4.681,-2.299 9.094,-5.122 13.751,-7.481c8.559,15.49 17.011,31.028 25.665,46.468c-2.798,1.494 -5.572,3.048 -8.371,4.542c1.784,3.131 3.437,6.334 5.043,9.574c-6.714,3.847 -16.427,6.558 -17.009,15.784c0.506,1.837 1.023,3.722 1.529,5.596c2.345,-1.335 4.715,-2.622 7.096,-3.885c0.706,1.441 1.471,2.87 2.117,4.383c-4.793,3.233 -9.998,5.847 -14.9,8.901c-0.827,-1.703 -1.666,-3.383 -2.457,-5.063c2.346,-1.203 4.656,-2.466 6.941,-3.764c-2.95,-3.827 -7.613,-6.683 -12.59,-5.41c-4.998,1.667 -9.35,4.789 -13.933,7.302c-1.759,-2.987 -3.398,-6.024 -4.978,-9.084c-2.943,1.316 -5.935,2.524 -8.744,4.102c-8.297,-15.587 -17.129,-30.883 -25.414,-46.47c4.572,-2.501 9.265,-4.8 13.68,-7.575c1.714,-0.983 2.175,-3.056 3.095,-4.654c-1.486,-3.253 -2.619,-7.226 -6.101,-8.908c-1.75,-0.464 -3.638,-0.221 -5.161,0.712c-14.989,8.256 -29.979,16.512 -44.944,24.792c-7.879,3.198 -1.245,17.303 6.179,13.942c4.717,-2.299 9.167,-5.099 13.847,-7.469c8.392,15.478 17.105,30.799 25.413,46.313c-2.448,1.982 -5.404,3.166 -8.142,4.672c1.759,3.119 3.4,6.311 5.089,9.49c-4.405,2.547 -9.209,4.5 -13.213,7.667c-3.907,3.344 -4.147,9.027 -2.531,13.607c2.527,-1.038 4.92,-2.361 7.228,-3.827c1.119,2.287 2.321,4.549 3.512,6.824c-5.237,3.069 -10.547,6.019 -15.675,9.278c-1.201,-2.25 -2.402,-4.488 -3.556,-6.727l-0.261,-0.472c2.286,-1.239 4.57,-2.48 6.861,-3.709c-2.625,-3.602 -6.727,-6.511 -11.409,-5.779c-5.54,1.206 -9.945,5.081 -15.081,7.288c-1.938,-2.926 -3.518,-6.071 -5.123,-9.167c-2.822,1.495 -5.62,3.012 -8.405,4.578c-8.405,-15.586 -17.214,-30.953 -25.535,-46.588c4.927,-3.007 10.495,-5.074 14.985,-8.734c3.988,-5.259 -3.084,-15.869 -9.52,-11.714c-14.966,8.244 -29.955,16.487 -44.908,24.755c-2.883,1.363 -5.006,5.004 -3.139,8.014c1.235,3.315 4.044,7.49 8.137,6.391c5.28,-2.136 9.977,-5.487 15.136,-7.886c8.285,15.623 17.07,30.967 25.474,46.541c-2.739,1.422 -5.442,2.903 -8.169,4.337c1.57,3.216 3.21,6.408 5.006,9.527c-4.487,2.608 -9.386,4.61 -13.462,7.884c-3.799,3.404 -3.932,8.99 -2.269,13.51c2.322,-1.25 4.638,-2.51 6.954,-3.769l0.352,0.635c2.17,3.582 4.09,7.309 6.023,11.037c-41.444,22.825 -82.635,46.127 -123.954,69.188c-87.575,49.003 -175.158,97.991 -262.693,147.051c-4.901,3.209 -10.824,4.191 -15.688,7.508c-5.117,3.163 -10.842,5.1 -16.226,7.728c-0.946,-1.547 -1.796,-3.119 -2.658,-4.679c-1.676,-0.213 -3.475,-0.832 -4.997,0.269c-4.155,2.222 -8.48,4.243 -12.272,7.073c-2.681,2.581 0.6,6.07 1.543,8.742c-3.176,2.059 -6.643,3.666 -9.674,5.964c0.209,0.668 0.638,2.004 0.847,2.672c-25.11,13.696 -50.123,27.608 -75.22,41.34c-0.552,-0.259 -1.656,-0.752 -2.209,-1.01c-2.726,1.469 -5.441,2.974 -8.179,4.456c0.005,0.598 0.003,1.782 -0.004,2.368c-3.002,1.472 -5.797,3.36 -8.884,4.665c-3.056,-0.68 -6.369,-2.243 -9.38,-0.473c-3.672,1.502 -5.542,5.356 -5.906,9.126c-5.276,2.603 -10.224,5.897 -15.61,8.285c-5.941,-2.558 -12.751,-4.571 -19.006,-1.733c-7.324,3.756 -14.43,7.952 -21.669,11.886c-7.998,-1.046 -15.996,-2.117 -23.936,-3.486c-6.907,3.584 -13.717,7.348 -20.466,11.219c-0.495,2.36 -1.373,4.747 -0.91,7.231c1.318,11.937 6.635,22.956 12.235,33.434c6.164,10.796 12.852,21.314 20.313,31.263c4.049,5.193 8.16,10.612 13.81,14.154c3.125,1.864 6.154,-0.624 8.845,-2.046c4.582,-2.764 9.491,-4.969 13.915,-7.971c1.942,-6.798 4.17,-13.573 7.024,-20.043c7.98,-5.424 17.062,-9.218 25.175,-14.499c6.523,-5.172 6.196,-14.426 5.56,-21.907c5.193,-2.602 10.119,-5.728 15.361,-8.223c3.41,0.175 7.331,1.494 10.363,-0.719c2.75,-1.577 3.669,-4.742 4.614,-7.525c3.54,-1.488 7.317,-6.135 11.233,-4.111c2.62,-1.373 5.203,-2.805 7.811,-4.19c0.233,-0.743 0.699,-2.23 0.92,-2.973c25.076,-13.542 50.006,-27.345 74.901,-41.22c1.019,1.69 2.073,3.391 3.128,5.093c2.715,-1.47 5.429,-2.927 8.12,-4.408c-1.043,5.594 -2.636,11.132 -2.768,16.862c3.915,0.601 7.809,1.371 11.747,1.805c0.341,-2.108 0.635,-4.215 0.905,-6.298c3.943,-0.439 8.451,-0.488 11.416,-3.562c3.965,-3.561 4.87,-9.883 2.356,-14.503c-1.916,-3.19 -5.585,-4.427 -8.271,-6.749c2.524,0.135 4.721,2.568 7.282,1.351c2.049,-1.021 3.916,-2.352 5.879,-3.505c-0.366,-0.882 -1.086,-2.634 -1.452,-3.516c5.911,-2.596 11.016,-7.098 17.416,-8.431c6.585,-3.474 13.024,-7.223 19.537,-10.828c-5.799,17.675 -8.205,36.425 -7.597,54.993c0.917,11.139 2.289,22.286 5.45,33.047c10.85,39.616 38.477,73.163 72.508,95.453c20.791,13.715 44.307,24.429 69.391,26.435c26.26,2.487 52.285,-4.759 76.41,-14.525c28.845,-11.862 56.241,-26.87 84.099,-40.816c7.172,-3.359 13.965,-7.709 21.747,-9.555c11.145,-3.117 19.375,-11.628 29.377,-16.949c52.354,-31.25 104.72,-62.465 157.048,-93.762c13.839,24.881 27.439,49.909 41.205,74.836c-0.444,2.731 0.682,5.879 3.371,7.053c-0.055,2.117 0.644,4.168 2.709,5.144c0.265,4.542 4.858,7.542 8.944,8.454c4.313,0.969 8.533,-0.692 12.139,-2.923c13.691,-7.611 27.418,-15.127 41.109,-22.714c4.943,-2.48 7.85,-8.257 7.088,-13.692c-0.284,-2.486 -1.111,-5.612 -4.336,-5.155l1.99,-0.914c-1.054,-1.617 -1.587,-3.861 -3.649,-4.419c0.115,-2.093 -0.761,-3.892 -1.827,-5.558c-1.963,-0.211 -2.66,-2.011 -3.711,-3.282c4.869,-2.767 9.798,-5.439 14.716,-8.11c0.757,3.294 0.908,7.108 3.642,9.501c0.746,2.051 1.424,4.438 3.739,5.256c-0.83,2.327 1.146,4.129 2.759,5.443c4.107,3.518 10.45,4.016 15.116,1.322c14.764,-8.014 29.419,-16.219 44.134,-24.317c6.347,-3.365 8.492,-11.563 5.713,-17.975c-0.527,-0.104 -1.605,-0.31 -2.132,-0.413c0.375,-2.312 -0.162,-5.165 -2.798,-5.718c0.043,-0.574 0.129,-1.735 0.172,-2.309c-0.642,-0.988 -1.271,-1.951 -1.889,-2.891c-1.705,-0.823 -3.138,-1.948 -3.536,-3.846c4.968,-2.349 9.511,-5.484 14.54,-7.714c0.887,3.162 0.425,8.129 4.44,9.172c-0.209,0.767 -0.393,1.57 -0.578,2.385c1.074,1.187 2.243,2.302 3.591,3.236c-0.976,2.089 1.048,3.818 2.409,5.11c4.252,3.625 10.751,4.242 15.595,1.391c14.644,-8.026 29.253,-16.123 43.872,-24.208c4.763,-2.563 7.683,-8.208 6.826,-13.547c-0.305,-2.21 -0.805,-4.765 -3.427,-5.126c0.211,-0.54 0.621,-1.596 0.832,-2.124c-1.134,-1.187 -2.149,-2.446 -3.199,-3.645c0.142,-4.534 -4.605,-5.823 -6.154,-9.481c-12.657,-23.72 -26.326,-46.941 -38.71,-70.795c63.379,-35.731 126.747,-71.485 190.238,-107.014c1.02,1.917 2.148,3.798 3.098,5.799c-2.654,4.555 -4.834,10.002 -2.794,15.247c2.328,8.209 12.567,12.741 20.226,8.971c5.935,-2.501 9.111,-8.901 9.133,-15.12c8.298,-4.469 16.379,-9.356 24.679,-13.801c2.19,-1.262 4.36,0.885 6.564,1.261c9.474,3.116 19.685,-5.89 18.864,-15.607c21.284,-12.075 42.459,-24.328 63.926,-36.033c1.445,2.655 2.712,5.443 4.503,7.928c3.174,-0.827 5.836,-2.882 8.694,-4.413c-0.598,-1.514 -1.256,-2.932 -1.77,-4.422c6.346,-3.365 12.402,-7.23 18.834,-10.441c0.608,1.287 1.253,2.573 1.921,3.871c3.026,-1.46 6.015,-3.003 8.859,-4.797c-1.411,-2.918 -2.906,-5.788 -4.543,-8.549c6.964,-3.992 14.012,-7.829 20.951,-11.881c-1.57,-3.264 -3.247,-6.467 -5.161,-9.525c-7.133,3.742 -14.024,7.937 -21.108,11.775c-1.47,-2.799 -3.011,-5.537 -4.541,-8.275c-2.715,1.385 -5.479,2.664 -7.989,4.395c-0.8,1.549 0.744,3.115 0.972,4.668c-6.299,3.388 -12.391,7.158 -18.775,10.404c-0.597,-1.299 -1.181,-2.598 -1.742,-3.873c-3.194,1.366 -6.266,3.006 -9.12,4.991c1.494,2.81 3.072,5.607 4.518,8.466c-21.047,11.833 -42.058,23.75 -63.069,35.667c-3.674,-3.187 -8.479,-4.355 -13.261,-4.184c-0.692,-1.274 -1.372,-2.524 -2.028,-3.762c41.156,-21.471 82.325,-42.907 123.49,-64.341c-0.819,-2.122 -1.78,-4.171 -2.718,-6.196c13.366,-7.956 28.823,-14.541 37.044,-28.566c-0.626,2.469 -1.503,4.904 -1.853,7.442c1.503,2.332 2.348,4.837 1.498,7.642c3.731,1.345 7.521,2.617 11.495,3.099c0.453,-1.594 0.907,-3.2 1.432,-4.759c3.382,1.18 6.823,2.168 10.322,3.012c-0.722,0.879 -1.409,1.77 -2.083,2.684c2.55,1.761 5.009,4.037 8.171,4.621c4.593,0.034 7.306,-4.461 9.828,-7.663c4.519,-7.416 9.188,-15.551 8.863,-24.518c0.396,-10.014 -4.486,-19.087 -6.061,-28.773c7.893,-4.358 15.702,-8.883 23.583,-13.29c-0.137,-0.656 -0.423,-1.994 -0.56,-2.662c19.559,-12.407 36.236,-29.312 48.32,-49.085c0.771,0.711 1.637,1.374 2.386,2.217c-1.589,3.17 -3.718,6.01 -5.607,9.004c3.108,2.653 6.617,4.801 10.327,6.564c2.496,-3.357 4.052,-7.591 7.488,-10.119c-1.834,3.83 -4.582,7.129 -7.102,10.535c1.674,2.749 3.077,6.206 6.305,7.483c4.817,1.096 10.045,-1.566 12.715,-5.582c6.165,-12.465 14.238,-24.025 18.541,-37.359c3.934,-10.294 5.064,-21.294 6.661,-32.095c-0.078,-3.659 -0.825,-7.264 -1.011,-10.899c-0.708,-16.355 -4.547,-32.337 -7.036,-48.462c-2.093,-11.656 -3.457,-23.437 -4.523,-35.22c-0.287,-5.81 -0.275,-11.682 -2.139,-17.252c-1.83,-0.044 -3.648,-0.089 -5.43,-0.123c-0.857,7.817 -1.821,15.635 -2.402,23.473c-0.16,25.655 6.433,50.704 7.994,76.225c-2.479,1.109 -4.751,2.598 -6.745,4.397c-3.055,-0.633 -6.086,-1.23 -9.082,-2.018c2.262,-15.757 2.069,-31.913 -0.631,-47.607c-7.209,-43.307 -33.999,-82.789 -71.525,-105.566c18.344,-8.893 36.031,-19.228 55.057,-26.656c24.28,-10.078 48.522,-20.228 72.789,-30.342c13.335,-5.755 27.615,-8.671 41.527,-12.648c37.404,-10.892 77.153,-14.436 115.769,-8.834c13.604,2.05 27.031,5.265 40.093,9.587c6.532,2.162 13.251,4.405 19.466,7.381c2.362,1.131 4.852,1.413 7.258,2.475c2.87,1.266 5.398,3.273 7.512,5.572c3.513,3.82 6.028,8.426 8.827,12.796c2.489,3.887 5.158,7.665 8.09,11.231c2.396,2.913 5.246,6.915 8.379,9.027c1.86,1.254 4.387,1.775 6.363,0.712c1.717,-0.924 2.681,-2.827 3.177,-4.712c1.339,-5.086 -0.032,-10.261 -1.493,-15.152c-1.693,-5.671 -3.549,-11.27 -5.532,-16.853c-0.18,-0.509 -0.361,-1.018 -0.541,-1.527c-37.024,-78.068 -76.989,-154.783 -120.99,-229.145l-0.005,0.007Zm-985.412,916.717c-55.579,33.046 -111.036,66.319 -166.631,99.356c-3.819,-0.411 -6.908,2.066 -10.051,3.814c-1.49,0.634 -2.111,2.146 -2.805,3.515c-3.711,2.506 -9.538,2.135 -11.858,-2.067c-3.015,-4.58 -0.019,-11.075 5.295,-12.039c0.39,0.881 1.158,2.633 1.536,3.503c4.145,-2.091 9.349,-3.342 11.597,-7.809c1.683,-1.832 4.055,-2.749 6.114,-4.057c53.568,-31.894 107.026,-63.967 160.634,-95.803c2.041,3.87 4.225,7.655 6.171,11.585l-0.002,0.002Zm114.863,20.534c-4.836,2.432 -9.562,5.09 -14.276,7.748c-3.014,-5.788 -6.599,-11.284 -9.219,-17.254c4.557,-2.835 9.308,-5.362 14.035,-7.9c3.121,5.81 6.505,11.487 9.46,17.407l-0,-0.001Zm-32.573,-58.932c-4.495,3.027 -9.391,5.423 -14.069,8.141c-2.419,-4.705 -5.135,-9.239 -7.494,-13.956c4.726,-2.682 9.452,-5.4 14.202,-8.058c2.382,4.657 5.229,9.082 7.361,13.873l0,-0Zm-30.339,-55.052c-4.811,2.503 -9.441,5.304 -14.167,7.962c-3.888,-7.419 -8.038,-14.692 -12.081,-22.026c4.823,-2.527 9.621,-5.114 14.287,-7.951c4.031,7.31 8.216,14.547 11.961,22.015l-0,0Zm142.408,69.956c-4.75,2.73 -9.584,5.317 -14.358,8.011c-3.205,-5.882 -6.506,-11.703 -9.676,-17.584c4.846,-2.6 9.559,-5.437 14.418,-8.025c3.05,5.943 6.363,11.753 9.616,17.598l-0,-0Zm-39.249,-70.827c-4.92,2.348 -9.706,4.923 -14.53,7.451c-11.67,-21.539 -23.709,-42.884 -35.379,-64.423c4.81,-2.611 9.584,-5.27 14.382,-7.904c11.671,21.718 23.95,43.109 35.527,64.876l-0,-0Zm-75.716,-128.12c1.353,2.991 2.884,5.932 4.641,8.728c1.564,-0.264 4.029,-2.999 5.114,-0.604c5.72,10.633 11.726,21.12 17.399,31.777c-4.859,2.552 -9.608,5.27 -14.467,7.809c-5.856,-11.181 -12.213,-22.096 -18.117,-33.254c1.357,-0.788 2.714,-1.577 4.071,-2.354c-1.816,-2.628 -2.529,-6.497 -5.294,-8.22c-22.005,11.782 -43.73,24.099 -65.662,36.012c-2.249,1.346 -4.86,2.276 -6.747,4.122c0.552,3.081 2.845,5.645 4.196,8.469c1.501,-0.635 3.04,-1.209 4.578,-1.772c5.95,10.965 11.829,21.98 18.113,32.752c-4.786,2.73 -9.534,5.508 -14.502,7.905c-5.963,-11.049 -12.164,-21.978 -18.151,-33.015c1.405,-0.729 2.701,-1.613 3.889,-2.651c-1.328,-2.895 -2.953,-5.621 -4.506,-8.37c-24.589,13.094 -48.753,26.987 -73.315,40.14c1.174,3.219 2.921,6.183 4.917,8.989c1.298,-0.764 2.619,-1.516 3.953,-2.233c13.112,23.871 26.261,47.73 39.457,71.565c-12.057,7.143 -24.125,14.275 -36.085,21.573c0.412,-2.324 0.8,-4.623 1.307,-6.9c0.691,-14.859 -5.629,-28.728 -11.396,-42.051c-3.612,-8.701 -7.691,-17.578 -7.878,-27.168c-0.083,-4.34 -1.338,-8.516 -2.902,-12.51c-2.938,1.914 -7.998,3.247 -7.172,7.737c0.212,8.311 -0.744,17.085 2.752,24.89c4.316,11.457 10.219,22.519 12.042,34.751c1.212,7.716 -0.923,15.807 -5.763,21.945c-6.874,9.134 -17.32,15.678 -28.656,17.47c-7.441,1.161 -15.103,-1.239 -20.871,-5.987c-12.426,-10.171 -19.331,-25.28 -30.974,-36.187c-2.771,-2.536 -5.569,-5.371 -9.343,-6.237c-3.791,-1.332 -7.774,-0.02 -11.4,1.194c-0.258,0.648 -0.761,1.943 -1.019,2.603c8.2,3.904 13.644,11.382 19.261,18.212c7.673,9.492 14.549,19.685 23.22,28.321c6.451,6.453 14.602,11.636 23.808,12.757c-20.353,11.875 -40.476,24.144 -60.756,36.139c-6.666,3.822 -12.992,8.323 -20.168,11.18c-11.36,6.05 -21.862,14.556 -28.011,26.076c-11.379,19.719 -9.443,45.763 4.174,63.913c-1.81,-0.475 -3.608,-0.963 -5.382,-1.45c-21.732,11.504 -41.76,26.594 -65.304,34.37c-24.177,7.949 -51.11,5.037 -73.958,-5.718c-37.288,-17.262 -65.915,-54.449 -68.922,-95.934c-2,-25.158 5.743,-50.684 20.189,-71.194c35.44,-30.131 75.689,-53.9 116.074,-76.708c64.93,-36.15 132.096,-68.252 195.693,-106.772c-1.672,-2.713 -3.324,-5.713 -1.508,-8.862l-3.101,0.947c0.994,-1.288 2.858,-1.399 3.72,-2.805c8.212,15.504 16.889,30.764 25.244,46.196c1.449,3.145 4.478,5.058 7.798,5.808c-2.322,1.239 -4.705,2.407 -6.893,3.896c-0.661,2.517 1.868,4.625 2.807,6.853c24.431,-13.368 48.753,-26.963 73.208,-40.283c-0.964,-2.348 -2.07,-4.588 -3.368,-6.73c-2.714,1.493 -5.429,2.999 -8.058,4.659c1.278,-3.084 1.775,-6.652 -0.15,-9.578c-6.91,-12.777 -14.046,-25.419 -20.944,-38.183c4.811,-2.503 9.573,-5.113 14.263,-7.843c7.269,12.821 14.121,25.896 21.427,38.705c1.387,2.895 4.493,3.922 7.393,4.664c-2.74,1.338 -5.406,2.843 -7.988,4.466c1.141,2.048 2.27,4.12 3.412,6.203c24.661,-13.047 49.006,-26.726 73.362,-40.32c-0.748,-2.326 -2.105,-4.384 -3.294,-6.467c-2.715,1.422 -5.418,2.891 -8.012,4.527c0.699,-2.326 1.145,-4.722 1.161,-7.138c-7.429,-13.429 -14.907,-26.834 -22.122,-40.373c4.871,-2.432 9.585,-5.162 14.469,-7.582c6.884,12.609 13.769,25.218 20.761,37.753c1.449,3.134 4.784,4.422 7.959,5.102c-2.835,1.327 -5.562,2.856 -8.227,4.481c1.153,2.107 2.343,4.238 3.52,6.369c24.502,-13.536 49.149,-26.823 73.48,-40.656c-1.177,-2.084 -2.307,-4.155 -3.448,-6.227c-2.776,1.267 -5.443,2.76 -7.989,4.431c0.657,-3.043 1.466,-6.458 -0.256,-9.314c-6.824,-12.537 -13.767,-25.013 -20.604,-37.539c114.899,-62.226 229.723,-124.605 345.21,-185.75c1.919,3.524 3.564,7.242 5.983,10.475c0.766,0.149 2.3,0.435 3.078,0.584c20.087,35.75 39.473,71.914 59.619,107.626c-65.027,37.562 -130.178,74.899 -195.226,112.388c-0.577,-0.318 -1.718,-0.943 -2.295,-1.261c-3.56,1.931 -7.132,3.849 -10.595,5.947c-0.875,-1.595 -1.737,-3.167 -2.622,-4.714c6.724,-8.379 10.691,-19.032 10.47,-29.806c-0.049,-13.227 -6.243,-26.26 -16.419,-34.703c-13.008,-11.219 -32.549,-13.976 -48.158,-6.828c-14.932,6.426 -25.443,21.246 -27.272,37.311c-1.179,13.632 3.673,27.788 13.547,37.358c9.841,10.013 24.387,14.618 38.247,13.092c0.802,1.536 1.592,3.061 2.454,4.62l-12.163,6.583l0.077,3.905l0.23,-0.132l0,-0c-30.864,17.736 -61.733,35.468 -92.564,53.265c-12.59,-22.907 -25.336,-45.728 -37.795,-68.708c1.239,-0.561 2.49,-1.121 3.741,-1.67c-0.911,-3.197 -2.171,-6.596 -4.677,-8.835c-24.506,12.986 -48.587,26.806 -73.007,39.983l-0.012,-0Zm232.478,-50.457c-11.228,11.933 -31.245,13.724 -44.479,4.109c-12.736,-8.53 -18.118,-26.006 -12.734,-40.318c3.45,-9.513 11.22,-17.267 20.76,-20.67c9.457,-3.295 20.465,-2.56 29.131,2.607c7.306,4.174 12.949,11.148 15.55,19.151c4.164,12.009 0.8,26.185 -8.227,35.122l-0.001,-0.001Zm9.058,15.019c-0.102,0.059 -0.204,0.117 -0.305,0.175l-0.007,-0.011c0.105,-0.054 0.208,-0.11 0.312,-0.164l-0,0Zm172.374,50.934c-2.922,3.803 -4.223,8.55 -3.657,13.329c-8.25,4.684 -16.608,9.178 -24.725,14.077c-3.756,-2.995 -8.42,-4.452 -13.2,-3.935c-1.092,-1.904 -2.196,-3.797 -3.276,-5.665c14.159,-7.508 28.426,-14.813 42.633,-22.237c0.706,1.453 1.472,2.942 2.225,4.431l0,-0Zm124.956,-88.524c-0.595,0.328 -1.786,0.96 -2.381,1.287c-1.435,-2.846 -2.917,-5.644 -4.363,-8.455c0.608,-0.209 1.849,-0.614 2.469,-0.822c1.444,2.643 2.925,5.274 4.275,7.99l0,0Zm-386.753,149.709c-5.406,2.843 -10.423,6.509 -16.194,8.601c5.775,-4.64 12.687,-7.567 18.946,-11.47c106.011,-61.077 212.072,-122.047 318.082,-183.111c7.734,-3.364 37.999,-21.947 41.057,-23.766c1.088,-5.834 8.957,-6.831 13.613,-3.508c-125.114,71.185 -250.34,142.151 -375.5,213.253l-0.004,0.001Zm432.831,-179.005c-0.194,-3.3 -2.088,-8.175 2.581,-9.003c-0.704,3.031 -1.54,6.052 -2.581,9.003Zm27.11,6.905c-1.526,-0.789 -3.075,-1.482 -4.634,-2.091c-0.331,-0.93 -0.637,-1.86 -0.92,-2.779c-3.031,-0.573 -6.433,-2.769 -9.198,-0.127c0.753,-2.925 1.771,-5.732 2.308,-8.702c-2.709,-0.779 -5.407,-1.618 -8.103,-2.313c2.56,-1.289 5.144,-2.745 6.329,-5.53c2.982,-2.392 6.58,-4.013 10.047,-5.632c4.922,8.104 5.446,17.99 4.17,27.174l0.001,0Zm-45.634,-96.835c4.734,8.524 9.206,17.218 14.345,25.523c-4.14,2.617 -8.486,4.925 -13.114,6.542c-12.006,-17.35 -33.782,-27.241 -54.727,-24.725c-7.624,0.768 -14.958,3.292 -21.734,6.816c-4.831,-1.336 -8.921,2.944 -12.234,5.877c-4.127,2.773 -8.643,4.915 -12.818,7.604c-20.005,-35.906 -39.663,-71.992 -59.623,-107.927c1.094,-0.834 2.211,-1.656 3.353,-2.467c-1.743,-3.885 -3.806,-7.611 -5.989,-11.241c28.47,-15.267 57.22,-29.998 85.729,-45.195c1.661,2.808 3.037,5.823 4.937,8.51c1.317,0.216 2.669,0.277 4.056,0.182c22.633,41.374 45.563,82.589 68.233,123.941c1.812,2.221 -2.573,4.255 -0.413,6.557l-0.001,0.003Zm52.87,3.978c-0.506,-0.498 -1.519,-1.482 -2.025,-1.98c-2.827,2.355 -9.342,2.779 -8.298,7.555c-3.441,1.942 -6.893,3.848 -10.225,5.944c-4.706,-9.421 -9.84,-18.66 -15.178,-27.73c-0.931,0.116 -2.783,0.334 -3.703,0.45c-22.949,-41.993 -46.209,-83.819 -69.24,-125.76c0.783,-0.796 1.602,-1.568 2.421,-2.328c-1.472,-3.086 -2.921,-6.184 -4.572,-9.172c24.583,-12.281 48.729,-25.516 73.421,-37.546c19.947,4.189 38.652,14.332 52.932,28.902c20.981,20.925 32.472,51.112 30.417,80.69c-1.72,32.185 -19.203,62.993 -45.953,80.973l0.003,0.002Zm99.638,-55.056c1.366,4.785 4.544,8.682 9.177,10.653c-1.414,11.409 -4.909,22.704 -11.42,32.265c-1.704,2.095 -2.905,5.944 -6.288,4.644c2.359,-3.918 4.924,-7.706 7.403,-11.542c-3.226,-2.521 -6.7,-4.681 -10.244,-6.649c-2.66,3.825 -5.115,7.78 -7.702,11.641c-0.842,-0.508 -2.525,-1.534 -3.366,-2.054c6.664,-12.768 11.599,-26.478 14.377,-40.613c2.683,0.492 5.401,0.9 8.062,1.656l0.001,-0.001Z" style="fill:#ff5757;fill-rule:nonzero;"/></g></g></g><g><clipPath id="_clip3"><path d="M1472.03,-42.493l90.471,806.307l-710.453,79.716l-90.471,-806.308l710.453,-79.715Z" clip-rule="nonzero"/></clipPath><g clip-path="url(#_clip3)"><g><clipPath id="_clip4"><path d="M1472.03,-42.493l90.471,806.307l-710.453,79.716l-90.471,-806.308l710.453,-79.715Z" clip-rule="nonzero"/></clipPath><g clip-path="url(#_clip4)"><path d="M1502.91,769.726c-4.098,0.327 -8.265,0.304 -12.269,1.1c-2.833,0.562 -5.585,1.254 -8.488,1.107c-0.629,-0.032 -1.304,0.114 -1.883,-0.064c-5.325,-1.635 -10.634,-3.14 -15.486,-6.174c-4.062,-2.541 -8.548,-4.451 -13.332,-5.588c-4.711,-1.119 -9.311,-2.702 -13.97,-4.046c-1.733,-0.499 -3.517,-0.825 -5.239,-1.353c-3.877,-1.189 -7.979,-2.293 -10.812,-5.237c-3.111,-3.232 -6.372,-6.734 -5.525,-11.951c0.042,-0.262 0.027,-0.545 -0.015,-0.809c-1.832,-11.59 0.239,-22.925 2.218,-34.268c0.743,-4.255 1.389,-8.527 2.169,-12.775c0.256,-1.397 0.793,-2.743 1.206,-4.111c0.182,-0.603 0.471,-1.192 0.55,-1.808c0.931,-7.284 3.124,-14.372 2.569,-21.899c-0.354,-4.795 0.501,-9.667 0.553,-14.508c0.064,-6.015 0.352,-12.027 -0.707,-18.037c-0.823,-4.674 -0.981,-9.462 -1.525,-14.19c-0.813,-7.066 -1.706,-14.123 -2.561,-21.185c-0.075,-0.622 -0.27,-1.279 -0.148,-1.866c0.778,-3.748 -0.185,-7.329 -0.89,-10.951c-0.274,-1.407 -0.327,-2.862 -0.419,-4.299c-0.263,-4.126 -0.729,-8.256 -0.685,-12.38c0.076,-7.229 -1.168,-14.334 -1.607,-21.509c-0.103,-1.681 0.201,-3.399 0.423,-5.086c0.685,-5.211 -1.268,-10.088 -1.861,-15.136c-0.021,-0.179 -0.115,-0.355 -0.107,-0.529c0.212,-4.5 -1.268,-8.778 -1.73,-13.19c-0.15,-1.43 -0.305,-2.872 -0.627,-4.269c-1.135,-4.912 -2.688,-9.756 -3.42,-14.723c-0.638,-4.323 -2.328,-8.25 -3.416,-12.385c-0.863,-3.282 -1,-6.747 -1.731,-10.072c-0.688,-3.136 -1.687,-6.208 -2.627,-9.285c-1.05,-3.435 -2.218,-6.834 -3.278,-10.266c-1.616,-5.234 -3.057,-10.526 -4.816,-15.711c-1.196,-3.524 -5.829,-24.639 -7.707,-28.051c-0.044,-0.079 -0.103,-0.162 -0.11,-0.246c-0.373,-4.291 -2.823,-7.821 -4.344,-11.686c-0.608,-1.547 -1.846,-2.835 -2.593,-4.341c-1.266,-2.551 -2.363,-5.184 -3.547,-7.775c-0.22,-0.482 -0.576,-0.905 -0.766,-1.395c-0.837,-2.157 -1.639,-4.327 -2.446,-6.495c-0.804,-2.158 -1.377,-4.436 -2.445,-6.453c-1.852,-3.497 -4.035,-6.817 -6.032,-10.238c-2.768,-4.742 -5.503,-9.504 -8.231,-14.269c-0.938,-1.639 -1.798,-3.323 -2.723,-4.969c-0.617,-1.098 -1.092,-2.37 -1.97,-3.208c-2.427,-2.315 -3.25,-5.413 -4.601,-8.292c-1.596,-3.401 -3.547,-6.639 -5.426,-9.9c-1.613,-2.799 -3.291,-5.563 -5.029,-8.286c-3.188,-4.996 -6.319,-10.036 -9.7,-14.9c-3.746,-5.39 -7.937,-10.475 -11.581,-15.928c-3.875,-5.797 -8.361,-11.017 -13.285,-15.908c-0.697,-0.692 -1.183,-1.591 -1.833,-2.336c-1.414,-1.619 -2.697,-3.42 -4.357,-4.741c-1.801,-1.432 -3.222,-3.033 -4.475,-4.952c-1.158,-1.774 -2.763,-3.263 -4.216,-4.837c-2.133,-2.312 -4.246,-4.649 -6.482,-6.861c-1.655,-1.638 -3.575,-3.01 -5.227,-4.652c-2.405,-2.39 -4.635,-4.956 -7.013,-7.373c-2.327,-2.364 -4.703,-4.683 -7.137,-6.935c-2.034,-1.881 -4.282,-3.535 -6.261,-5.468c-5.525,-5.396 -10.851,-11.004 -17.243,-15.43c-3.92,-2.713 -7.707,-5.533 -11.071,-8.998c-2.271,-2.339 -5.359,-3.875 -8.035,-5.835c-1.146,-0.839 -2.11,-1.929 -3.268,-2.748c-2.426,-1.716 -4.907,-3.358 -7.401,-4.975c-2.549,-1.653 -4.97,-3.702 -7.76,-4.736c-3.423,-1.269 -6.007,-3.389 -8.653,-5.71c-1.854,-1.627 -4.098,-2.87 -6.306,-4.022c-4.215,-2.198 -8.572,-4.123 -12.786,-6.323c-3.735,-1.949 -7.3,-4.226 -11.044,-6.158c-4.31,-2.225 -8.703,-4.296 -13.118,-6.307c-2.939,-1.338 -5.976,-2.462 -8.976,-3.664c-4.89,-1.96 -9.736,-4.044 -14.691,-5.823c-6.831,-2.451 -13.771,-4.599 -20.615,-7.015c-2.93,-1.035 -5.83,-2.099 -8.657,-3.542c-2.732,-1.395 -5.645,-2.953 -9.064,-3.055c-2.933,-0.087 -5.921,-0.782 -8.736,-1.676c-2.703,-0.858 -5.179,-2.402 -7.819,-3.49c-2.803,-1.154 -5.579,-2.159 -8.781,-2.204c-2.809,-0.04 -5.595,-1.217 -8.408,-1.81c-1.401,-0.295 -2.866,-0.296 -4.255,-0.628c-1.909,-0.455 -3.857,-0.912 -5.637,-1.706c-2.261,-1.01 -4.48,-1.583 -7.002,-1.623c-2.39,-0.039 -4.775,-0.789 -7.148,-1.292c-3.862,-0.82 -7.722,-1.657 -11.566,-2.557c-3.318,-0.776 -6.577,-1.862 -9.928,-2.415c-2.638,-0.435 -5.376,-0.241 -8.067,-0.374c-2.573,-0.128 -5.069,0.142 -7.633,0.539c-2.158,0.334 -4.794,-0.209 -6.751,-1.246c-3.875,-2.052 -8.007,-2.52 -12.172,-2.947c-4.667,-0.479 -10.452,-5.785 -9.162,-11.545c0.262,-1.17 0.11,-2.526 -0.189,-3.711c-0.853,-3.376 0.817,-6.376 1.224,-9.557c0.045,-0.352 0.275,-0.678 0.325,-1.03c0.976,-6.946 1.906,-13.899 2.919,-20.839c0.351,-2.404 0.856,-4.789 1.368,-7.165c1.42,-6.595 2.891,-13.178 4.323,-19.77c1.002,-4.614 3.089,-7.151 8.548,-6.257c2.021,0.331 4.131,0.073 6.186,0.245c4.215,0.352 8.421,0.803 12.628,1.241c0.801,0.083 1.597,0.257 2.38,0.451c4.124,1.021 8.293,1.276 12.539,1.124c1.645,-0.058 3.427,0.384 4.956,1.041c4.05,1.742 8.029,1.544 12.096,0.204c0.633,-0.208 1.413,-0.191 2.076,-0.05c1.843,0.392 3.767,0.664 5.466,1.418c3.631,1.61 7.494,0.477 11.177,1.261c3.154,0.671 6.322,1.341 9.517,1.735c2.836,0.35 5.802,-0.06 8.562,0.543c4.88,1.066 9.755,1.587 14.732,1.543c1.329,-0.012 2.653,0.521 3.994,0.672c4.455,0.502 8.915,0.964 13.378,1.392c0.8,0.077 1.717,0.139 2.415,-0.166c2.432,-1.066 4.474,0.007 6.697,0.77c5.473,1.88 11.03,2.485 16.57,0.131c1.775,-0.755 3.105,-0.417 4.922,0.609c2.65,1.495 5.871,2.021 8.887,2.812c2.5,0.656 5.036,1.248 7.593,1.597c3.916,0.534 7.861,1.072 11.8,1.132c1.96,0.029 3.789,0.072 5.449,1.054c4.384,2.596 9.232,3.941 14.083,5.226c1.796,0.476 3.745,0.377 5.624,0.541c0.713,0.062 1.474,-0.016 2.13,0.211c4.596,1.585 9.159,3.266 13.758,4.841c1.252,0.429 2.6,0.57 3.889,0.901c1.113,0.286 2.296,0.485 3.289,1.018c3.636,1.952 7.191,4.053 10.804,6.049c4.389,2.425 8.788,4.835 13.221,7.179c1.426,0.753 2.928,1.451 4.477,1.868c5.429,1.464 10.138,4.331 14.81,7.302c0.301,0.192 0.622,0.389 0.961,0.481c5.685,1.548 10.224,4.983 14.889,8.418c2.884,2.125 6.546,3.398 10.044,4.426c3.135,0.921 5.655,2.587 8.165,4.478c1.131,0.852 2.412,1.503 3.589,2.299c0.884,0.598 1.821,1.177 2.543,1.944c2.37,2.517 4.932,4.586 8.342,5.691c1.39,0.45 2.336,2.163 3.586,3.176c3.486,2.822 7.038,5.564 10.535,8.373c0.759,0.609 1.407,1.358 2.093,2.055c1.498,1.523 2.78,3.365 4.518,4.525c5.497,3.668 10.645,7.767 15.828,11.85c4.07,3.207 8.551,5.892 12.8,8.879c1.012,0.712 2.168,1.541 2.675,2.597c1.927,4.011 5.732,6.37 8.327,9.8c1.87,2.472 4.532,4.337 6.783,6.532c1.413,1.379 2.686,2.901 4.081,4.3c2.206,2.214 4.648,4.223 6.653,6.603c2.874,3.41 6.674,6.004 8.794,10.088c0.473,0.911 1.359,1.621 2.103,2.377c1.812,1.839 3.737,3.573 5.462,5.489c2.948,3.271 5.787,6.639 8.653,9.983c2.732,3.186 5.793,6.023 7.806,9.894c1.497,2.879 4.178,5.141 6.317,7.69c3.049,3.632 6.008,7.343 9.15,10.892c2.362,2.667 3.518,5.976 5.274,8.963c1.091,1.856 2.471,3.541 3.683,5.329c1.21,1.787 2.651,3.486 3.495,5.438c1.84,4.255 5.025,7.607 7.294,11.522c2.145,3.701 5.543,6.571 6.717,10.959c0.574,2.146 2.472,3.906 3.529,5.964c1.345,2.615 2.438,5.359 3.651,8.042c1.924,4.254 3.761,8.55 5.808,12.744c3.509,7.189 7.132,14.324 10.752,21.458c1.013,1.998 2.452,3.814 3.233,5.888c3.551,9.433 8.254,18.341 12.306,27.542c3.843,8.727 7.415,17.572 11.09,26.372c1.805,4.322 3.621,8.64 5.345,12.994c1.782,4.5 3.509,9.023 5.162,13.572c0.913,2.509 1.675,5.076 2.412,7.643c0.595,2.071 1.468,4.18 1.476,6.275c0.013,3.629 1.266,6.922 2.332,10.208c2.085,6.43 4.509,12.813 5.288,19.512c0.899,7.747 3.828,15.01 4.719,22.711c0.33,2.857 0.342,5.749 0.619,8.613c0.329,3.388 0.804,6.763 1.182,10.147c0.198,1.776 0.286,3.565 0.494,5.341c0.32,2.74 0.768,5.466 1.02,8.211c0.096,1.051 -0.212,2.136 -0.309,3.208c-0.08,0.891 -0.457,1.947 -0.12,2.652c1.807,3.782 1.042,7.801 1.246,11.713c0.168,3.216 -0.213,6.466 0.049,9.668c0.218,2.665 0.733,5.382 1.62,7.899c1.737,4.928 2.184,9.813 0.714,14.852c-0.794,2.719 -0.778,5.448 -0.546,8.291c0.341,4.185 0.078,8.416 0.133,12.627c0.025,1.883 0.232,3.762 0.295,5.645c0.14,4.161 -0.527,8.213 -1.217,12.32c-0.826,4.921 -0.803,9.985 -1.124,14.988c-0.064,0.99 -0.048,1.987 -0.021,2.979c0.081,2.964 0.281,5.928 0.257,8.89c-0.029,3.488 -0.253,6.974 -0.373,10.462c-0.04,1.165 0.012,2.333 -0.038,3.498c-0.045,1.073 0.157,2.323 -0.317,3.183c-2.041,3.705 -0.679,7.56 -0.779,11.344c-0.045,1.691 -0.167,3.381 -0.187,5.072c-0.027,2.332 0.053,4.665 0.009,6.996c-0.047,2.489 0.002,5.001 -0.321,7.46c-0.701,5.341 -1.56,10.665 -2.455,15.978c-0.846,5.028 -0.456,10.133 -1.719,15.192c-1.933,7.746 -2.92,15.722 -4.522,23.557c-0.625,3.055 -1.943,5.962 -2.727,8.992c-0.562,2.17 -0.913,4.422 -1.086,6.658c-0.273,3.51 -0.483,6.953 -1.911,10.302c-0.973,2.282 -1.163,4.891 -1.757,7.34c-0.912,3.756 -1.759,7.532 -2.845,11.238c-0.776,2.647 -2.351,4.844 -4.76,6.353c-1.447,0.906 -2.864,1.859 -4.295,2.791c-0.106,-0.246 -0.213,-0.493 -0.319,-0.739l-0,-0Z" style="fill:#ff5757;fill-rule:nonzero;"/><path d="M1288.68,431.569c0.003,1.051 -0.023,1.953 0.015,2.853c0.043,0.985 -0.066,2.045 0.258,2.939c1.526,4.206 3.171,8.369 4.792,12.539c0.228,0.587 0.735,1.108 0.818,1.7c0.822,5.855 4.719,10.558 6.154,16.091c1.951,7.527 6.249,14.212 7.463,21.963c0.146,0.934 0.891,1.759 1.243,2.679c0.479,1.249 1.073,2.515 1.221,3.818c0.615,5.431 1.212,10.862 2.88,16.094c0.785,2.463 1.767,4.862 2.635,7.299c0.148,0.416 0.329,0.923 0.221,1.312c-1.619,5.828 1.035,11.165 1.916,16.696c0.396,2.484 1.094,4.923 1.7,7.371c0.429,1.732 0.709,3.549 1.454,5.143c1.275,2.728 2.446,5.389 2.077,8.518c-0.086,0.729 0.386,1.537 0.652,2.29c0.18,0.506 0.627,0.973 0.649,1.472c0.149,3.369 1.444,6.63 0.623,10.118c-0.396,1.682 -0.183,3.566 0.041,5.323c0.313,2.46 1.071,4.869 1.298,7.331c0.153,1.659 -0.365,3.368 -0.438,5.061c-0.225,5.192 -0.292,10.358 0.658,15.53c0.679,3.696 0.8,7.494 1.164,11.247c0.06,0.623 0.107,1.249 0.122,1.874c0.048,2.052 0.412,4.166 0.05,6.144c-0.865,4.717 0.178,9.249 0.576,13.884c0.385,4.488 1.585,9.087 -0.172,13.634c-0.427,1.106 -0.448,2.557 -0.148,3.719c0.749,2.903 0.41,5.72 -0.12,8.568c-0.734,3.945 -1.958,7.804 -0.291,11.913c0.535,1.321 -0.007,3.238 -0.448,4.77c-1.998,6.935 -2.165,14.037 -2.236,21.167c-0.017,1.61 -0.335,3.22 -0.542,4.826c-0.242,1.874 -0.49,3.748 -0.783,5.614c-0.168,1.067 -0.169,2.279 -0.701,3.146c-1.656,2.698 -1.609,5.908 -2.786,8.677c-2.059,4.845 -3.67,10.026 -7.911,13.63c-0.614,0.522 -1.309,0.955 -1.882,1.516c-0.671,0.658 -1.462,1.316 -1.825,2.14c-0.828,1.879 -2.102,2.92 -4.167,2.765c-2.241,-0.168 -4.473,-0.449 -6.711,-0.668c-0.889,-0.087 -1.787,-0.099 -2.67,-0.221c-1.315,-0.18 -2.616,-0.454 -3.93,-0.64c-2.032,-0.288 -4.062,-0.633 -6.105,-0.783c-4.933,-0.362 -9.875,-0.602 -14.81,-0.936c-5.557,-0.377 -11.108,-0.822 -16.665,-1.19c-1.066,-0.071 -2.154,0.017 -3.22,0.134c-4.066,0.442 -7.752,-1.425 -11.668,-1.88c-0.173,-0.021 -0.374,-0.081 -0.5,-0.192c-4.776,-4.2 -11.379,-3.659 -16.707,-6.439c-2.444,-1.275 -4.599,-2.778 -5.789,-5.393c-0.403,-0.886 -0.905,-1.76 -1.521,-2.509c-1.514,-1.843 -1.779,-3.862 -1.179,-6.099c1.096,-4.083 2.164,-8.174 3.231,-12.265c0.136,-0.522 0.301,-1.07 0.273,-1.596c-0.306,-5.775 1.67,-11.171 2.704,-16.725c0.278,-1.494 0.553,-3.105 0.283,-4.562c-0.77,-4.161 0.886,-8.027 1.172,-12.051c0.383,-5.376 1.098,-10.729 1.588,-16.099c0.113,-1.236 0.025,-2.529 -0.204,-3.752c-1.117,-5.961 0.633,-12.055 -0.937,-18.02c-0.391,-1.483 0.12,-3.203 0.205,-4.815c0.047,-0.898 0.286,-1.854 0.069,-2.688c-1.309,-5.053 -0.89,-10.105 -0.513,-15.229c0.24,-3.274 -0.524,-6.613 -0.717,-9.93c-0.182,-3.143 -0.204,-6.295 -0.3,-9.443c-0.071,-2.337 -0.203,-4.674 -0.205,-7.012c-0.002,-3.135 0.338,-6.289 0.095,-9.401c-0.376,-4.815 -1.227,-9.591 -1.666,-14.402c-0.23,-2.516 -0.83,-4.843 -1.676,-7.217c-0.532,-1.494 -0.055,-3.34 -0.076,-5.027c-0.015,-1.152 0.26,-2.497 -0.229,-3.42c-1.982,-3.742 -1.487,-7.921 -2.407,-11.832c-0.511,-2.174 -1.172,-4.313 -1.746,-6.472c-1.15,-4.326 -2.291,-8.654 -3.424,-12.983c-0.113,-0.43 -0.051,-0.926 -0.236,-1.311c-2.525,-5.248 -3.221,-11.02 -4.824,-16.53c-0.495,-1.704 -1.298,-3.36 -2.203,-4.894c-1.559,-2.642 -2.879,-5.298 -3.598,-8.35c-0.522,-2.216 -2.006,-4.196 -2.989,-6.314c-0.787,-1.694 -1.74,-3.379 -2.132,-5.174c-0.646,-2.962 -1.776,-5.631 -3.354,-8.203c-0.918,-1.496 -1.404,-3.255 -2.106,-4.886c-0.463,-1.074 -0.938,-2.145 -1.453,-3.194c-0.786,-1.601 -1.604,-3.187 -2.422,-4.772c-2.422,-4.695 -4.937,-9.344 -7.238,-14.098c-0.968,-2 -1.459,-4.226 -2.222,-6.33c-0.422,-1.161 -0.79,-2.396 -1.474,-3.398c-2.983,-4.368 -6.046,-8.683 -9.145,-12.97c-0.824,-1.141 -1.756,-2.27 -2.85,-3.139c-4.184,-3.328 -6.236,-8.292 -9.588,-12.252c-3.182,-3.76 -6.297,-7.578 -9.366,-11.43c-0.709,-0.89 -0.921,-2.204 -1.688,-3.012c-1.773,-1.868 -3.764,-3.528 -5.63,-5.31c-0.759,-0.726 -1.395,-1.58 -2.139,-2.324c-1.511,-1.512 -3.109,-2.94 -4.575,-4.493c-1.652,-1.752 -3.455,-3.443 -4.717,-5.458c-1.168,-1.865 -2.248,-3.591 -4.191,-4.786c-1.357,-0.834 -2.622,-1.964 -3.619,-3.209c-2.35,-2.931 -5.365,-5.242 -7.198,-8.707c-1.129,-2.134 -3.197,-3.984 -5.242,-5.377c-4.501,-3.067 -8.158,-7.013 -12.121,-10.652c-2.307,-2.12 -4.973,-3.844 -7.398,-5.843c-0.935,-0.771 -1.801,-1.719 -2.431,-2.75c-1.219,-1.99 -2.783,-3.498 -4.889,-4.511c-2.071,-0.996 -3.741,-2.4 -4.753,-4.588c-0.426,-0.923 -1.35,-1.634 -2.107,-2.382c-1.889,-1.87 -3.757,-3.768 -5.742,-5.532c-1.178,-1.046 -2.528,-1.914 -3.862,-2.765c-2.5,-1.592 -5.037,-3.128 -7.574,-4.661c-4.534,-2.738 -9.123,-5.389 -13.605,-8.208c-2.8,-1.762 -5.433,-3.786 -8.171,-5.649c-0.882,-0.601 -1.817,-1.163 -2.798,-1.573c-5.428,-2.264 -10.197,-5.667 -15.223,-8.634c-4.155,-2.454 -8.37,-4.768 -13.401,-5.276c-1.679,-0.169 -3.417,-1.555 -4.762,-2.784c-1.53,-1.4 -3.098,-2.402 -5.135,-2.768c-0.867,-0.156 -1.685,-0.583 -2.527,-0.881c-3.731,-1.321 -7.464,-2.636 -11.192,-3.965c-0.842,-0.3 -1.682,-0.614 -2.495,-0.983c-2.286,-1.037 -4.49,-2.301 -6.849,-3.12c-4.725,-1.641 -9.511,-3.116 -14.317,-4.504c-1.51,-0.436 -3.186,-0.259 -4.748,-0.559c-6.716,-1.29 -13.436,-2.566 -20.116,-4.024c-3.641,-0.795 -6.452,-3.162 -8.855,-5.861c-1.949,-2.191 -1.195,-5.168 -1.615,-7.799c-0.211,-1.319 -0.418,-2.663 -0.391,-3.99c0.042,-2.049 0.03,-4.155 0.494,-6.13c1.313,-5.591 2.839,-11.134 4.315,-16.686c1.271,-4.783 2.5,-9.58 3.907,-14.323c1.741,-5.87 3.759,-11.658 5.444,-17.543c1.425,-4.973 4.74,-6.22 9.573,-5.664c6.25,0.718 12.515,1.303 18.758,2.069c4.022,0.493 8.009,1.265 12.025,1.811c9.186,1.25 18.398,2.316 27.564,3.696c5.314,0.801 10.564,2.043 15.833,3.133c2.202,0.456 4.389,0.998 6.567,1.562c3.483,0.901 6.964,1.816 10.425,2.798c2.311,0.657 4.652,1.285 6.851,2.225c1.357,0.581 2.476,1.721 3.697,2.617c0.429,0.314 0.797,0.766 1.272,0.954c4.343,1.718 8.743,3.297 13.05,5.099c5.894,2.466 11.72,5.093 17.577,7.648c4.125,1.799 8.256,3.584 12.378,5.391c1.315,0.577 2.598,1.229 3.918,1.795c0.643,0.275 1.341,0.417 2.005,0.645c0.729,0.249 1.552,0.384 2.154,0.819c2.324,1.678 4.487,3.41 7.485,4.086c2.274,0.512 4.339,2.059 6.425,3.271c1.921,1.116 3.744,2.401 5.613,3.606c0.455,0.293 0.901,0.612 1.386,0.844c4.049,1.934 8.381,3.442 12.064,5.918c2.408,1.619 5.471,1.764 7.508,4.205c1.816,2.177 4.32,3.785 6.546,5.613c2.844,2.335 5.517,4.963 8.635,6.851c2.43,1.472 3.947,3.585 5.806,5.505c2.737,2.828 5.616,5.525 8.534,8.168c1.847,1.674 3.907,3.111 5.807,4.73c0.672,0.573 1.446,1.289 1.665,2.081c0.666,2.402 2.44,3.755 4.376,4.874c3.556,2.058 6.081,5.116 8.151,8.488c2.065,3.362 4.519,6.153 7.874,8.274c1.561,0.987 2.77,2.541 4.106,3.871c2.986,2.97 5.987,5.928 8.909,8.961c1.116,1.159 2.004,2.535 3.046,3.769c1.269,1.502 2.574,2.974 3.894,4.432c2.226,2.458 4.486,4.886 6.715,7.341c4.657,5.128 9.33,10.241 13.943,15.408c2.565,2.873 5.3,5.657 7.432,8.833c1.463,2.18 2.91,4.222 4.846,6.014c1.207,1.118 1.97,2.724 2.903,4.13c1.938,2.921 3.856,5.856 5.784,8.784c3.561,5.407 7.358,10.66 9.843,16.721c0.586,1.429 2.111,2.445 3.011,3.78c0.984,1.462 1.834,3.032 2.583,4.63c1.329,2.838 2.542,5.73 3.798,8.603c0.856,1.958 1.709,3.918 2.545,5.885c0.102,0.24 0.027,0.559 0.139,0.791c1.978,4.127 4.035,8.217 5.941,12.376c1.227,2.68 2.22,5.466 3.35,8.191c1.129,2.721 2.33,5.411 3.432,8.143c0.468,1.16 0.762,2.39 1.099,3.473l0,-0Z" style="fill:#ff5757;fill-rule:nonzero;"/><path d="M1149.42,556.123c0.706,4.415 0.721,9.099 2.303,13.174c1.704,4.391 2.504,8.673 2.664,13.292c0.171,4.932 0.837,9.845 1.255,14.769c0.214,2.514 0.568,5.04 0.492,7.55c-0.181,5.901 0.169,11.968 -1.122,17.643c-1.134,4.986 -0.731,9.946 -1.527,14.858c-0.387,2.388 -0.615,4.804 -0.831,7.214c-0.313,3.495 -0.487,7.003 -0.856,10.491c-0.121,1.135 -0.762,2.205 -0.999,3.339c-0.514,2.459 -1.062,4.925 -1.339,7.417c-0.42,3.773 -0.951,7.455 -2.424,11.033c-0.824,2.001 -0.649,4.39 -1.173,6.544c-0.486,1.994 -1.272,3.919 -1.982,5.854c-0.648,1.764 -1.283,3.541 -2.08,5.24c-1.409,3.001 -2.546,6.243 -4.516,8.838c-2.362,3.11 -5.257,5.935 -8.355,8.321c-1.729,1.333 -4.357,2.17 -6.547,2.105c-6.204,-0.183 -12.389,-0.963 -18.585,-1.467c-1.509,-0.122 -3.035,-0.02 -4.544,-0.138c-1.962,-0.155 -3.945,-0.282 -5.867,-0.674c-5.91,-1.206 -11.858,-1.628 -17.882,-1.41c-1.293,0.047 -2.748,-0.348 -3.884,-0.98c-1.645,-0.914 -3.236,-0.775 -4.964,-0.663c-1.407,0.091 -2.959,0.07 -4.242,-0.427c-4.817,-1.867 -9.861,-2.505 -14.915,-3.178c-2.809,-0.375 -4.721,-1.997 -6.063,-4.437c-0.596,-1.084 -1.288,-2.135 -2.073,-3.09c-1.373,-1.671 -1.725,-3.44 -1.108,-5.525c0.609,-2.06 1.024,-4.177 1.519,-6.271c0.124,-0.526 0.097,-1.132 0.357,-1.574c2.948,-5.011 4.352,-10.643 6.423,-16.001c2.569,-6.647 4.53,-13.454 5.159,-20.625c0.273,-3.101 1.467,-6.115 1.808,-9.216c0.409,-3.722 0.343,-7.495 0.508,-11.244c0.032,-0.716 0.123,-1.44 0.285,-2.138c0.81,-3.49 1.722,-6.86 1.111,-10.616c-0.776,-4.766 -0.849,-9.651 -1.134,-14.489c-0.125,-2.125 0.078,-4.27 -0.053,-6.394c-0.115,-1.875 -0.345,-3.768 -0.777,-5.593c-0.682,-2.883 -1.733,-5.683 -2.339,-8.578c-0.642,-3.069 -1.328,-6.212 -1.294,-9.315c0.035,-3.14 -0.496,-6.036 -1.373,-9.002c-1.481,-5.006 -2.608,-10.116 -4.08,-15.125c-0.803,-2.729 -2.021,-5.335 -3.029,-8.005c-0.442,-1.17 -0.829,-2.36 -1.236,-3.543c-0.551,-1.603 -1.07,-3.218 -1.653,-4.81c-0.794,-2.171 -1.489,-4.395 -2.49,-6.469c-1.523,-3.155 -3.283,-6.194 -4.92,-9.295c-0.586,-1.108 -1.233,-2.209 -1.627,-3.388c-0.8,-2.392 -2.221,-4.171 -4.198,-5.778c-1.916,-1.557 -3.424,-3.633 -5.037,-5.543c-2.137,-2.53 -4.152,-5.165 -6.32,-7.668c-1.114,-1.287 -2.454,-2.378 -3.68,-3.57c-0.9,-0.876 -1.972,-1.648 -2.634,-2.68c-2.427,-3.783 -6.27,-6.15 -9.189,-9.431c-2.368,-2.661 -4.719,-5.342 -7.195,-7.9c-1.563,-1.615 -3.389,-2.97 -5.014,-4.528c-3.234,-3.1 -6.357,-6.317 -9.636,-9.367c-1.507,-1.402 -3.352,-2.437 -4.898,-3.803c-1.115,-0.985 -1.888,-2.352 -2.99,-3.355c-2.259,-2.053 -4.591,-4.033 -6.975,-5.94c-3.996,-3.198 -8.038,-6.339 -12.099,-9.453c-1.129,-0.866 -2.359,-1.618 -3.602,-2.316c-5.398,-3.034 -11.607,-4.366 -16.688,-8.144c-1.581,-1.176 -3.763,-1.656 -5.746,-2.152c-2.15,-0.537 -4.221,-1.089 -5.632,-2.925c-1.792,-2.332 -4.736,-2.005 -7.058,-3.119c-2.177,-1.045 -4.515,-1.751 -6.761,-2.658c-3.466,-1.401 -6.586,-3.573 -10.5,-3.993c-1.677,-0.18 -3.189,-1.599 -4.858,-2.243c-2.001,-0.772 -4.082,-1.34 -6.14,-1.959c-4.322,-1.3 -7.077,-4.022 -7.889,-8.557c-0.11,-0.613 -0.167,-1.338 -0.528,-1.788c-2.895,-3.611 -1.936,-7.451 -0.813,-11.333c0.597,-2.061 1.1,-4.148 1.696,-6.209c0.222,-0.769 0.599,-1.493 0.885,-2.245c0.383,-1.007 0.948,-1.996 1.083,-3.038c0.71,-5.476 2.588,-10.618 4.293,-15.818c1.848,-5.636 3.519,-11.33 5.407,-16.952c1.201,-3.578 2.684,-7.061 3.988,-10.606c0.775,-2.11 1.38,-4.283 2.183,-6.382c1.025,-2.679 1.633,-3.167 4.404,-3.006c2.672,0.154 5.389,0.363 7.976,1.001c5.925,1.46 11.756,3.173 17.338,5.809c5.579,2.635 11.39,4.823 17.21,6.897c6.336,2.258 12.833,4.064 19.198,6.246c5.843,2.004 11.601,4.256 17.403,6.38c3.284,1.203 6.634,2.245 9.861,3.583c4.149,1.721 8.273,3.529 12.284,5.545c7.128,3.584 13.663,8.218 21.139,11.26c6.135,2.496 11.885,5.955 17.738,9.114c1.392,0.751 2.45,2.097 3.773,3.006c1.607,1.103 3.332,2.035 5.009,3.036c0.618,0.369 1.323,0.634 1.856,1.099c2.713,2.367 5.362,4.806 8.076,7.172c1.08,0.941 2.321,1.698 3.394,2.646c1.736,1.534 3.411,3.14 5.08,4.748c2.691,2.593 5.364,5.206 8.032,7.824c1.653,1.624 3.27,3.285 4.93,4.901c0.449,0.436 0.944,0.899 1.508,1.129c2.411,0.984 3.663,2.995 5.072,5.037c1.823,2.643 4.106,4.968 6.167,7.45c2.993,3.607 6.083,7.142 8.896,10.885c1.438,1.915 2.361,4.215 3.518,6.341c0.856,1.574 1.479,3.341 2.607,4.687c6.134,7.324 10.492,15.642 14.476,24.267c2.118,4.587 3.682,9.283 5.061,14.091c0.196,0.683 0.348,1.491 0.805,1.967c2.272,2.368 2.778,5.382 3.36,8.407c0.287,1.495 0.555,3.053 1.196,4.41c1.913,4.048 1.841,8.834 4.719,12.516c0.312,0.398 0.342,1.018 0.497,1.536c1.931,6.474 3.859,12.949 5.796,19.422c0.207,0.69 0.297,1.5 0.724,2.025c3.192,3.933 3.127,8.904 4.401,13.447c0.779,2.777 1.648,5.529 2.449,8.299c0.4,1.383 0.74,2.784 1.108,4.176l-0.517,0.098l0,-0Z" style="fill:#ff5757;fill-rule:nonzero;"/><path d="M914.284,636.539c-4.051,0.795 -7.633,1.732 -11.274,2.153c-4.36,0.504 -8.79,0.951 -13.154,0.725c-5.288,-0.273 -10.563,-1.128 -15.798,-2.001c-5.489,-0.915 -10.393,-3.506 -15.117,-6.281c-6.138,-3.607 -11.762,-7.97 -17.102,-12.685c-0.271,-0.239 -0.615,-0.444 -0.781,-0.744c-2.416,-4.362 -6.481,-7.195 -9.919,-10.589c-2.308,-2.28 -2.612,-5.286 -3.603,-8.029c-1.431,-3.963 -2.604,-8.023 -3.761,-12.078c-0.358,-1.254 -0.409,-2.623 -0.424,-3.942c-0.04,-3.699 0.022,-7.398 0.023,-11.097c0,-2.522 -0.074,-5.045 -0.027,-7.565c0.013,-0.684 0.296,-1.381 0.539,-2.041c1.115,-3.026 2.398,-5.998 3.354,-9.073c0.85,-2.735 1.333,-5.583 2.011,-8.374c0.212,-0.873 0.375,-1.816 0.829,-2.563c1.948,-3.208 4.003,-6.352 6.006,-9.527c0.479,-0.761 0.844,-1.601 1.374,-2.322c1.09,-1.481 2.135,-3.025 3.416,-4.33c2.583,-2.632 5.397,-5.038 7.961,-7.686c4.518,-4.667 9.824,-8.139 15.66,-10.899c3.331,-1.576 6.476,-3.647 9.934,-4.815c2.551,-0.862 5.473,-0.633 8.232,-0.867c0.254,-0.021 0.528,0.204 0.783,0.185c4.817,-0.375 9.643,-0.675 14.445,-1.195c2.873,-0.311 5.644,-0.667 8.52,0.255c1.743,0.559 3.728,0.315 5.563,0.654c1.841,0.34 3.68,0.828 5.437,1.474c5.132,1.887 10.285,3.736 14.658,7.213c0.957,0.76 2.205,1.291 3.403,1.586c3.916,0.963 7.052,3.119 9.784,5.973c2.418,2.525 5.033,4.898 7.175,7.64c1.625,2.08 2.664,4.623 3.922,6.983c0.502,0.941 0.914,1.933 1.333,2.916c0.773,1.817 1.594,3.619 2.262,5.475c0.942,2.616 1.554,5.37 2.679,7.899c2.307,5.188 2.766,10.611 2.311,16.125c-0.39,4.735 -0.721,9.545 -1.85,14.132c-1.622,6.589 -2.622,13.44 -6.466,19.339c-1.006,1.543 -1.397,3.474 -2.212,5.158c-0.731,1.513 -1.477,3.079 -2.53,4.364c-3.64,4.441 -7.351,8.829 -11.173,13.113c-1.733,1.942 -3.791,3.593 -5.701,5.377c-1.383,1.291 -2.742,2.609 -4.156,3.865c-0.732,0.651 -1.477,1.402 -2.358,1.752c-4.754,1.889 -9.428,4.085 -14.208,4.347l0,-0Z" style="fill:#ff5757;fill-rule:nonzero;"/></g></g></g></g></svg>