<?xml version="1.0" encoding="UTF-8" standalone="no"?><!DOCTYPE svg PUBLIC "-//W3C//DTD SVG 1.1//EN" "http://www.w3.org/Graphics/SVG/1.1/DTD/svg11.dtd"><svg width="100%" height="100%" viewBox="0 0 1563 1563" version="1.1" xmlns="http://www.w3.org/2000/svg" xmlns:xlink="http://www.w3.org/1999/xlink" xml:space="preserve" xmlns:serif="http://www.serif.com/" style="fill-rule:evenodd;clip-rule:evenodd;stroke-linejoin:round;stroke-miterlimit:2;"><g><clipPath id="_clip1"><path d="M-45.502,1060.96l1132.55,-627.036l203.83,368.158l-1132.55,627.036l-203.83,-368.158Z" clip-rule="nonzero"/></clipPath><g clip-path="url(#_clip1)"><clipPath id="_clip2"><path d="M-45.502,1060.96l1132.55,-627.036l203.83,368.158l-1132.55,627.036l-203.83,-368.158Z" clip-rule="nonzero"/></clipPath><g clip-path="url(#_clip2)"><path d="M1138.45,534.012c-14.351,-23.899 -29.391,-47.468 -46.628,-69.412c-4.821,-5.891 -9.472,-12.002 -15.153,-17.112c-1.566,-1.41 -3.942,-2.869 -6.039,-3.281c-1.007,-0.198 -2.155,0.004 -2.841,0.767c-1.004,1.115 -0.659,2.851 -0.252,4.296c1.297,4.616 2.602,9.242 4.332,13.719c0.878,2.271 1.862,4.502 3.007,6.651c1.013,1.901 2.497,3.637 3.291,5.631c1.374,3.445 0.279,7.341 -0.351,10.825c-0.75,4.148 -1.348,8.31 -2.231,12.435c-1.894,8.851 -4.504,17.557 -7.958,25.928c-0.554,1.34 -1.128,2.672 -1.725,3.994c-6.044,13.625 -14.315,26.194 -23.949,37.548c-18.546,21.727 -41.353,39.28 -64.54,55.75c-99.764,71.685 -205.105,135.1 -310.677,197.742c-0.874,0.676 -1.912,-0.247 -2.814,-0.33c-12.967,6.451 -25.62,13.546 -38.472,20.221c-8.948,6.087 -22.927,1.85 -27.015,-8.167c-2.024,-4.734 -1.1,-10.349 1.721,-14.559c3.801,-5.842 10.017,-9.569 16.271,-12.312c-0.787,-3.398 -1.574,-6.797 -2.519,-10.142c-5.27,3.471 -10.677,6.913 -14.938,11.646c-4.303,5.042 -9.038,10.613 -9.116,17.62c-1.068,13.668 10.569,26.486 24.144,27.329c-13.848,8.007 -27.567,16.238 -41.3,24.447c-0.162,-0.487 -0.486,-1.455 -0.648,-1.934c1.43,-0.749 2.852,-1.52 4.274,-2.291c-1.921,-2.352 -4.831,-4.282 -7.996,-3.392c-3.141,1.071 -5.846,3.108 -8.856,4.478c-1.031,-1.968 -2.107,-3.914 -3.176,-5.852c-1.736,0.984 -3.479,1.945 -5.223,2.907c-5.304,-9.789 -10.789,-19.479 -16.071,-29.275c3.26,-2.049 7.159,-3.276 9.902,-6.042c1.333,-3.409 -2.284,-9.047 -6.198,-6.94c-9.564,5.22 -19.089,10.53 -28.638,15.781c-4.711,2.135 -0.505,10.806 4.085,8.678c2.943,-1.445 5.717,-3.219 8.644,-4.701c5.379,9.735 10.692,19.502 16.131,29.206c-1.759,0.939 -3.502,1.916 -5.261,2.855c1.121,1.968 2.16,3.981 3.169,6.018c-4.22,2.418 -10.325,4.122 -10.691,9.92c0.318,1.155 0.644,2.34 0.961,3.518c1.474,-0.839 2.964,-1.648 4.461,-2.442c0.443,0.906 0.924,1.804 1.33,2.755c-3.012,2.032 -6.284,3.675 -9.365,5.595c-0.52,-1.071 -1.047,-2.127 -1.545,-3.183c1.475,-0.756 2.927,-1.55 4.363,-2.366c-1.854,-2.405 -4.785,-4.2 -7.913,-3.4c-3.141,1.048 -5.877,3.01 -8.757,4.59c-1.106,-1.878 -2.136,-3.786 -3.129,-5.71c-1.85,0.827 -3.731,1.587 -5.496,2.578c-5.215,-9.797 -10.767,-19.411 -15.974,-29.208c2.874,-1.572 5.824,-3.017 8.598,-4.761c1.078,-0.618 1.368,-1.921 1.946,-2.925c-0.934,-2.045 -1.646,-4.542 -3.835,-5.599c-1.1,-0.292 -2.286,-0.139 -3.244,0.448c-9.421,5.189 -18.842,10.378 -28.248,15.582c-4.953,2.01 -0.783,10.876 3.883,8.763c2.965,-1.445 5.762,-3.205 8.704,-4.695c5.274,9.729 10.75,19.359 15.972,29.11c-1.538,1.246 -3.396,1.99 -5.117,2.936c1.106,1.961 2.137,3.967 3.198,5.965c-2.768,1.601 -5.787,2.829 -8.304,4.819c-2.456,2.102 -2.607,5.674 -1.591,8.552c1.588,-0.652 3.092,-1.483 4.543,-2.405c0.703,1.438 1.459,2.86 2.207,4.289c-3.291,1.929 -6.629,3.783 -9.852,5.832c-0.755,-1.414 -1.51,-2.821 -2.235,-4.228l-0.164,-0.297c1.437,-0.779 2.873,-1.559 4.312,-2.331c-1.649,-2.264 -4.228,-4.092 -7.171,-3.632c-3.481,0.757 -6.25,3.193 -9.479,4.58c-1.218,-1.839 -2.211,-3.815 -3.219,-5.761c-1.774,0.939 -3.533,1.893 -5.284,2.877c-5.282,-9.796 -10.819,-19.455 -16.049,-29.282c3.097,-1.89 6.596,-3.189 9.419,-5.49c2.506,-3.306 -1.939,-9.974 -5.984,-7.363c-9.407,5.182 -18.828,10.363 -28.226,15.56c-1.812,0.856 -3.147,3.145 -1.974,5.037c0.777,2.083 2.542,4.707 5.115,4.017c3.319,-1.343 6.271,-3.449 9.513,-4.957c5.208,9.82 10.73,19.464 16.012,29.253c-1.722,0.894 -3.421,1.825 -5.134,2.726c0.986,2.021 2.017,4.027 3.146,5.988c-2.821,1.639 -5.9,2.897 -8.461,4.955c-2.388,2.14 -2.472,5.651 -1.426,8.492c1.459,-0.786 2.914,-1.578 4.37,-2.369l0.221,0.399c1.364,2.251 2.571,4.594 3.786,6.937c-26.049,14.346 -51.939,28.993 -77.909,43.487c-55.044,30.8 -110.094,61.591 -165.112,92.427c-3.08,2.017 -6.804,2.634 -9.861,4.719c-3.216,1.988 -6.814,3.206 -10.198,4.857c-0.595,-0.972 -1.129,-1.96 -1.671,-2.94c-1.053,-0.135 -2.184,-0.524 -3.14,0.168c-2.612,1.397 -5.331,2.668 -7.714,4.446c-1.685,1.623 0.377,3.816 0.97,5.495c-1.997,1.294 -4.176,2.304 -6.081,3.748c0.131,0.42 0.401,1.26 0.533,1.68c-15.783,8.608 -31.504,17.352 -47.279,25.983c-0.347,-0.162 -1.041,-0.472 -1.388,-0.635c-1.714,0.924 -3.42,1.87 -5.141,2.801c0.003,0.376 0.002,1.12 -0.003,1.489c-1.887,0.925 -3.643,2.112 -5.584,2.932c-1.92,-0.428 -4.003,-1.41 -5.895,-0.297c-2.308,0.943 -3.483,3.366 -3.712,5.736c-3.317,1.636 -6.426,3.706 -9.812,5.207c-3.734,-1.608 -8.014,-2.873 -11.946,-1.089c-4.603,2.36 -9.07,4.998 -13.619,7.471c-5.027,-0.658 -10.054,-1.331 -15.045,-2.192c-4.341,2.253 -8.622,4.619 -12.864,7.052c-0.311,1.483 -0.862,2.984 -0.571,4.545c0.828,7.503 4.17,14.428 7.689,21.014c3.875,6.786 8.078,13.397 12.768,19.65c2.545,3.264 5.129,6.671 8.68,8.897c1.964,1.171 3.868,-0.393 5.56,-1.286c2.879,-1.738 5.965,-3.124 8.746,-5.011c1.22,-4.272 2.621,-8.531 4.414,-12.597c5.016,-3.409 10.724,-5.794 15.824,-9.113c4.1,-3.251 3.894,-9.068 3.495,-13.77c3.264,-1.635 6.359,-3.6 9.654,-5.168c2.143,0.11 4.608,0.939 6.514,-0.452c1.728,-0.992 2.306,-2.981 2.9,-4.73c2.225,-0.935 4.599,-3.856 7.06,-2.583c1.647,-0.863 3.27,-1.764 4.91,-2.634c0.146,-0.467 0.439,-1.402 0.578,-1.869c15.761,-8.511 31.431,-17.187 47.078,-25.908c0.64,1.062 1.303,2.131 1.966,3.201c1.706,-0.924 3.412,-1.84 5.104,-2.771c-0.656,3.516 -1.657,6.997 -1.74,10.599c2.461,0.378 4.908,0.861 7.383,1.134c0.215,-1.324 0.399,-2.649 0.569,-3.958c2.478,-0.276 5.312,-0.307 7.175,-2.239c2.493,-2.238 3.061,-6.212 1.481,-9.116c-1.204,-2.005 -3.51,-2.782 -5.199,-4.242c1.587,0.085 2.968,1.615 4.578,0.85c1.287,-0.642 2.461,-1.479 3.695,-2.203c-0.23,-0.555 -0.683,-1.656 -0.913,-2.21c3.715,-1.632 6.924,-4.462 10.947,-5.299c4.139,-2.184 8.186,-4.54 12.279,-6.807c-3.644,11.11 -5.156,22.895 -4.774,34.565c0.576,7.002 1.438,14.008 3.425,20.772c6.82,24.9 24.184,45.985 45.574,59.996c13.068,8.62 27.849,15.354 43.615,16.615c16.505,1.563 32.862,-2.992 48.026,-9.13c18.13,-7.455 35.349,-16.888 52.859,-25.654c4.508,-2.112 8.778,-4.845 13.669,-6.005c7.005,-1.96 12.178,-7.309 18.464,-10.653c32.907,-19.642 65.821,-39.262 98.711,-58.934c8.698,15.639 17.246,31.37 25.898,47.038c-0.279,1.716 0.429,3.695 2.119,4.432c-0.034,1.331 0.405,2.621 1.703,3.234c0.166,2.855 3.053,4.74 5.621,5.313c2.711,0.609 5.364,-0.435 7.63,-1.837c8.605,-4.783 17.233,-9.507 25.839,-14.276c3.107,-1.559 4.934,-5.19 4.455,-8.606c-0.179,-1.562 -0.698,-3.528 -2.726,-3.24l1.251,-0.574c-0.662,-1.017 -0.997,-2.428 -2.293,-2.778c0.072,-1.316 -0.479,-2.447 -1.149,-3.493c-1.234,-0.133 -1.671,-1.265 -2.332,-2.064c3.06,-1.739 6.159,-3.418 9.249,-5.097c0.476,2.071 0.571,4.468 2.289,5.972c0.47,1.289 0.895,2.789 2.35,3.303c-0.521,1.463 0.721,2.595 1.735,3.421c2.581,2.212 6.568,2.525 9.501,0.832c9.28,-5.038 18.491,-10.195 27.74,-15.285c3.989,-2.115 5.337,-7.268 3.59,-11.298c-0.331,-0.065 -1.009,-0.194 -1.34,-0.259c0.236,-1.453 -0.102,-3.247 -1.758,-3.594c0.027,-0.361 0.081,-1.091 0.108,-1.452c-0.404,-0.62 -0.799,-1.226 -1.188,-1.817c-1.071,-0.517 -1.972,-1.224 -2.222,-2.417c3.122,-1.476 5.978,-3.447 9.139,-4.848c0.557,1.987 0.267,5.109 2.791,5.765c-0.132,0.482 -0.248,0.987 -0.364,1.499c0.675,0.746 1.41,1.446 2.257,2.033c-0.613,1.313 0.659,2.4 1.515,3.213c2.672,2.278 6.757,2.665 9.802,0.874c9.204,-5.045 18.386,-10.134 27.575,-15.216c2.993,-1.611 4.828,-5.159 4.29,-8.515c-0.192,-1.389 -0.506,-2.995 -2.154,-3.222c0.133,-0.339 0.39,-1.003 0.523,-1.334c-0.713,-0.746 -1.351,-1.538 -2.011,-2.292c0.089,-2.849 -2.894,-3.659 -3.868,-5.959c-7.955,-14.909 -16.547,-29.504 -24.33,-44.497c39.836,-22.458 79.664,-44.931 119.571,-67.262c0.641,1.205 1.35,2.387 1.947,3.645c-1.668,2.863 -3.038,6.287 -1.756,9.583c1.463,5.16 7.899,8.009 12.713,5.639c3.73,-1.572 5.727,-5.595 5.74,-9.504c5.216,-2.809 10.295,-5.88 15.511,-8.674c1.377,-0.793 2.741,0.556 4.126,0.793c5.955,1.958 12.373,-3.703 11.857,-9.81c13.378,-7.589 26.687,-15.291 40.18,-22.648c0.908,1.669 1.705,3.421 2.83,4.983c1.995,-0.52 3.668,-1.812 5.465,-2.774c-0.376,-0.951 -0.79,-1.843 -1.113,-2.779c3.989,-2.116 7.795,-4.545 11.838,-6.562c0.382,0.808 0.788,1.617 1.208,2.433c1.901,-0.918 3.78,-1.888 5.568,-3.015c-0.887,-1.835 -1.827,-3.639 -2.856,-5.374c4.377,-2.509 8.807,-4.921 13.169,-7.468c-0.987,-2.051 -2.041,-4.065 -3.244,-5.987c-4.484,2.353 -8.815,4.989 -13.267,7.401c-0.924,-1.759 -1.893,-3.48 -2.854,-5.201c-1.707,0.871 -3.444,1.675 -5.022,2.762c-0.503,0.974 0.468,1.959 0.611,2.935c-3.959,2.129 -7.788,4.499 -11.801,6.539c-0.375,-0.817 -0.742,-1.633 -1.095,-2.434c-2.007,0.858 -3.938,1.889 -5.732,3.137c0.939,1.766 1.931,3.524 2.84,5.321c-13.229,7.438 -26.435,14.928 -39.641,22.418c-2.309,-2.003 -5.33,-2.737 -8.335,-2.63c-0.435,-0.801 -0.863,-1.586 -1.275,-2.365c25.868,-13.495 51.744,-26.968 77.618,-40.44c-0.515,-1.334 -1.119,-2.622 -1.708,-3.895c8.4,-5 18.116,-9.139 23.283,-17.954c-0.393,1.552 -0.945,3.082 -1.164,4.678c0.944,1.465 1.475,3.039 0.941,4.803c2.345,0.845 4.727,1.645 7.225,1.948c0.285,-1.003 0.57,-2.012 0.9,-2.992c2.126,0.742 4.288,1.363 6.488,1.894c-0.454,0.552 -0.886,1.112 -1.309,1.687c1.602,1.106 3.148,2.537 5.135,2.904c2.887,0.021 4.593,-2.804 6.177,-4.817c2.841,-4.661 5.776,-9.774 5.572,-15.41c0.248,-6.294 -2.82,-11.997 -3.81,-18.085c4.961,-2.739 9.869,-5.583 14.822,-8.353c-0.086,-0.413 -0.266,-1.253 -0.352,-1.673c12.294,-7.799 22.776,-18.424 30.371,-30.852c0.485,0.447 1.029,0.864 1.5,1.393c-0.999,1.993 -2.337,3.778 -3.524,5.66c1.953,1.667 4.159,3.017 6.491,4.126c1.569,-2.11 2.547,-4.772 4.706,-6.361c-1.153,2.408 -2.88,4.482 -4.464,6.622c1.052,1.728 1.934,3.9 3.963,4.703c3.028,0.689 6.314,-0.984 7.992,-3.508c3.875,-7.835 8.949,-15.1 11.654,-23.482c2.472,-6.47 3.182,-13.384 4.186,-20.172c-0.049,-2.3 -0.518,-4.566 -0.635,-6.851c-0.445,-10.279 -2.858,-20.325 -4.422,-30.46c-1.316,-7.326 -2.173,-14.731 -2.843,-22.137c-0.181,-3.652 -0.173,-7.343 -1.345,-10.843c-1.15,-0.028 -2.293,-0.057 -3.413,-0.077c-0.538,4.913 -1.144,9.826 -1.509,14.753c-0.101,16.125 4.043,31.869 5.024,47.91c-1.558,0.697 -2.986,1.633 -4.24,2.764c-1.92,-0.398 -3.825,-0.773 -5.708,-1.269c1.422,-9.904 1.301,-20.058 -0.396,-29.922c-4.531,-27.22 -21.37,-52.036 -44.957,-66.352c11.531,-5.59 22.648,-12.086 34.606,-16.755c15.26,-6.334 30.498,-12.714 45.75,-19.071c8.382,-3.617 17.357,-5.45 26.102,-7.949c23.51,-6.846 48.493,-9.074 72.765,-5.553c8.55,1.289 16.989,3.31 25.199,6.026c4.106,1.359 8.329,2.769 12.235,4.639c1.485,0.711 3.05,0.888 4.562,1.556c1.804,0.796 3.393,2.057 4.722,3.502c2.208,2.401 3.789,5.296 5.548,8.043c1.565,2.443 3.242,4.817 5.085,7.059c1.505,1.831 3.297,4.346 5.266,5.674c1.169,0.788 2.758,1.115 4,0.447c1.079,-0.581 1.684,-1.777 1.996,-2.962c0.842,-3.196 -0.02,-6.449 -0.938,-9.523c-1.064,-3.565 -2.23,-7.084 -3.477,-10.593c-0.113,-0.32 -0.227,-0.639 -0.34,-0.959c-23.271,-49.069 -48.391,-97.287 -76.046,-144.026l-0.003,0.004Zm-619.367,576.189c-34.934,20.771 -69.79,41.684 -104.734,62.449c-2.4,-0.259 -4.341,1.298 -6.317,2.397c-0.936,0.398 -1.327,1.349 -1.763,2.209c-2.333,1.576 -5.995,1.343 -7.453,-1.299c-1.895,-2.878 -0.012,-6.961 3.328,-7.567c0.245,0.554 0.728,1.655 0.966,2.202c2.605,-1.314 5.876,-2.1 7.289,-4.908c1.057,-1.152 2.549,-1.728 3.842,-2.55c33.67,-20.047 67.27,-40.205 100.965,-60.216c1.283,2.433 2.655,4.812 3.878,7.282l-0.001,0.001Zm72.195,12.907c-3.039,1.528 -6.01,3.199 -8.973,4.869c-1.894,-3.637 -4.147,-7.092 -5.794,-10.844c2.864,-1.783 5.85,-3.371 8.822,-4.966c1.962,3.652 4.088,7.22 5.945,10.941l0,-0Zm-20.472,-37.041c-2.826,1.902 -5.903,3.408 -8.844,5.116c-1.52,-2.956 -3.227,-5.806 -4.71,-8.771c2.971,-1.686 5.941,-3.394 8.926,-5.065c1.498,2.927 3.287,5.709 4.627,8.72l0.001,-0Zm-19.07,-34.602c-3.024,1.573 -5.934,3.333 -8.904,5.004c-2.444,-4.663 -5.052,-9.235 -7.593,-13.844c3.031,-1.589 6.047,-3.215 8.979,-4.998c2.534,4.595 5.164,9.144 7.518,13.838l0,-0Zm89.508,43.969c-2.985,1.716 -6.023,3.342 -9.024,5.036c-2.015,-3.697 -4.089,-7.356 -6.082,-11.053c3.046,-1.634 6.008,-3.417 9.062,-5.043c1.918,3.735 4,7.386 6.045,11.06l-0.001,0Zm-24.669,-44.517c-3.092,1.476 -6.101,3.094 -9.132,4.683c-7.335,-13.538 -14.903,-26.954 -22.238,-40.492c3.024,-1.641 6.024,-3.312 9.04,-4.968c7.336,13.651 15.054,27.096 22.33,40.777l0,-0Zm-47.59,-80.528c0.85,1.88 1.812,3.729 2.917,5.486c0.983,-0.166 2.533,-1.885 3.214,-0.38c3.596,6.683 7.371,13.275 10.936,19.973c-3.054,1.604 -6.039,3.312 -9.093,4.909c-3.681,-7.028 -7.676,-13.889 -11.387,-20.902c0.853,-0.495 1.706,-0.991 2.559,-1.479c-1.141,-1.652 -1.59,-4.084 -3.328,-5.167c-13.83,7.405 -27.485,15.147 -41.27,22.635c-1.414,0.846 -3.055,1.431 -4.241,2.591c0.346,1.936 1.788,3.548 2.637,5.323c0.944,-0.399 1.911,-0.76 2.877,-1.114c3.74,6.892 7.436,13.815 11.385,20.586c-3.008,1.716 -5.993,3.462 -9.115,4.968c-3.748,-6.945 -7.646,-13.813 -11.408,-20.751c0.883,-0.458 1.698,-1.013 2.444,-1.666c-0.834,-1.82 -1.856,-3.533 -2.832,-5.261c-15.455,8.23 -30.643,16.962 -46.081,25.229c0.738,2.024 1.836,3.887 3.09,5.651c0.816,-0.481 1.646,-0.954 2.485,-1.404c8.241,15.004 16.506,30 24.8,44.981c-7.578,4.49 -15.163,8.972 -22.68,13.559c0.258,-1.46 0.502,-2.905 0.821,-4.336c0.434,-9.34 -3.539,-18.057 -7.163,-26.431c-2.27,-5.469 -4.834,-11.048 -4.952,-17.076c-0.052,-2.728 -0.84,-5.352 -1.823,-7.863c-1.847,1.203 -5.028,2.041 -4.508,4.863c0.133,5.224 -0.468,10.739 1.729,15.644c2.713,7.202 6.423,14.154 7.569,21.843c0.762,4.849 -0.58,9.935 -3.622,13.793c-4.32,5.741 -10.887,9.854 -18.011,10.98c-4.677,0.73 -9.494,-0.779 -13.119,-3.763c-7.81,-6.393 -12.15,-15.889 -19.468,-22.744c-1.742,-1.595 -3.5,-3.377 -5.873,-3.921c-2.382,-0.837 -4.886,-0.012 -7.165,0.75c-0.162,0.408 -0.478,1.222 -0.64,1.637c5.154,2.453 8.576,7.153 12.106,11.446c4.823,5.967 9.145,12.373 14.594,17.801c4.055,4.056 9.179,7.314 14.965,8.018c-12.793,7.465 -25.441,15.176 -38.188,22.715c-4.189,2.402 -8.165,5.231 -12.676,7.028c-7.14,3.802 -13.741,9.148 -17.605,16.389c-7.153,12.394 -5.936,28.764 2.623,40.172c-1.138,-0.299 -2.268,-0.606 -3.383,-0.912c-13.659,7.231 -26.247,16.716 -41.046,21.603c-15.196,4.996 -32.124,3.166 -46.485,-3.594c-23.437,-10.85 -41.43,-34.223 -43.32,-60.298c-1.257,-15.813 3.61,-31.857 12.69,-44.748c22.275,-18.938 47.573,-33.878 72.956,-48.214c40.811,-22.721 83.027,-42.898 123,-67.109c-1.051,-1.706 -2.089,-3.591 -0.947,-5.57l-1.95,0.594c0.625,-0.809 1.797,-0.879 2.338,-1.763c5.162,9.745 10.615,19.337 15.867,29.036c0.911,1.977 2.815,3.179 4.901,3.651c-1.459,0.779 -2.957,1.513 -4.332,2.448c-0.415,1.582 1.174,2.907 1.764,4.308c15.356,-8.402 30.644,-16.947 46.014,-25.319c-0.606,-1.476 -1.301,-2.884 -2.117,-4.23c-1.706,0.938 -3.412,1.884 -5.064,2.928c0.803,-1.939 1.115,-4.181 -0.095,-6.02c-4.343,-8.031 -8.829,-15.977 -13.164,-23.999c3.024,-1.574 6.017,-3.214 8.965,-4.93c4.569,8.058 8.876,16.277 13.467,24.328c0.872,1.819 2.824,2.465 4.647,2.931c-1.722,0.841 -3.398,1.787 -5.021,2.807c0.718,1.287 1.427,2.589 2.145,3.899c15.5,-8.201 30.802,-16.798 46.111,-25.343c-0.471,-1.462 -1.323,-2.755 -2.071,-4.065c-1.706,0.894 -3.405,1.817 -5.035,2.846c0.439,-1.462 0.719,-2.968 0.729,-4.486c-4.669,-8.441 -9.369,-16.867 -13.904,-25.376c3.062,-1.529 6.024,-3.245 9.094,-4.766c4.327,7.925 8.654,15.85 13.049,23.729c0.911,1.97 3.007,2.78 5.003,3.207c-1.782,0.834 -3.496,1.795 -5.171,2.816c0.724,1.325 1.472,2.664 2.212,4.003c15.4,-8.508 30.892,-16.859 46.185,-25.553c-0.74,-1.31 -1.45,-2.612 -2.167,-3.914c-1.745,0.796 -3.421,1.735 -5.021,2.785c0.412,-1.913 0.921,-4.059 -0.161,-5.854c-4.29,-7.88 -8.654,-15.722 -12.951,-23.595c72.218,-39.111 144.389,-78.318 216.977,-116.751c1.206,2.216 2.24,4.552 3.76,6.584c0.482,0.094 1.446,0.274 1.935,0.368c12.626,22.47 24.81,45.2 37.473,67.647c-40.872,23.608 -81.822,47.076 -122.707,70.639c-0.363,-0.2 -1.08,-0.592 -1.442,-0.792c-2.238,1.213 -4.483,2.419 -6.66,3.738c-0.549,-1.003 -1.091,-1.991 -1.648,-2.964c4.226,-5.266 6.72,-11.962 6.581,-18.733c-0.031,-8.314 -3.924,-16.506 -10.32,-21.813c-8.176,-7.051 -20.458,-8.784 -30.269,-4.291c-9.385,4.038 -15.992,13.354 -17.141,23.451c-0.741,8.568 2.308,17.466 8.514,23.481c6.186,6.293 15.328,9.188 24.04,8.229c0.504,0.965 1.001,1.923 1.542,2.904l-7.644,4.137l0.048,2.454l0.145,-0.083l-0,0c-19.4,11.149 -38.802,22.293 -58.18,33.48c-7.914,-14.398 -15.925,-28.742 -23.756,-43.186c0.779,-0.352 1.565,-0.705 2.352,-1.049c-0.573,-2.01 -1.365,-4.146 -2.94,-5.554c-15.403,8.163 -30.538,16.849 -45.888,25.131l-0.007,0Zm146.121,-31.714c-7.057,7.5 -19.639,8.626 -27.957,2.583c-8.005,-5.362 -11.388,-16.346 -8.004,-25.342c2.169,-5.979 7.052,-10.853 13.048,-12.991c5.945,-2.071 12.864,-1.609 18.311,1.638c4.592,2.624 8.138,7.007 9.773,12.037c2.618,7.548 0.503,16.458 -5.171,22.076l-0,-0.001Zm5.693,9.44c-0.064,0.037 -0.128,0.074 -0.192,0.11l-0.004,-0.007c0.066,-0.034 0.13,-0.069 0.196,-0.103l-0,0Zm108.343,32.014c-1.837,2.39 -2.654,5.374 -2.299,8.378c-5.185,2.944 -10.439,5.768 -15.54,8.847c-2.361,-1.882 -5.292,-2.798 -8.296,-2.472c-0.687,-1.198 -1.381,-2.387 -2.059,-3.562c8.899,-4.718 17.866,-9.31 26.796,-13.976c0.443,0.913 0.925,1.849 1.398,2.785l0,-0Zm78.539,-55.64c-0.374,0.206 -1.122,0.603 -1.496,0.809c-0.902,-1.79 -1.834,-3.548 -2.743,-5.315c0.383,-0.131 1.162,-0.386 1.552,-0.517c0.908,1.662 1.839,3.315 2.687,5.022l0,0.001Zm-243.087,94.097c-3.398,1.787 -6.552,4.091 -10.179,5.406c3.629,-2.917 7.974,-4.756 11.908,-7.209c66.632,-38.389 133.295,-76.711 199.926,-115.092c4.861,-2.115 23.884,-13.795 25.806,-14.938c0.684,-3.667 5.63,-4.293 8.556,-2.205c-78.638,44.743 -157.347,89.347 -236.015,134.037l-0.002,0.001Zm272.049,-112.511c-0.122,-2.074 -1.312,-5.139 1.622,-5.659c-0.442,1.905 -0.968,3.804 -1.622,5.659Zm17.039,4.34c-0.959,-0.496 -1.932,-0.931 -2.912,-1.314c-0.208,-0.585 -0.401,-1.17 -0.578,-1.747c-1.905,-0.36 -4.044,-1.741 -5.782,-0.08c0.474,-1.838 1.113,-3.602 1.451,-5.469c-1.703,-0.49 -3.398,-1.017 -5.093,-1.454c1.609,-0.81 3.233,-1.726 3.978,-3.476c1.874,-1.504 4.136,-2.522 6.315,-3.54c3.094,5.094 3.423,11.308 2.621,17.08l0,-0Zm-28.682,-60.864c2.975,5.357 5.787,10.822 9.017,16.042c-2.603,1.645 -5.335,3.096 -8.243,4.112c-7.547,-10.906 -21.233,-17.122 -34.398,-15.541c-4.792,0.483 -9.402,2.069 -13.661,4.284c-3.036,-0.839 -5.607,1.85 -7.689,3.694c-2.594,1.743 -5.432,3.089 -8.057,4.78c-12.574,-22.569 -24.93,-45.25 -37.475,-67.836c0.687,-0.525 1.39,-1.042 2.107,-1.551c-1.095,-2.442 -2.392,-4.784 -3.764,-7.065c17.895,-9.596 35.965,-18.855 53.884,-28.407c1.044,1.765 1.909,3.66 3.103,5.349c0.828,0.136 1.678,0.174 2.549,0.114c14.226,26.005 28.638,51.91 42.887,77.901c1.139,1.397 -1.617,2.675 -0.259,4.122l-0.001,0.002Zm33.231,2.5c-0.319,-0.313 -0.955,-0.932 -1.273,-1.245c-1.777,1.481 -5.872,1.747 -5.216,4.749c-2.162,1.22 -4.332,2.419 -6.426,3.736c-2.958,-5.921 -6.186,-11.728 -9.54,-17.429c-0.586,0.073 -1.75,0.21 -2.328,0.282c-14.424,-26.394 -29.044,-52.683 -43.519,-79.044c0.492,-0.5 1.006,-0.986 1.521,-1.463c-0.925,-1.94 -1.836,-3.887 -2.874,-5.765c15.452,-7.719 30.628,-16.038 46.148,-23.599c12.538,2.633 24.294,9.008 33.27,18.166c13.187,13.152 20.409,32.125 19.118,50.716c-1.082,20.23 -12.07,39.594 -28.883,50.895l0.002,0.001Zm62.625,-34.604c0.86,3.007 2.857,5.456 5.768,6.695c-0.888,7.171 -3.084,14.27 -7.177,20.28c-1.071,1.317 -1.826,3.736 -3.952,2.919c1.483,-2.463 3.094,-4.844 4.653,-7.255c-2.028,-1.584 -4.211,-2.942 -6.439,-4.179c-1.672,2.404 -3.215,4.89 -4.841,7.317c-0.529,-0.319 -1.587,-0.965 -2.116,-1.291c4.189,-8.025 7.291,-16.642 9.037,-25.527c1.686,0.309 3.394,0.566 5.067,1.041l0,-0Z" style="fill:#ff5757;fill-rule:nonzero;"/></g></g></g><g><clipPath id="_clip3"><path d="M1505.64,185.25l56.864,506.793l-446.545,50.104l-56.864,-506.793l446.545,-50.104Z" clip-rule="nonzero"/></clipPath><g clip-path="url(#_clip3)"><g><clipPath id="_clip4"><path d="M1505.64,185.25l56.864,506.793l-446.545,50.104l-56.864,-506.793l446.545,-50.104Z" clip-rule="nonzero"/></clipPath><g clip-path="url(#_clip4)"><path d="M1525.04,695.759c-2.576,0.205 -5.195,0.191 -7.712,0.691c-1.78,0.354 -3.51,0.788 -5.335,0.696c-0.395,-0.02 -0.819,0.071 -1.183,-0.04c-3.347,-1.028 -6.684,-1.974 -9.734,-3.881c-2.553,-1.597 -5.372,-2.797 -8.379,-3.512c-2.961,-0.704 -5.852,-1.699 -8.781,-2.543c-1.089,-0.314 -2.21,-0.518 -3.293,-0.851c-2.436,-0.747 -5.015,-1.441 -6.795,-3.291c-1.955,-2.032 -4.006,-4.233 -3.473,-7.512c0.027,-0.165 0.017,-0.342 -0.01,-0.508c-1.151,-7.285 0.151,-14.409 1.395,-21.539c0.466,-2.674 0.873,-5.36 1.363,-8.03c0.161,-0.878 0.498,-1.724 0.758,-2.583c0.115,-0.38 0.296,-0.749 0.345,-1.137c0.586,-4.578 1.964,-9.033 1.615,-13.764c-0.222,-3.014 0.315,-6.076 0.348,-9.119c0.04,-3.78 0.221,-7.559 -0.444,-11.337c-0.518,-2.938 -0.617,-5.947 -0.959,-8.918c-0.511,-4.442 -1.073,-8.878 -1.61,-13.316c-0.047,-0.391 -0.169,-0.804 -0.093,-1.173c0.49,-2.356 -0.116,-4.607 -0.559,-6.883c-0.172,-0.885 -0.206,-1.799 -0.263,-2.702c-0.166,-2.593 -0.459,-5.189 -0.431,-7.781c0.048,-4.544 -0.734,-9.01 -1.01,-13.52c-0.065,-1.056 0.126,-2.136 0.266,-3.196c0.43,-3.276 -0.797,-6.341 -1.17,-9.514c-0.013,-0.112 -0.072,-0.223 -0.067,-0.333c0.133,-2.828 -0.797,-5.517 -1.087,-8.29c-0.094,-0.898 -0.192,-1.805 -0.395,-2.683c-0.713,-3.087 -1.689,-6.132 -2.149,-9.254c-0.401,-2.717 -1.463,-5.185 -2.147,-7.784c-0.542,-2.063 -0.629,-4.241 -1.088,-6.331c-0.433,-1.971 -1.061,-3.902 -1.652,-5.836c-0.659,-2.159 -1.393,-4.295 -2.06,-6.453c-1.015,-3.289 -1.921,-6.615 -3.027,-9.874c-0.751,-2.215 -3.663,-15.487 -4.844,-17.632c-0.027,-0.049 -0.065,-0.101 -0.069,-0.154c-0.235,-2.697 -1.774,-4.916 -2.73,-7.345c-0.383,-0.972 -1.16,-1.782 -1.63,-2.729c-0.796,-1.603 -1.485,-3.258 -2.229,-4.887c-0.139,-0.302 -0.363,-0.568 -0.482,-0.876c-0.526,-1.356 -1.03,-2.72 -1.538,-4.083c-0.505,-1.356 -0.865,-2.788 -1.536,-4.056c-1.164,-2.197 -2.536,-4.284 -3.791,-6.435c-1.74,-2.98 -3.459,-5.973 -5.174,-8.968c-0.59,-1.03 -1.13,-2.088 -1.712,-3.123c-0.387,-0.69 -0.686,-1.49 -1.238,-2.017c-1.525,-1.454 -2.043,-3.402 -2.892,-5.212c-1.003,-2.137 -2.229,-4.172 -3.41,-6.222c-1.014,-1.759 -2.069,-3.496 -3.161,-5.208c-2.004,-3.14 -3.972,-6.308 -6.097,-9.365c-2.354,-3.388 -4.988,-6.584 -7.279,-10.011c-2.435,-3.644 -5.255,-6.925 -8.35,-9.999c-0.438,-0.435 -0.743,-1 -1.152,-1.468c-0.889,-1.018 -1.695,-2.15 -2.739,-2.98c-1.131,-0.901 -2.024,-1.906 -2.812,-3.113c-0.728,-1.115 -1.737,-2.05 -2.65,-3.04c-1.341,-1.453 -2.669,-2.922 -4.074,-4.312c-1.041,-1.03 -2.247,-1.893 -3.286,-2.925c-1.511,-1.502 -2.913,-3.114 -4.408,-4.634c-1.462,-1.486 -2.956,-2.943 -4.486,-4.359c-1.278,-1.182 -2.691,-2.222 -3.935,-3.436c-3.472,-3.392 -6.82,-6.917 -10.838,-9.698c-2.463,-1.706 -4.844,-3.478 -6.958,-5.656c-1.427,-1.47 -3.368,-2.436 -5.05,-3.667c-0.72,-0.528 -1.327,-1.213 -2.054,-1.728c-1.525,-1.078 -3.084,-2.111 -4.652,-3.127c-1.602,-1.039 -3.124,-2.327 -4.877,-2.976c-2.152,-0.798 -3.776,-2.131 -5.439,-3.589c-1.166,-1.023 -2.576,-1.804 -3.964,-2.528c-2.649,-1.382 -5.387,-2.592 -8.036,-3.974c-2.348,-1.226 -4.589,-2.657 -6.942,-3.871c-2.709,-1.399 -5.47,-2.701 -8.245,-3.964c-1.847,-0.841 -3.756,-1.548 -5.641,-2.304c-3.074,-1.231 -6.12,-2.541 -9.235,-3.659c-4.293,-1.541 -8.655,-2.891 -12.957,-4.41c-1.841,-0.65 -3.664,-1.319 -5.441,-2.226c-1.717,-0.876 -3.548,-1.856 -5.697,-1.92c-1.844,-0.054 -3.722,-0.491 -5.491,-1.053c-1.699,-0.54 -3.255,-1.51 -4.915,-2.194c-1.761,-0.725 -3.506,-1.357 -5.518,-1.386c-1.766,-0.024 -3.517,-0.764 -5.286,-1.137c-0.88,-0.186 -1.801,-0.186 -2.674,-0.394c-1.2,-0.287 -2.424,-0.574 -3.543,-1.073c-1.421,-0.634 -2.816,-0.995 -4.401,-1.02c-1.502,-0.024 -3.001,-0.496 -4.493,-0.812c-2.427,-0.516 -4.853,-1.041 -7.269,-1.607c-2.086,-0.488 -4.134,-1.171 -6.24,-1.518c-1.658,-0.274 -3.379,-0.152 -5.071,-0.235c-1.617,-0.081 -3.186,0.089 -4.797,0.338c-1.357,0.211 -3.013,-0.131 -4.243,-0.782c-2.436,-1.29 -5.033,-1.585 -7.651,-1.853c-2.934,-0.301 -6.569,-3.636 -5.759,-7.256c0.165,-0.736 0.07,-1.588 -0.118,-2.333c-0.536,-2.122 0.513,-4.007 0.769,-6.007c0.028,-0.221 0.173,-0.426 0.204,-0.647c0.613,-4.366 1.198,-8.736 1.835,-13.098c0.221,-1.511 0.538,-3.01 0.859,-4.504c0.893,-4.145 1.818,-8.282 2.718,-12.426c0.63,-2.9 1.941,-4.494 5.373,-3.932c1.27,0.208 2.596,0.045 3.888,0.153c2.649,0.222 5.293,0.505 7.937,0.78c0.503,0.053 1.003,0.162 1.496,0.284c2.592,0.642 5.212,0.802 7.881,0.707c1.034,-0.037 2.154,0.241 3.115,0.654c2.546,1.095 5.046,0.97 7.603,0.128c0.398,-0.131 0.887,-0.12 1.304,-0.031c1.159,0.246 2.368,0.417 3.436,0.891c2.282,1.012 4.71,0.3 7.025,0.792c1.983,0.422 3.974,0.843 5.982,1.091c1.782,0.22 3.647,-0.038 5.382,0.341c3.067,0.67 6.131,0.998 9.259,0.97c0.835,-0.008 1.667,0.327 2.51,0.422c2.801,0.316 5.604,0.606 8.409,0.875c0.503,0.049 1.079,0.088 1.518,-0.104c1.529,-0.67 2.812,0.004 4.209,0.484c3.44,1.181 6.933,1.562 10.415,0.082c1.116,-0.474 1.952,-0.262 3.094,0.383c1.665,0.94 3.69,1.271 5.585,1.768c1.572,0.412 3.166,0.784 4.773,1.003c2.461,0.336 4.941,0.674 7.417,0.712c1.231,0.018 2.381,0.045 3.424,0.662c2.756,1.632 5.803,2.478 8.852,3.285c1.129,0.299 2.354,0.237 3.535,0.34c0.448,0.039 0.927,-0.01 1.339,0.132c2.889,0.997 5.757,2.053 8.647,3.043c0.787,0.27 1.634,0.358 2.445,0.567c0.699,0.18 1.443,0.305 2.067,0.64c2.285,1.226 4.52,2.547 6.79,3.802c2.759,1.524 5.524,3.039 8.311,4.512c0.896,0.473 1.84,0.912 2.813,1.174c3.413,0.92 6.373,2.722 9.309,4.589c0.189,0.121 0.391,0.245 0.604,0.303c3.573,0.973 6.426,3.132 9.358,5.291c1.813,1.335 4.115,2.136 6.313,2.782c1.971,0.579 3.555,1.626 5.132,2.814c0.711,0.536 1.516,0.945 2.256,1.445c0.556,0.376 1.145,0.74 1.599,1.222c1.489,1.582 3.099,2.882 5.243,3.577c0.874,0.283 1.468,1.36 2.254,1.996c2.191,1.774 4.423,3.498 6.622,5.263c0.476,0.383 0.884,0.854 1.315,1.292c0.941,0.957 1.747,2.115 2.84,2.844c3.455,2.305 6.69,4.882 9.948,7.448c2.558,2.016 5.374,3.703 8.045,5.581c0.637,0.447 1.363,0.969 1.681,1.632c1.212,2.521 3.603,4.004 5.234,6.16c1.176,1.554 2.849,2.726 4.263,4.105c0.889,0.867 1.689,1.824 2.566,2.703c1.387,1.392 2.921,2.654 4.181,4.15c1.807,2.144 4.196,3.774 5.528,6.341c0.297,0.573 0.854,1.019 1.322,1.494c1.139,1.156 2.348,2.246 3.433,3.45c1.852,2.056 3.637,4.173 5.439,6.274c1.716,2.003 3.641,3.786 4.906,6.219c0.941,1.81 2.626,3.232 3.97,4.834c1.916,2.283 3.776,4.615 5.751,6.846c1.485,1.676 2.211,3.756 3.315,5.633c0.686,1.167 1.554,2.226 2.315,3.35c0.76,1.123 1.666,2.191 2.197,3.418c1.156,2.674 3.158,4.781 4.584,7.242c1.348,2.326 3.485,4.13 4.222,6.888c0.361,1.349 1.554,2.455 2.219,3.748c0.844,1.644 1.532,3.369 2.294,5.055c1.209,2.674 2.364,5.374 3.65,8.01c2.206,4.519 4.483,9.003 6.758,13.488c0.637,1.255 1.542,2.397 2.032,3.7c2.232,5.929 5.189,11.528 7.735,17.312c2.416,5.484 4.661,11.044 6.971,16.575c1.134,2.716 2.276,5.43 3.359,8.167c1.12,2.828 2.206,5.672 3.245,8.531c0.573,1.577 1.052,3.19 1.516,4.804c0.374,1.301 0.923,2.627 0.928,3.944c0.008,2.281 0.795,4.351 1.465,6.416c1.311,4.041 2.835,8.053 3.324,12.264c0.565,4.869 2.406,9.434 2.966,14.275c0.207,1.795 0.215,3.613 0.389,5.413c0.207,2.13 0.505,4.25 0.743,6.378c0.125,1.116 0.18,2.241 0.31,3.357c0.202,1.722 0.483,3.435 0.641,5.161c0.061,0.66 -0.133,1.342 -0.193,2.016c-0.051,0.56 -0.288,1.224 -0.076,1.667c1.136,2.377 0.655,4.903 0.783,7.362c0.106,2.021 -0.134,4.064 0.031,6.076c0.137,1.675 0.461,3.384 1.019,4.966c1.091,3.097 1.372,6.167 0.448,9.335c-0.499,1.708 -0.489,3.423 -0.343,5.211c0.214,2.63 0.049,5.29 0.083,7.936c0.016,1.183 0.146,2.365 0.186,3.548c0.088,2.615 -0.331,5.162 -0.765,7.744c-0.519,3.093 -0.505,6.275 -0.707,9.42c-0.04,0.622 -0.03,1.249 -0.013,1.873c0.051,1.863 0.177,3.725 0.162,5.587c-0.018,2.193 -0.159,4.384 -0.234,6.576c-0.026,0.732 0.007,1.467 -0.024,2.198c-0.029,0.675 0.098,1.461 -0.2,2.001c-1.282,2.329 -0.426,4.752 -0.49,7.13c-0.028,1.063 -0.105,2.126 -0.117,3.189c-0.017,1.465 0.033,2.932 0.006,4.397c-0.03,1.564 0.001,3.143 -0.202,4.688c-0.441,3.358 -0.981,6.703 -1.543,10.043c-0.532,3.161 -0.287,6.369 -1.08,9.549c-1.215,4.868 -1.836,9.882 -2.843,14.807c-0.392,1.92 -1.221,3.746 -1.714,5.651c-0.353,1.364 -0.573,2.779 -0.683,4.185c-0.171,2.206 -0.303,4.37 -1.201,6.475c-0.611,1.434 -0.731,3.074 -1.104,4.614c-0.573,2.36 -1.105,4.734 -1.788,7.063c-0.488,1.664 -1.478,3.044 -2.992,3.993c-0.909,0.57 -1.8,1.169 -2.699,1.754c-0.067,-0.155 -0.134,-0.309 -0.201,-0.464l-0,-0Z" style="fill:#ff5757;fill-rule:nonzero;"/><path d="M1390.39,483.215c0.002,0.661 -0.015,1.228 0.01,1.793c0.026,0.619 -0.042,1.286 0.162,1.848c0.959,2.643 1.993,5.26 3.012,7.881c0.143,0.368 0.462,0.696 0.514,1.068c0.516,3.68 2.966,6.636 3.868,10.114c1.226,4.731 3.927,8.933 4.69,13.805c0.092,0.587 0.561,1.105 0.782,1.684c0.301,0.785 0.674,1.58 0.767,2.4c0.387,3.413 0.762,6.826 1.81,10.115c0.494,1.548 1.111,3.056 1.656,4.588c0.093,0.261 0.208,0.58 0.14,0.824c-1.018,3.663 0.65,7.018 1.204,10.494c0.249,1.562 0.688,3.094 1.068,4.633c0.27,1.088 0.446,2.231 0.914,3.233c0.801,1.714 1.538,3.387 1.306,5.354c-0.055,0.458 0.242,0.965 0.41,1.439c0.112,0.318 0.393,0.612 0.407,0.925c0.094,2.118 0.908,4.167 0.392,6.359c-0.249,1.058 -0.115,2.242 0.026,3.346c0.197,1.546 0.673,3.061 0.816,4.608c0.096,1.043 -0.23,2.117 -0.276,3.181c-0.141,3.263 -0.183,6.51 0.414,9.762c0.427,2.322 0.503,4.71 0.731,7.069c0.038,0.391 0.068,0.784 0.077,1.178c0.03,1.289 0.259,2.618 0.031,3.861c-0.543,2.965 0.112,5.813 0.362,8.726c0.243,2.821 0.997,5.712 -0.107,8.57c-0.269,0.695 -0.282,1.607 -0.094,2.338c0.471,1.824 0.258,3.595 -0.075,5.385c-0.461,2.48 -1.231,4.905 -0.183,7.488c0.337,0.83 -0.004,2.035 -0.282,2.997c-1.255,4.36 -1.36,8.823 -1.405,13.305c-0.01,1.012 -0.21,2.024 -0.34,3.034c-0.152,1.177 -0.308,2.355 -0.493,3.528c-0.105,0.67 -0.106,1.432 -0.44,1.977c-1.041,1.696 -1.012,3.713 -1.751,5.454c-1.294,3.045 -2.307,6.302 -4.973,8.567c-0.386,0.328 -0.822,0.6 -1.182,0.953c-0.422,0.413 -0.92,0.827 -1.148,1.345c-0.52,1.181 -1.321,1.835 -2.619,1.738c-1.408,-0.106 -2.812,-0.282 -4.218,-0.42c-0.559,-0.055 -1.123,-0.062 -1.678,-0.139c-0.826,-0.113 -1.645,-0.285 -2.47,-0.402c-1.277,-0.182 -2.553,-0.398 -3.837,-0.492c-3.101,-0.228 -6.207,-0.379 -9.309,-0.589c-3.493,-0.237 -6.982,-0.516 -10.475,-0.748c-0.67,-0.044 -1.353,0.011 -2.023,0.084c-2.556,0.279 -4.873,-0.895 -7.334,-1.181c-0.109,-0.013 -0.235,-0.051 -0.315,-0.121c-3.002,-2.64 -7.152,-2.299 -10.5,-4.047c-1.537,-0.802 -2.891,-1.746 -3.639,-3.389c-0.253,-0.557 -0.569,-1.107 -0.956,-1.578c-0.952,-1.158 -1.118,-2.427 -0.741,-3.833c0.689,-2.566 1.36,-5.138 2.031,-7.709c0.085,-0.328 0.189,-0.672 0.172,-1.003c-0.193,-3.63 1.049,-7.022 1.699,-10.512c0.175,-0.939 0.347,-1.952 0.178,-2.868c-0.484,-2.615 0.556,-5.045 0.736,-7.574c0.241,-3.38 0.691,-6.744 0.998,-10.119c0.071,-0.777 0.016,-1.59 -0.128,-2.359c-0.702,-3.746 0.398,-7.576 -0.589,-11.325c-0.245,-0.933 0.076,-2.014 0.129,-3.027c0.03,-0.565 0.18,-1.165 0.044,-1.69c-0.823,-3.175 -0.56,-6.351 -0.323,-9.571c0.151,-2.058 -0.329,-4.157 -0.45,-6.242c-0.115,-1.975 -0.129,-3.956 -0.189,-5.935c-0.044,-1.469 -0.128,-2.938 -0.129,-4.407c-0.001,-1.971 0.213,-3.953 0.06,-5.909c-0.237,-3.026 -0.771,-6.028 -1.048,-9.052c-0.144,-1.582 -0.521,-3.044 -1.053,-4.536c-0.334,-0.939 -0.034,-2.099 -0.048,-3.16c-0.009,-0.724 0.164,-1.57 -0.144,-2.15c-1.245,-2.351 -0.934,-4.978 -1.512,-7.437c-0.322,-1.366 -0.737,-2.71 -1.098,-4.068c-0.723,-2.718 -1.44,-5.438 -2.152,-8.16c-0.071,-0.27 -0.032,-0.582 -0.149,-0.824c-1.586,-3.298 -2.023,-6.926 -3.031,-10.39c-0.312,-1.07 -0.816,-2.111 -1.385,-3.075c-0.98,-1.661 -1.809,-3.33 -2.262,-5.249c-0.328,-1.392 -1.26,-2.637 -1.878,-3.968c-0.495,-1.065 -1.094,-2.124 -1.34,-3.252c-0.406,-1.862 -1.116,-3.54 -2.108,-5.156c-0.577,-0.941 -0.883,-2.046 -1.324,-3.071c-0.291,-0.675 -0.59,-1.348 -0.913,-2.008c-0.494,-1.006 -1.008,-2.003 -1.522,-2.999c-1.523,-2.951 -3.104,-5.873 -4.55,-8.861c-0.608,-1.257 -0.917,-2.657 -1.397,-3.979c-0.265,-0.729 -0.496,-1.506 -0.926,-2.136c-1.875,-2.745 -3.8,-5.457 -5.748,-8.152c-0.518,-0.717 -1.104,-1.426 -1.791,-1.973c-2.63,-2.091 -3.92,-5.211 -6.027,-7.701c-2,-2.363 -3.958,-4.762 -5.886,-7.184c-0.446,-0.559 -0.579,-1.385 -1.062,-1.893c-1.114,-1.174 -2.365,-2.217 -3.538,-3.337c-0.477,-0.457 -0.877,-0.993 -1.345,-1.461c-0.949,-0.951 -1.953,-1.848 -2.875,-2.824c-1.039,-1.101 -2.171,-2.164 -2.965,-3.431c-0.734,-1.172 -1.413,-2.257 -2.634,-3.008c-0.853,-0.524 -1.648,-1.234 -2.275,-2.016c-1.477,-1.843 -3.372,-3.296 -4.524,-5.473c-0.71,-1.342 -2.009,-2.504 -3.295,-3.38c-2.829,-1.928 -5.127,-4.408 -7.618,-6.695c-1.45,-1.332 -3.126,-2.416 -4.65,-3.673c-0.588,-0.485 -1.132,-1.08 -1.528,-1.728c-0.766,-1.251 -1.749,-2.199 -3.073,-2.836c-1.302,-0.626 -2.352,-1.508 -2.987,-2.883c-0.268,-0.58 -0.849,-1.027 -1.324,-1.497c-1.188,-1.176 -2.362,-2.369 -3.61,-3.477c-0.74,-0.658 -1.588,-1.204 -2.427,-1.738c-1.572,-1.001 -3.166,-1.966 -4.761,-2.93c-2.85,-1.721 -5.734,-3.387 -8.551,-5.159c-1.76,-1.107 -3.415,-2.38 -5.135,-3.551c-0.555,-0.377 -1.142,-0.731 -1.76,-0.988c-3.411,-1.423 -6.409,-3.562 -9.567,-5.427c-2.612,-1.542 -5.262,-2.997 -8.423,-3.316c-1.056,-0.106 -2.148,-0.977 -2.993,-1.75c-0.963,-0.88 -1.948,-1.51 -3.228,-1.74c-0.545,-0.098 -1.059,-0.366 -1.588,-0.553c-2.345,-0.831 -4.692,-1.657 -7.035,-2.493c-0.529,-0.188 -1.057,-0.386 -1.568,-0.618c-1.437,-0.651 -2.822,-1.446 -4.305,-1.961c-2.97,-1.031 -5.978,-1.958 -8.999,-2.831c-0.949,-0.274 -2.002,-0.162 -2.984,-0.351c-4.221,-0.811 -8.445,-1.613 -12.644,-2.529c-2.288,-0.5 -4.055,-1.987 -5.565,-3.684c-1.226,-1.377 -0.751,-3.248 -1.016,-4.902c-0.132,-0.829 -0.262,-1.673 -0.245,-2.508c0.026,-1.288 0.019,-2.611 0.31,-3.852c0.826,-3.515 1.785,-6.998 2.712,-10.489c0.799,-3.006 1.572,-6.02 2.456,-9.002c1.094,-3.689 2.363,-7.328 3.422,-11.026c0.895,-3.126 2.979,-3.91 6.017,-3.561c3.928,0.452 7.866,0.82 11.79,1.301c2.528,0.31 5.034,0.795 7.558,1.139c5.774,0.785 11.564,1.455 17.325,2.323c3.34,0.503 6.64,1.284 9.951,1.969c1.385,0.286 2.759,0.627 4.128,0.981c2.189,0.567 4.377,1.142 6.553,1.759c1.452,0.413 2.923,0.808 4.306,1.399c0.853,0.365 1.556,1.081 2.324,1.644c0.269,0.198 0.5,0.482 0.799,0.6c2.73,1.08 5.495,2.072 8.202,3.205c3.705,1.55 7.367,3.201 11.048,4.807c2.593,1.131 5.189,2.253 7.78,3.389c0.827,0.362 1.633,0.772 2.463,1.128c0.404,0.173 0.842,0.262 1.26,0.405c0.458,0.157 0.976,0.241 1.354,0.515c1.46,1.055 2.82,2.143 4.704,2.568c1.43,0.322 2.728,1.294 4.039,2.056c1.207,0.701 2.353,1.509 3.528,2.267c0.286,0.184 0.566,0.384 0.871,0.53c2.545,1.216 5.268,2.163 7.582,3.719c1.514,1.018 3.439,1.109 4.719,2.644c1.142,1.368 2.716,2.379 4.115,3.527c1.787,1.468 3.468,3.12 5.427,4.307c1.528,0.925 2.481,2.253 3.65,3.46c1.72,1.777 3.529,3.473 5.363,5.134c1.162,1.052 2.456,1.955 3.65,2.973c0.423,0.36 0.909,0.81 1.047,1.307c0.419,1.51 1.534,2.361 2.75,3.064c2.236,1.293 3.823,3.215 5.124,5.335c1.297,2.113 2.84,3.867 4.949,5.2c0.981,0.621 1.74,1.598 2.58,2.433c1.877,1.868 3.764,3.726 5.6,5.633c0.702,0.728 1.26,1.593 1.915,2.369c0.797,0.944 1.617,1.869 2.447,2.785c1.399,1.545 2.82,3.072 4.221,4.615c2.927,3.223 5.864,6.436 8.763,9.684c1.612,1.806 3.331,3.555 4.672,5.552c0.919,1.37 1.829,2.654 3.045,3.78c0.759,0.702 1.239,1.712 1.825,2.596c1.218,1.836 2.424,3.681 3.636,5.521c2.238,3.398 4.624,6.7 6.186,10.51c0.369,0.898 1.327,1.536 1.893,2.376c0.619,0.918 1.153,1.905 1.623,2.909c0.836,1.784 1.598,3.602 2.387,5.408c0.538,1.231 1.075,2.463 1.6,3.699c0.064,0.151 0.017,0.351 0.087,0.497c1.244,2.594 2.537,5.165 3.734,7.779c0.772,1.684 1.396,3.435 2.106,5.148c0.71,1.71 1.465,3.401 2.157,5.118c0.294,0.729 0.479,1.503 0.691,2.183l0,-0Z" style="fill:#ff5757;fill-rule:nonzero;"/><path d="M1302.87,561.501c0.443,2.776 0.453,5.72 1.447,8.281c1.071,2.76 1.574,5.451 1.674,8.355c0.108,3.099 0.526,6.187 0.789,9.282c0.134,1.58 0.357,3.168 0.309,4.746c-0.114,3.709 0.107,7.522 -0.705,11.089c-0.713,3.134 -0.46,6.251 -0.96,9.339c-0.243,1.501 -0.386,3.019 -0.522,4.534c-0.197,2.197 -0.306,4.402 -0.538,6.594c-0.076,0.713 -0.479,1.386 -0.628,2.099c-0.323,1.545 -0.668,3.095 -0.842,4.662c-0.264,2.371 -0.598,4.685 -1.523,6.934c-0.518,1.258 -0.408,2.76 -0.738,4.113c-0.305,1.254 -0.799,2.464 -1.245,3.68c-0.407,1.108 -0.806,2.226 -1.307,3.293c-0.886,1.886 -1.601,3.924 -2.839,5.555c-1.485,1.955 -3.304,3.731 -5.251,5.231c-1.087,0.837 -2.739,1.363 -4.116,1.323c-3.899,-0.115 -7.787,-0.606 -11.681,-0.922c-0.948,-0.077 -1.907,-0.013 -2.856,-0.088c-1.233,-0.097 -2.48,-0.177 -3.688,-0.423c-3.714,-0.758 -7.452,-1.023 -11.239,-0.886c-0.813,0.029 -1.727,-0.219 -2.441,-0.616c-1.034,-0.575 -2.034,-0.487 -3.12,-0.417c-0.885,0.057 -1.86,0.044 -2.666,-0.268c-3.028,-1.174 -6.198,-1.575 -9.375,-1.998c-1.766,-0.235 -2.968,-1.255 -3.811,-2.788c-0.375,-0.682 -0.81,-1.343 -1.303,-1.943c-0.863,-1.05 -1.084,-2.162 -0.696,-3.473c0.383,-1.294 0.644,-2.625 0.954,-3.941c0.078,-0.33 0.062,-0.711 0.225,-0.989c1.853,-3.15 2.735,-6.69 4.037,-10.058c1.614,-4.177 2.847,-8.456 3.243,-12.963c0.171,-1.949 0.922,-3.843 1.136,-5.793c0.257,-2.339 0.216,-4.71 0.319,-7.067c0.02,-0.45 0.077,-0.905 0.179,-1.343c0.51,-2.194 1.083,-4.312 0.698,-6.673c-0.487,-2.996 -0.533,-6.066 -0.712,-9.107c-0.078,-1.336 0.049,-2.684 -0.033,-4.019c-0.072,-1.179 -0.217,-2.368 -0.489,-3.515c-0.429,-1.812 -1.089,-3.572 -1.47,-5.392c-0.403,-1.929 -0.835,-3.904 -0.813,-5.854c0.022,-1.974 -0.312,-3.795 -0.863,-5.659c-0.931,-3.146 -1.639,-6.358 -2.565,-9.506c-0.504,-1.716 -1.27,-3.353 -1.904,-5.032c-0.277,-0.735 -0.521,-1.483 -0.776,-2.227c-0.347,-1.007 -0.673,-2.022 -1.039,-3.023c-0.499,-1.364 -0.936,-2.762 -1.565,-4.066c-0.958,-1.983 -2.064,-3.893 -3.093,-5.842c-0.368,-0.697 -0.775,-1.388 -1.023,-2.13c-0.502,-1.503 -1.395,-2.621 -2.638,-3.631c-1.204,-0.979 -2.152,-2.284 -3.166,-3.484c-1.343,-1.591 -2.609,-3.247 -3.972,-4.82c-0.701,-0.809 -1.543,-1.495 -2.313,-2.244c-0.566,-0.55 -1.24,-1.036 -1.656,-1.684c-1.525,-2.378 -3.941,-3.866 -5.776,-5.928c-1.488,-1.673 -2.966,-3.358 -4.522,-4.966c-0.982,-1.014 -2.13,-1.866 -3.151,-2.845c-2.033,-1.949 -3.996,-3.971 -6.057,-5.888c-0.947,-0.881 -2.107,-1.531 -3.078,-2.39c-0.701,-0.619 -1.187,-1.479 -1.88,-2.109c-1.419,-1.29 -2.885,-2.535 -4.384,-3.734c-2.511,-2.01 -5.052,-3.983 -7.604,-5.941c-0.71,-0.545 -1.483,-1.017 -2.265,-1.456c-3.392,-1.907 -7.294,-2.744 -10.488,-5.118c-0.994,-0.739 -2.365,-1.042 -3.612,-1.353c-1.351,-0.337 -2.653,-0.684 -3.54,-1.838c-1.126,-1.466 -2.976,-1.261 -4.436,-1.961c-1.368,-0.657 -2.838,-1.1 -4.249,-1.671c-2.179,-0.88 -4.14,-2.245 -6.6,-2.509c-1.054,-0.114 -2.005,-1.005 -3.054,-1.41c-1.257,-0.486 -2.565,-0.842 -3.859,-1.231c-2.716,-0.817 -4.448,-2.528 -4.958,-5.379c-0.069,-0.385 -0.106,-0.841 -0.332,-1.124c-1.82,-2.269 -1.217,-4.683 -0.511,-7.123c0.375,-1.295 0.691,-2.607 1.066,-3.902c0.139,-0.484 0.376,-0.939 0.556,-1.411c0.241,-0.634 0.596,-1.255 0.681,-1.91c0.446,-3.442 1.626,-6.673 2.698,-9.942c1.162,-3.542 2.212,-7.121 3.398,-10.655c0.756,-2.249 1.688,-4.438 2.507,-6.666c0.488,-1.326 0.868,-2.692 1.372,-4.011c0.644,-1.684 1.027,-1.991 2.768,-1.89c1.68,0.097 3.388,0.228 5.013,0.629c3.725,0.918 7.389,1.994 10.898,3.651c3.507,1.657 7.159,3.032 10.817,4.335c3.983,1.42 8.066,2.554 12.067,3.926c3.672,1.26 7.291,2.675 10.938,4.011c2.065,0.755 4.17,1.41 6.198,2.251c2.608,1.082 5.2,2.218 7.721,3.486c4.481,2.252 8.588,5.165 13.287,7.077c3.856,1.568 7.47,3.743 11.149,5.728c0.875,0.472 1.539,1.318 2.371,1.889c1.01,0.694 2.094,1.28 3.148,1.909c0.389,0.232 0.832,0.399 1.167,0.691c1.705,1.487 3.371,3.021 5.076,4.508c0.679,0.591 1.459,1.067 2.133,1.662c1.091,0.965 2.144,1.974 3.193,2.985c1.692,1.63 3.372,3.272 5.048,4.918c1.04,1.02 2.056,2.064 3.1,3.08c0.281,0.274 0.593,0.565 0.947,0.71c1.516,0.618 2.303,1.882 3.188,3.165c1.146,1.662 2.581,3.123 3.876,4.683c1.882,2.267 3.824,4.489 5.592,6.842c0.904,1.203 1.484,2.649 2.211,3.985c0.538,0.989 0.93,2.1 1.639,2.946c3.855,4.604 6.594,9.832 9.098,15.253c1.332,2.883 2.314,5.835 3.181,8.857c0.124,0.429 0.219,0.937 0.506,1.236c1.428,1.488 1.746,3.383 2.112,5.284c0.181,0.94 0.349,1.919 0.752,2.772c1.202,2.544 1.157,5.552 2.966,7.867c0.196,0.25 0.215,0.639 0.312,0.965c1.214,4.069 2.426,8.139 3.644,12.207c0.129,0.434 0.186,0.943 0.454,1.273c2.007,2.473 1.966,5.597 2.767,8.452c0.489,1.745 1.035,3.475 1.539,5.217c0.251,0.869 0.465,1.749 0.696,2.624l-0.324,0.061l-0,0Z" style="fill:#ff5757;fill-rule:nonzero;"/><path d="M1155.07,612.046c-2.547,0.5 -4.798,1.089 -7.087,1.353c-2.74,0.317 -5.525,0.598 -8.268,0.456c-3.323,-0.171 -6.639,-0.709 -9.929,-1.258c-3.45,-0.575 -6.533,-2.203 -9.501,-3.948c-3.859,-2.266 -7.394,-5.009 -10.75,-7.973c-0.17,-0.15 -0.386,-0.278 -0.491,-0.467c-1.518,-2.742 -4.074,-4.523 -6.234,-6.656c-1.451,-1.433 -1.642,-3.322 -2.265,-5.046c-0.899,-2.491 -1.636,-5.043 -2.364,-7.591c-0.225,-0.789 -0.257,-1.65 -0.266,-2.478c-0.026,-2.325 0.014,-4.65 0.014,-6.975c0,-1.585 -0.046,-3.171 -0.017,-4.755c0.008,-0.43 0.186,-0.868 0.339,-1.283c0.701,-1.902 1.508,-3.77 2.108,-5.703c0.534,-1.719 0.838,-3.509 1.264,-5.263c0.133,-0.549 0.236,-1.141 0.521,-1.611c1.225,-2.016 2.516,-3.992 3.775,-5.988c0.301,-0.478 0.53,-1.006 0.864,-1.459c0.685,-0.931 1.342,-1.902 2.147,-2.722c1.623,-1.654 3.392,-3.166 5.004,-4.831c2.84,-2.933 6.174,-5.116 9.843,-6.851c2.093,-0.99 4.07,-2.291 6.243,-3.026c1.604,-0.542 3.44,-0.398 5.174,-0.544c0.16,-0.014 0.333,0.128 0.493,0.115c3.028,-0.235 6.061,-0.423 9.079,-0.75c1.805,-0.196 3.547,-0.42 5.355,0.16c1.096,0.351 2.343,0.198 3.496,0.411c1.158,0.214 2.313,0.52 3.418,0.926c3.225,1.186 6.464,2.349 9.213,4.534c0.601,0.478 1.386,0.811 2.139,0.997c2.461,0.605 4.432,1.96 6.15,3.754c1.519,1.587 3.163,3.079 4.509,4.802c1.022,1.307 1.674,2.906 2.465,4.389c0.316,0.592 0.575,1.215 0.838,1.833c0.486,1.142 1.002,2.274 1.422,3.441c0.592,1.645 0.976,3.375 1.683,4.965c1.45,3.261 1.739,6.669 1.453,10.135c-0.245,2.976 -0.453,6 -1.163,8.883c-1.019,4.141 -1.647,8.447 -4.064,12.155c-0.632,0.97 -0.878,2.183 -1.39,3.242c-0.46,0.951 -0.928,1.935 -1.59,2.743c-2.288,2.791 -4.621,5.549 -7.023,8.242c-1.089,1.22 -2.383,2.258 -3.583,3.379c-0.869,0.812 -1.724,1.64 -2.612,2.43c-0.46,0.409 -0.929,0.881 -1.482,1.101c-2.988,1.187 -5.926,2.567 -8.93,2.732l-0,-0Z" style="fill:#ff5757;fill-rule:nonzero;"/></g></g></g></g></svg>